<svg width="335" height="135" viewBox="0 0 335 135" fill="none" xmlns="http://www.w3.org/2000/svg">
<rect y="12.4988" width="335" height="122" rx="12" fill="#141414"/>
<path d="M34.2148 64.0689H45.6388V64.7269H34.2148V64.0689ZM33.6548 69.0669H46.1008V69.7109H33.6548V69.0669ZM42.1388 64.3629H42.8248V75.8289H42.1388V64.3629ZM37.1408 64.3489H37.8128V68.3389C37.8128 69.0203 37.7755 69.7016 37.7008 70.3829C37.6262 71.0643 37.4675 71.7269 37.2248 72.3709C36.9915 73.0149 36.6368 73.6309 36.1608 74.2189C35.6848 74.8069 35.0455 75.3529 34.2428 75.8569C34.2055 75.8009 34.1588 75.7449 34.1028 75.6889C34.0468 75.6329 33.9862 75.5723 33.9208 75.5069C33.8555 75.4509 33.7902 75.4043 33.7248 75.3669C34.4995 74.8909 35.1108 74.3776 35.5588 73.8269C36.0162 73.2669 36.3568 72.6883 36.5808 72.0909C36.8142 71.4843 36.9635 70.8636 37.0288 70.2289C37.1035 69.5943 37.1408 68.9643 37.1408 68.3389V64.3489ZM54.0948 74.5269H59.2468V75.1569H54.0948V74.5269ZM53.7448 70.2429H59.5828V75.7869H58.9108V70.9009H54.4028V75.8429H53.7448V70.2429ZM52.7368 68.0869C53.2875 68.0496 53.9315 68.0123 54.6688 67.9749C55.4155 67.9376 56.2088 67.8909 57.0488 67.8349C57.8982 67.7789 58.7475 67.7229 59.5968 67.6669L59.5828 68.2969C58.7708 68.3529 57.9588 68.4136 57.1468 68.4789C56.3348 68.5349 55.5602 68.5909 54.8228 68.6469C54.0855 68.6936 53.4275 68.7356 52.8488 68.7729L52.7368 68.0869ZM57.5248 65.5389L58.0708 65.2589C58.3975 65.6416 58.7148 66.0569 59.0228 66.5049C59.3402 66.9529 59.6202 67.3963 59.8628 67.8349C60.1148 68.2643 60.3015 68.6469 60.4228 68.9829L59.8208 69.3329C59.6995 68.9876 59.5175 68.5956 59.2748 68.1569C59.0322 67.7089 58.7568 67.2563 58.4488 66.7989C58.1502 66.3416 57.8422 65.9216 57.5248 65.5389ZM55.6488 63.0889L56.3768 63.2709C56.1902 63.8216 55.9755 64.4143 55.7328 65.0489C55.4995 65.6836 55.2568 66.2996 55.0048 66.8969C54.7622 67.4943 54.5288 68.0169 54.3048 68.4649L53.7168 68.2829C53.8848 67.9469 54.0575 67.5643 54.2348 67.1349C54.4215 66.6963 54.5988 66.2436 54.7668 65.7769C54.9442 65.3009 55.1075 64.8343 55.2568 64.3769C55.4062 63.9103 55.5368 63.4809 55.6488 63.0889ZM47.5288 66.0569H52.1908V66.7149H47.5288V66.0569ZM49.7968 63.0889L50.4548 63.1729C50.3148 63.8449 50.1562 64.5729 49.9788 65.3569C49.8015 66.1316 49.6148 66.9156 49.4188 67.7089C49.2322 68.5023 49.0455 69.2583 48.8588 69.9769C48.6815 70.6956 48.5088 71.3303 48.3408 71.8809L47.7668 71.5729C47.9255 71.0503 48.0935 70.4389 48.2708 69.7389C48.4482 69.0389 48.6302 68.2969 48.8168 67.5129C49.0035 66.7289 49.1808 65.9589 49.3488 65.2029C49.5168 64.4376 49.6662 63.7329 49.7968 63.0889ZM48.1728 71.0129L48.5508 70.5369C49.1015 70.8263 49.6568 71.1576 50.2168 71.5309C50.7768 71.8949 51.2948 72.2729 51.7708 72.6649C52.2468 73.0569 52.6248 73.4256 52.9048 73.7709L52.4848 74.3309C52.2048 73.9763 51.8268 73.5983 51.3508 73.1969C50.8748 72.7956 50.3615 72.4036 49.8108 72.0209C49.2602 71.6383 48.7142 71.3023 48.1728 71.0129ZM51.9108 66.0569H52.0368L52.1488 66.0289L52.5688 66.1269C52.4382 67.9189 52.1722 69.4543 51.7708 70.7329C51.3788 72.0023 50.8702 73.0523 50.2448 73.8829C49.6288 74.7136 48.9102 75.3669 48.0888 75.8429C48.0328 75.7683 47.9628 75.6749 47.8788 75.5629C47.7948 75.4509 47.7108 75.3623 47.6268 75.2969C48.4015 74.8863 49.0828 74.2843 49.6708 73.4909C50.2682 72.6976 50.7582 71.6989 51.1408 70.4949C51.5235 69.2909 51.7802 67.8676 51.9108 66.2249V66.0569ZM62.4808 64.3209H66.2608V73.2109H62.4808V72.5809H65.6168V64.9509H62.4808V64.3209ZM62.4948 68.3809H65.9388V68.9969H62.4948V68.3809ZM62.1448 64.3209H62.8028V74.3449H62.1448V64.3209ZM66.9608 66.0289H74.2688V66.7009H66.9608V66.0289ZM71.7208 63.1589H72.4068V74.6249C72.4068 74.9329 72.3555 75.1569 72.2528 75.2969C72.1502 75.4369 71.9915 75.5396 71.7768 75.6049C71.5622 75.6609 71.2355 75.6936 70.7968 75.7029C70.3675 75.7123 69.7982 75.7169 69.0888 75.7169C69.0702 75.6236 69.0328 75.5069 68.9768 75.3669C68.9302 75.2269 68.8835 75.1103 68.8368 75.0169C69.2288 75.0263 69.5928 75.0309 69.9288 75.0309C70.2648 75.0403 70.5542 75.0403 70.7968 75.0309C71.0395 75.0309 71.2122 75.0263 71.3148 75.0169C71.4642 75.0076 71.5668 74.9749 71.6228 74.9189C71.6882 74.8723 71.7208 74.7743 71.7208 74.6249V63.1589ZM67.6328 68.2409L68.1928 67.9609C68.4635 68.3249 68.7388 68.7216 69.0188 69.1509C69.3082 69.5803 69.5788 69.9956 69.8308 70.3969C70.0828 70.7983 70.2882 71.1483 70.4468 71.4469L69.8588 71.7829C69.7002 71.4936 69.4948 71.1436 69.2428 70.7329C69.0002 70.3223 68.7388 69.8976 68.4588 69.4589C68.1788 69.0203 67.9035 68.6143 67.6328 68.2409ZM76.3128 66.1269H76.9848V75.8289H76.3128V66.1269ZM76.5228 63.6489L77.0408 63.3269C77.2555 63.5229 77.4748 63.7376 77.6988 63.9709C77.9322 64.1949 78.1422 64.4189 78.3288 64.6429C78.5248 64.8669 78.6788 65.0723 78.7908 65.2589L78.2308 65.6369C78.1282 65.4503 77.9835 65.2449 77.7968 65.0209C77.6102 64.7876 77.4048 64.5496 77.1808 64.3069C76.9662 64.0643 76.7468 63.8449 76.5228 63.6489ZM79.8968 63.9289H87.1488V64.5869H79.8968V63.9289ZM86.7568 63.9289H87.4428V74.8489C87.4428 75.0916 87.4102 75.2689 87.3448 75.3809C87.2795 75.5023 87.1722 75.5956 87.0228 75.6609C86.8642 75.7169 86.6402 75.7496 86.3508 75.7589C86.0708 75.7683 85.7208 75.7729 85.3008 75.7729C85.2728 75.6889 85.2355 75.5816 85.1888 75.4509C85.1515 75.3203 85.1048 75.2083 85.0488 75.1149C85.3848 75.1243 85.6882 75.1289 85.9588 75.1289C86.2388 75.1289 86.4208 75.1289 86.5048 75.1289C86.6075 75.1196 86.6728 75.0963 86.7008 75.0589C86.7382 75.0216 86.7568 74.9563 86.7568 74.8629V63.9289ZM79.9668 70.5369V72.7489H83.7188V70.5369H79.9668ZM79.9668 67.7509V69.9349H83.7188V67.7509H79.9668ZM79.3368 67.1489H84.3768V73.3369H79.3368V67.1489ZM95.8708 66.9389C95.6375 66.9389 95.4275 66.8596 95.2408 66.7009C95.0635 66.5423 94.9748 66.3229 94.9748 66.0429C94.9748 65.7536 95.0635 65.5343 95.2408 65.3849C95.4275 65.2263 95.6375 65.1469 95.8708 65.1469C96.1042 65.1469 96.3095 65.2263 96.4868 65.3849C96.6735 65.5343 96.7668 65.7536 96.7668 66.0429C96.7668 66.3229 96.6735 66.5423 96.4868 66.7009C96.3095 66.8596 96.1042 66.9389 95.8708 66.9389ZM95.8708 73.8829C95.6375 73.8829 95.4275 73.8083 95.2408 73.6589C95.0635 73.5003 94.9748 73.2809 94.9748 73.0009C94.9748 72.7116 95.0635 72.4923 95.2408 72.3429C95.4275 72.1843 95.6375 72.1049 95.8708 72.1049C96.1042 72.1049 96.3095 72.1843 96.4868 72.3429C96.6735 72.4923 96.7668 72.7116 96.7668 73.0009C96.7668 73.2809 96.6735 73.5003 96.4868 73.6589C96.3095 73.8083 96.1042 73.8829 95.8708 73.8829ZM104.004 74.7789V74.0978L107.33 70.3592C107.765 69.8687 108.114 69.4494 108.379 69.1014C108.644 68.7534 108.837 68.4319 108.956 68.1369C109.079 67.8419 109.14 67.5353 109.14 67.2171C109.14 66.8294 109.049 66.4913 108.867 66.2029C108.688 65.9113 108.441 65.6842 108.126 65.5218C107.811 65.3594 107.456 65.2782 107.062 65.2782C106.644 65.2782 106.278 65.3677 105.963 65.5467C105.652 65.7257 105.41 65.9709 105.237 66.2825C105.065 66.594 104.979 66.952 104.979 67.3563H104.089C104.089 66.7929 104.218 66.2941 104.477 65.8599C104.738 65.4224 105.095 65.0794 105.546 64.8308C106 64.5822 106.513 64.4579 107.087 64.4579C107.653 64.4579 108.157 64.5805 108.598 64.8258C109.039 65.0678 109.385 65.3975 109.637 65.8152C109.889 66.2328 110.015 66.7001 110.015 67.2171C110.015 67.5917 109.949 67.9546 109.816 68.3059C109.687 68.6572 109.463 69.0483 109.145 69.4792C108.827 69.9101 108.386 70.4371 107.823 71.0602L105.297 73.8791V73.9437H110.333V74.7789H104.004ZM115.711 74.9181C114.995 74.9181 114.384 74.7126 113.877 74.3017C113.373 73.8874 112.985 73.2891 112.713 72.5069C112.445 71.7247 112.311 70.7851 112.311 69.688C112.311 68.5943 112.445 67.658 112.713 66.8791C112.985 66.0969 113.375 65.4986 113.882 65.0843C114.392 64.6667 115.002 64.4579 115.711 64.4579C116.42 64.4579 117.029 64.6667 117.536 65.0843C118.046 65.4986 118.436 66.0969 118.704 66.8791C118.976 67.658 119.112 68.5943 119.112 69.688C119.112 70.7851 118.976 71.7247 118.704 72.5069C118.436 73.2891 118.048 73.8874 117.541 74.3017C117.037 74.7126 116.427 74.9181 115.711 74.9181ZM115.711 74.0829C116.497 74.0829 117.11 73.7001 117.551 72.9345C117.991 72.1655 118.212 71.0834 118.212 69.688C118.212 68.76 118.111 67.9679 117.909 67.3116C117.71 66.652 117.423 66.1482 117.049 65.8002C116.677 65.4522 116.232 65.2782 115.711 65.2782C114.932 65.2782 114.321 65.666 113.877 66.4416C113.433 67.2138 113.21 68.296 113.21 69.688C113.21 70.6161 113.31 71.4082 113.509 72.0644C113.711 72.7207 113.998 73.2212 114.369 73.5659C114.743 73.9106 115.191 74.0829 115.711 74.0829ZM121.135 74.7789V74.0978L124.461 70.3592C124.895 69.8687 125.245 69.4494 125.51 69.1014C125.775 68.7534 125.968 68.4319 126.087 68.1369C126.21 67.8419 126.271 67.5353 126.271 67.2171C126.271 66.8294 126.18 66.4913 125.997 66.2029C125.818 65.9113 125.572 65.6842 125.257 65.5218C124.942 65.3594 124.587 65.2782 124.193 65.2782C123.775 65.2782 123.409 65.3677 123.094 65.5467C122.782 65.7257 122.541 65.9709 122.368 66.2825C122.196 66.594 122.11 66.952 122.11 67.3563H121.22C121.22 66.7929 121.349 66.2941 121.608 65.8599C121.869 65.4224 122.226 65.0794 122.676 64.8308C123.13 64.5822 123.644 64.4579 124.218 64.4579C124.784 64.4579 125.288 64.5805 125.729 64.8258C126.17 65.0678 126.516 65.3975 126.768 65.8152C127.02 66.2328 127.146 66.7001 127.146 67.2171C127.146 67.5917 127.08 67.9546 126.947 68.3059C126.818 68.6572 126.594 69.0483 126.276 69.4792C125.958 69.9101 125.517 70.4371 124.953 71.0602L122.428 73.8791V73.9437H127.464V74.7789H121.135ZM132.658 74.9181C132.091 74.9181 131.584 74.8038 131.137 74.5751C130.693 74.3431 130.338 74.0249 130.073 73.6205C129.811 73.2162 129.672 72.7538 129.655 72.2335H130.555C130.585 72.7737 130.797 73.2179 131.191 73.5659C131.586 73.9106 132.075 74.0829 132.658 74.0829C133.112 74.0829 133.517 73.9752 133.871 73.7598C134.226 73.541 134.503 73.2427 134.701 72.8649C134.904 72.4837 135.005 72.0545 135.005 71.5772C135.001 71.0801 134.894 70.6426 134.682 70.2647C134.469 69.8836 134.181 69.5853 133.816 69.3698C133.455 69.1544 133.049 69.0467 132.598 69.0467C132.257 69.0434 131.922 69.0997 131.594 69.2157C131.266 69.3317 130.993 69.4809 130.774 69.6632L129.844 69.5438L130.456 64.5971H135.487V65.4323H131.236L130.829 68.8379H130.878C131.104 68.649 131.377 68.4948 131.699 68.3755C132.023 68.2562 132.366 68.1965 132.728 68.1965C133.328 68.1965 133.866 68.3407 134.343 68.6291C134.824 68.9174 135.204 69.3152 135.482 69.8223C135.764 70.326 135.905 70.9061 135.905 71.5623C135.905 72.2053 135.764 72.7804 135.482 73.2875C135.204 73.7912 134.819 74.189 134.329 74.4806C133.841 74.7723 133.285 74.9181 132.658 74.9181ZM141.361 64.1198L138.08 76.3102H137.249L140.531 64.1198H141.361ZM146.002 64.5971V74.7789H145.072V65.5715H145.013L142.626 67.1575V66.193L145.032 64.5971H146.002ZM152.256 74.9181C151.54 74.9181 150.929 74.7126 150.422 74.3017C149.918 73.8874 149.53 73.2891 149.258 72.5069C148.99 71.7247 148.856 70.7851 148.856 69.688C148.856 68.5943 148.99 67.658 149.258 66.8791C149.53 66.0969 149.919 65.4986 150.427 65.0843C150.937 64.6667 151.547 64.4579 152.256 64.4579C152.965 64.4579 153.574 64.6667 154.081 65.0843C154.591 65.4986 154.981 66.0969 155.249 66.8791C155.521 67.658 155.657 68.5943 155.657 69.688C155.657 70.7851 155.521 71.7247 155.249 72.5069C154.981 73.2891 154.593 73.8874 154.086 74.3017C153.582 74.7126 152.972 74.9181 152.256 74.9181ZM152.256 74.0829C153.042 74.0829 153.655 73.7001 154.096 72.9345C154.536 72.1655 154.757 71.0834 154.757 69.688C154.757 68.76 154.656 67.9679 154.454 67.3116C154.255 66.652 153.968 66.1482 153.593 65.8002C153.222 65.4522 152.776 65.2782 152.256 65.2782C151.477 65.2782 150.866 65.666 150.422 66.4416C149.977 67.2138 149.755 68.296 149.755 69.688C149.755 70.6161 149.855 71.4082 150.054 72.0644C150.256 72.7207 150.543 73.2212 150.914 73.5659C151.288 73.9106 151.736 74.0829 152.256 74.0829ZM161.021 64.1198L157.74 76.3102H156.91L160.191 64.1198H161.021ZM165.662 64.5971V74.7789H164.732V65.5715H164.673L162.286 67.1575V66.193L164.693 64.5971H165.662ZM171.916 74.9181C171.2 74.9181 170.589 74.7126 170.082 74.3017C169.578 73.8874 169.19 73.2891 168.918 72.5069C168.65 71.7247 168.516 70.7851 168.516 69.688C168.516 68.5943 168.65 67.658 168.918 66.8791C169.19 66.0969 169.58 65.4986 170.087 65.0843C170.597 64.6667 171.207 64.4579 171.916 64.4579C172.626 64.4579 173.234 64.6667 173.741 65.0843C174.251 65.4986 174.641 66.0969 174.909 66.8791C175.181 67.658 175.317 68.5943 175.317 69.688C175.317 70.7851 175.181 71.7247 174.909 72.5069C174.641 73.2891 174.253 73.8874 173.746 74.3017C173.242 74.7126 172.632 74.9181 171.916 74.9181ZM171.916 74.0829C172.702 74.0829 173.315 73.7001 173.756 72.9345C174.197 72.1655 174.417 71.0834 174.417 69.688C174.417 68.76 174.316 67.9679 174.114 67.3116C173.915 66.652 173.628 66.1482 173.254 65.8002C172.882 65.4522 172.437 65.2782 171.916 65.2782C171.137 65.2782 170.526 65.666 170.082 66.4416C169.638 67.2138 169.416 68.296 169.416 69.688C169.416 70.6161 169.515 71.4082 169.714 72.0644C169.916 72.7207 170.203 73.2212 170.574 73.5659C170.948 73.9106 171.396 74.0829 171.916 74.0829ZM181.278 74.7789V74.0978L184.604 70.3592C185.038 69.8687 185.388 69.4494 185.653 69.1014C185.918 68.7534 186.11 68.4319 186.229 68.1369C186.352 67.8419 186.413 67.5353 186.413 67.2171C186.413 66.8294 186.322 66.4913 186.14 66.2029C185.961 65.9113 185.714 65.6842 185.399 65.5218C185.084 65.3594 184.73 65.2782 184.335 65.2782C183.918 65.2782 183.551 65.3677 183.237 65.5467C182.925 65.7257 182.683 65.9709 182.511 66.2825C182.338 66.594 182.252 66.952 182.252 67.3563H181.362C181.362 66.7929 181.492 66.2941 181.75 65.8599C182.012 65.4224 182.368 65.0794 182.819 64.8308C183.273 64.5822 183.787 64.4579 184.36 64.4579C184.927 64.4579 185.431 64.5805 185.872 64.8258C186.312 65.0678 186.659 65.3975 186.911 65.8152C187.162 66.2328 187.288 66.7001 187.288 67.2171C187.288 67.5917 187.222 67.9546 187.09 68.3059C186.96 68.6572 186.737 69.0483 186.418 69.4792C186.1 69.9101 185.659 70.4371 185.096 71.0602L182.57 73.8791V73.9437H187.607V74.7789H181.278ZM189.823 74.7789V74.0978L193.149 70.3592C193.583 69.8687 193.933 69.4494 194.198 69.1014C194.463 68.7534 194.655 68.4319 194.774 68.1369C194.897 67.8419 194.958 67.5353 194.958 67.2171C194.958 66.8294 194.867 66.4913 194.685 66.2029C194.506 65.9113 194.259 65.6842 193.944 65.5218C193.629 65.3594 193.275 65.2782 192.88 65.2782C192.463 65.2782 192.096 65.3677 191.782 65.5467C191.47 65.7257 191.228 65.9709 191.056 66.2825C190.883 66.594 190.797 66.952 190.797 67.3563H189.907C189.907 66.7929 190.036 66.2941 190.295 65.8599C190.557 65.4224 190.913 65.0794 191.364 64.8308C191.818 64.5822 192.332 64.4579 192.905 64.4579C193.472 64.4579 193.976 64.5805 194.416 64.8258C194.857 65.0678 195.204 65.3975 195.456 65.8152C195.707 66.2328 195.833 66.7001 195.833 67.2171C195.833 67.5917 195.767 67.9546 195.634 68.3059C195.505 68.6572 195.282 69.0483 194.963 69.4792C194.645 69.9101 194.204 70.4371 193.641 71.0602L191.115 73.8791V73.9437H196.152V74.7789H189.823ZM199.108 73.2527C198.913 73.2527 198.744 73.183 198.601 73.0438C198.462 72.9013 198.392 72.7323 198.392 72.5367C198.392 72.3379 198.462 72.1688 198.601 72.0296C198.744 71.8904 198.913 71.8208 199.108 71.8208C199.307 71.8208 199.476 71.8904 199.615 72.0296C199.755 72.1688 199.824 72.3379 199.824 72.5367C199.824 72.666 199.791 72.7853 199.725 72.8947C199.662 73.0041 199.576 73.0919 199.466 73.1582C199.36 73.2212 199.241 73.2527 199.108 73.2527ZM199.108 68.0872C198.913 68.0872 198.744 68.0176 198.601 67.8784C198.462 67.7358 198.392 67.5668 198.392 67.3713C198.392 67.1757 198.462 67.0083 198.601 66.8691C198.744 66.7266 198.913 66.6554 199.108 66.6554C199.307 66.6554 199.476 66.7266 199.615 66.8691C199.755 67.0083 199.824 67.1757 199.824 67.3713C199.824 67.5005 199.791 67.6198 199.725 67.7292C199.662 67.8386 199.576 67.9264 199.466 67.9927C199.36 68.0557 199.241 68.0872 199.108 68.0872ZM205.289 74.9181C204.573 74.9181 203.962 74.7126 203.455 74.3017C202.951 73.8874 202.563 73.2891 202.291 72.5069C202.023 71.7247 201.889 70.7851 201.889 69.688C201.889 68.5943 202.023 67.658 202.291 66.8791C202.563 66.0969 202.953 65.4986 203.46 65.0843C203.97 64.6667 204.58 64.4579 205.289 64.4579C205.999 64.4579 206.607 64.6667 207.114 65.0843C207.624 65.4986 208.014 66.0969 208.282 66.8791C208.554 67.658 208.69 68.5943 208.69 69.688C208.69 70.7851 208.554 71.7247 208.282 72.5069C208.014 73.2891 207.626 73.8874 207.119 74.3017C206.615 74.7126 206.005 74.9181 205.289 74.9181ZM205.289 74.0829C206.075 74.0829 206.688 73.7001 207.129 72.9345C207.57 72.1655 207.79 71.0834 207.79 69.688C207.79 68.76 207.689 67.9679 207.487 67.3116C207.288 66.652 207.001 66.1482 206.627 65.8002C206.255 65.4522 205.81 65.2782 205.289 65.2782C204.51 65.2782 203.899 65.666 203.455 66.4416C203.011 67.2138 202.789 68.296 202.789 69.688C202.789 70.6161 202.888 71.4082 203.087 72.0644C203.289 72.7207 203.576 73.2212 203.947 73.5659C204.322 73.9106 204.769 74.0829 205.289 74.0829ZM213.875 74.9181C213.159 74.9181 212.548 74.7126 212.041 74.3017C211.537 73.8874 211.149 73.2891 210.877 72.5069C210.609 71.7247 210.475 70.7851 210.475 69.688C210.475 68.5943 210.609 67.658 210.877 66.8791C211.149 66.0969 211.539 65.4986 212.046 65.0843C212.556 64.6667 213.166 64.4579 213.875 64.4579C214.585 64.4579 215.193 64.6667 215.7 65.0843C216.21 65.4986 216.6 66.0969 216.868 66.8791C217.14 67.658 217.276 68.5943 217.276 69.688C217.276 70.7851 217.14 71.7247 216.868 72.5069C216.6 73.2891 216.212 73.8874 215.705 74.3017C215.201 74.7126 214.591 74.9181 213.875 74.9181ZM213.875 74.0829C214.661 74.0829 215.274 73.7001 215.715 72.9345C216.156 72.1655 216.376 71.0834 216.376 69.688C216.376 68.76 216.275 67.9679 216.073 67.3116C215.874 66.652 215.587 66.1482 215.213 65.8002C214.841 65.4522 214.396 65.2782 213.875 65.2782C213.096 65.2782 212.485 65.666 212.041 66.4416C211.597 67.2138 211.375 68.296 211.375 69.688C211.375 70.6161 211.474 71.4082 211.673 72.0644C211.875 72.7207 212.162 73.2212 212.533 73.5659C212.907 73.9106 213.355 74.0829 213.875 74.0829ZM220.04 73.2527C219.844 73.2527 219.675 73.183 219.533 73.0438C219.394 72.9013 219.324 72.7323 219.324 72.5367C219.324 72.3379 219.394 72.1688 219.533 72.0296C219.675 71.8904 219.844 71.8208 220.04 71.8208C220.239 71.8208 220.408 71.8904 220.547 72.0296C220.686 72.1688 220.756 72.3379 220.756 72.5367C220.756 72.666 220.723 72.7853 220.657 72.8947C220.594 73.0041 220.507 73.0919 220.398 73.1582C220.292 73.2212 220.173 73.2527 220.04 73.2527ZM220.04 68.0872C219.844 68.0872 219.675 68.0176 219.533 67.8784C219.394 67.7358 219.324 67.5668 219.324 67.3713C219.324 67.1757 219.394 67.0083 219.533 66.8691C219.675 66.7266 219.844 66.6554 220.04 66.6554C220.239 66.6554 220.408 66.7266 220.547 66.8691C220.686 67.0083 220.756 67.1757 220.756 67.3713C220.756 67.5005 220.723 67.6198 220.657 67.7292C220.594 67.8386 220.507 67.9264 220.398 67.9927C220.292 68.0557 220.173 68.0872 220.04 68.0872ZM226.221 74.9181C225.505 74.9181 224.894 74.7126 224.386 74.3017C223.883 73.8874 223.495 73.2891 223.223 72.5069C222.955 71.7247 222.82 70.7851 222.82 69.688C222.82 68.5943 222.955 67.658 223.223 66.8791C223.495 66.0969 223.884 65.4986 224.391 65.0843C224.902 64.6667 225.512 64.4579 226.221 64.4579C226.93 64.4579 227.538 64.6667 228.046 65.0843C228.556 65.4986 228.945 66.0969 229.214 66.8791C229.486 67.658 229.622 68.5943 229.622 69.688C229.622 70.7851 229.486 71.7247 229.214 72.5069C228.945 73.2891 228.558 73.8874 228.051 74.3017C227.547 74.7126 226.937 74.9181 226.221 74.9181ZM226.221 74.0829C227.006 74.0829 227.62 73.7001 228.06 72.9345C228.501 72.1655 228.722 71.0834 228.722 69.688C228.722 68.76 228.621 67.9679 228.418 67.3116C228.22 66.652 227.933 66.1482 227.558 65.8002C227.187 65.4522 226.741 65.2782 226.221 65.2782C225.442 65.2782 224.831 65.666 224.386 66.4416C223.942 67.2138 223.72 68.296 223.72 69.688C223.72 70.6161 223.82 71.4082 224.019 72.0644C224.221 72.7207 224.507 73.2212 224.879 73.5659C225.253 73.9106 225.701 74.0829 226.221 74.0829ZM234.807 74.9181C234.091 74.9181 233.479 74.7126 232.972 74.3017C232.469 73.8874 232.081 73.2891 231.809 72.5069C231.541 71.7247 231.406 70.7851 231.406 69.688C231.406 68.5943 231.541 67.658 231.809 66.8791C232.081 66.0969 232.47 65.4986 232.977 65.0843C233.488 64.6667 234.098 64.4579 234.807 64.4579C235.516 64.4579 236.124 64.6667 236.631 65.0843C237.142 65.4986 237.531 66.0969 237.8 66.8791C238.072 67.658 238.207 68.5943 238.207 69.688C238.207 70.7851 238.072 71.7247 237.8 72.5069C237.531 73.2891 237.144 73.8874 236.636 74.3017C236.133 74.7126 235.523 74.9181 234.807 74.9181ZM234.807 74.0829C235.592 74.0829 236.206 73.7001 236.646 72.9345C237.087 72.1655 237.308 71.0834 237.308 69.688C237.308 68.76 237.207 67.9679 237.004 67.3116C236.805 66.652 236.519 66.1482 236.144 65.8002C235.773 65.4522 235.327 65.2782 234.807 65.2782C234.028 65.2782 233.417 65.666 232.972 66.4416C232.528 67.2138 232.306 68.296 232.306 69.688C232.306 70.6161 232.406 71.4082 232.604 72.0644C232.807 72.7207 233.093 73.2212 233.465 73.5659C233.839 73.9106 234.287 74.0829 234.807 74.0829ZM244.571 69.688C244.571 68.4948 244.722 67.3679 245.024 66.3073C245.325 65.2467 245.758 64.2524 246.321 63.3244H247.127C246.885 63.7155 246.662 64.158 246.46 64.6518C246.261 65.1456 246.089 65.6726 245.943 66.2328C245.797 66.7929 245.685 67.3663 245.605 67.9529C245.526 68.5363 245.486 69.1146 245.486 69.688C245.486 70.4536 245.555 71.2259 245.695 72.0048C245.834 72.7837 246.026 73.5228 246.271 74.2221C246.52 74.9214 246.805 75.5313 247.127 76.0517H246.321C245.758 75.1203 245.325 74.1243 245.024 73.0637C244.722 72.0031 244.571 70.8779 244.571 69.688ZM256.027 64.5971H256.957V71.3386C256.957 72.0313 256.794 72.6511 256.469 73.198C256.145 73.7415 255.692 74.1707 255.112 74.4856C254.535 74.7972 253.864 74.9529 253.099 74.9529C252.336 74.9529 251.665 74.7955 251.085 74.4806C250.505 74.1658 250.053 73.7366 249.728 73.193C249.403 72.6494 249.241 72.0313 249.241 71.3386V64.5971H250.17V71.274C250.17 71.8142 250.291 72.2964 250.533 72.7207C250.775 73.1416 251.115 73.4731 251.552 73.715C251.993 73.957 252.509 74.0779 253.099 74.0779C253.689 74.0779 254.204 73.957 254.645 73.715C255.086 73.4731 255.425 73.1416 255.664 72.7207C255.906 72.2964 256.027 71.8142 256.027 71.274V64.5971ZM259.042 65.4323V64.5971H266.425V65.4323H263.198V74.7789H262.269V65.4323H259.042ZM276.069 67.7789H275.134C275.064 67.4309 274.938 67.1094 274.756 66.8144C274.577 66.5161 274.352 66.256 274.08 66.0339C273.808 65.8118 273.5 65.6395 273.155 65.5169C272.811 65.3942 272.438 65.3329 272.037 65.3329C271.394 65.3329 270.807 65.5003 270.277 65.835C269.75 66.1698 269.327 66.662 269.009 67.3116C268.694 67.9579 268.537 68.75 268.537 69.688C268.537 70.6326 268.694 71.4281 269.009 72.0744C269.327 72.7207 269.75 73.2112 270.277 73.546C270.807 73.8774 271.394 74.0431 272.037 74.0431C272.438 74.0431 272.811 73.9818 273.155 73.8592C273.5 73.7366 273.808 73.5659 274.08 73.3471C274.352 73.125 274.577 72.8649 274.756 72.5666C274.938 72.2683 275.064 71.9451 275.134 71.5971H276.069C275.986 72.0644 275.83 72.5003 275.601 72.9046C275.376 73.3057 275.088 73.657 274.736 73.9586C274.388 74.2602 273.987 74.4955 273.533 74.6646C273.079 74.8336 272.58 74.9181 272.037 74.9181C271.182 74.9181 270.423 74.7044 269.76 74.2768C269.097 73.8459 268.576 73.2394 268.199 72.4572C267.824 71.675 267.637 70.7519 267.637 69.688C267.637 68.6241 267.824 67.701 268.199 66.9188C268.576 66.1366 269.097 65.5318 269.76 65.1042C270.423 64.6733 271.182 64.4579 272.037 64.4579C272.58 64.4579 273.079 64.5424 273.533 64.7115C273.987 64.8772 274.388 65.1125 274.736 65.4174C275.088 65.719 275.376 66.0704 275.601 66.4714C275.83 66.8724 275.986 67.3083 276.069 67.7789ZM281.036 72.85V66.5509H281.887V72.85H281.036ZM278.312 70.1255V69.2754H284.611V70.1255H278.312ZM290.3 74.9181C289.65 74.9181 289.072 74.7955 288.565 74.5502C288.058 74.305 287.66 73.9702 287.372 73.546C287.083 73.1184 286.939 72.6362 286.939 72.0992C286.939 71.6783 287.027 71.2856 287.202 70.921C287.378 70.5531 287.62 70.2448 287.928 69.9963C288.237 69.7444 288.583 69.5803 288.967 69.5041V69.4494C288.467 69.3036 288.064 69.0169 287.759 68.5893C287.454 68.1584 287.304 67.6696 287.307 67.1227C287.304 66.6156 287.433 66.1615 287.695 65.7605C287.957 65.3594 288.313 65.0429 288.764 64.8109C289.218 64.5756 289.73 64.4579 290.3 64.4579C290.867 64.4579 291.375 64.5756 291.826 64.8109C292.277 65.0429 292.633 65.3594 292.895 65.7605C293.16 66.1615 293.294 66.6156 293.298 67.1227C293.294 67.6662 293.14 68.1551 292.835 68.5893C292.53 69.0202 292.129 69.3069 291.632 69.4494V69.5041C292.017 69.577 292.361 69.7394 292.666 69.9913C292.971 70.2432 293.213 70.5531 293.392 70.921C293.571 71.2856 293.661 71.6783 293.661 72.0992C293.661 72.6362 293.515 73.1184 293.223 73.546C292.935 73.9702 292.537 74.305 292.03 74.5502C291.526 74.7955 290.949 74.9181 290.3 74.9181ZM290.3 74.0829C290.784 74.0829 291.208 73.9967 291.573 73.8244C291.94 73.6487 292.227 73.4084 292.433 73.1035C292.641 72.7986 292.746 72.4489 292.746 72.0545C292.746 71.6468 292.638 71.2839 292.423 70.9657C292.207 70.6442 291.916 70.3907 291.548 70.2051C291.18 70.0161 290.764 69.9217 290.3 69.9217C289.836 69.9217 289.418 70.0161 289.047 70.2051C288.679 70.3907 288.387 70.6442 288.172 70.9657C287.96 71.2839 287.854 71.6468 287.854 72.0545C287.854 72.4489 287.955 72.7986 288.157 73.1035C288.363 73.4084 288.649 73.6487 289.017 73.8244C289.388 73.9967 289.816 74.0829 290.3 74.0829ZM290.3 69.1262C290.698 69.1262 291.054 69.0417 291.369 68.8727C291.684 68.7036 291.932 68.4733 292.114 68.1816C292.3 67.8866 292.394 67.5519 292.398 67.1774C292.394 66.8062 292.302 66.478 292.119 66.193C291.937 65.9046 291.689 65.6809 291.374 65.5218C291.062 65.3594 290.704 65.2782 290.3 65.2782C289.895 65.2782 289.534 65.3594 289.216 65.5218C288.901 65.6809 288.653 65.9046 288.47 66.193C288.291 66.478 288.203 66.8062 288.207 67.1774C288.203 67.5519 288.293 67.8866 288.475 68.1816C288.661 68.4733 288.911 68.7036 289.226 68.8727C289.544 69.0417 289.902 69.1262 290.3 69.1262ZM297.908 69.688C297.908 70.8812 297.757 72.0081 297.455 73.0687C297.154 74.1293 296.721 75.1236 296.158 76.0517H295.352C295.594 75.6606 295.815 75.2181 296.013 74.7242C296.216 74.2304 296.39 73.7034 296.535 73.1433C296.681 72.5831 296.794 72.0098 296.873 71.4231C296.953 70.8365 296.993 70.2581 296.993 69.688C296.993 68.9224 296.923 68.1501 296.784 67.3713C296.645 66.5924 296.451 65.8533 296.202 65.1539C295.957 64.4546 295.674 63.8447 295.352 63.3244H296.158C296.721 64.2557 297.154 65.2517 297.455 66.3123C297.757 67.3729 297.908 68.4982 297.908 69.688ZM33.7388 102.091C33.7295 102.035 33.7108 101.965 33.6828 101.881C33.6548 101.797 33.6222 101.713 33.5848 101.629C33.5568 101.536 33.5288 101.461 33.5008 101.405C33.6408 101.377 33.7995 101.279 33.9768 101.111C34.1542 100.943 34.3502 100.733 34.5648 100.481C34.6862 100.36 34.8635 100.154 35.0968 99.8649C35.3395 99.5756 35.6055 99.2349 35.8948 98.8429C36.1935 98.4509 36.4968 98.0263 36.8048 97.5689C37.1128 97.1116 37.3928 96.6496 37.6448 96.1829L38.2888 96.5469C37.6728 97.4989 37.0242 98.4276 36.3428 99.3329C35.6615 100.229 34.9708 101.008 34.2708 101.671V101.699C34.2708 101.699 34.2428 101.713 34.1868 101.741C34.1402 101.76 34.0795 101.788 34.0048 101.825C33.9302 101.862 33.8648 101.904 33.8088 101.951C33.7622 101.998 33.7388 102.044 33.7388 102.091ZM33.7388 102.091L33.7248 101.503L34.1448 101.223L38.3728 100.509C38.3728 100.593 38.3775 100.696 38.3868 100.817C38.3962 100.938 38.4055 101.032 38.4148 101.097C37.4255 101.284 36.6322 101.433 36.0348 101.545C35.4468 101.657 34.9988 101.746 34.6908 101.811C34.3828 101.876 34.1635 101.928 34.0328 101.965C33.9022 102.002 33.8042 102.044 33.7388 102.091ZM33.6408 98.7309C33.6315 98.6843 33.6128 98.6189 33.5848 98.5349C33.5568 98.4416 33.5242 98.3529 33.4868 98.2689C33.4588 98.1756 33.4308 98.0963 33.4028 98.0309C33.5148 98.0123 33.6362 97.9236 33.7668 97.7649C33.8975 97.6063 34.0328 97.4103 34.1728 97.1769C34.2568 97.0649 34.3735 96.8783 34.5228 96.6169C34.6815 96.3463 34.8542 96.0289 35.0408 95.6649C35.2368 95.3009 35.4282 94.9089 35.6148 94.4889C35.8108 94.0689 35.9835 93.6536 36.1328 93.2429L36.8188 93.5369C36.5668 94.1156 36.2962 94.6896 36.0068 95.2589C35.7175 95.8283 35.4188 96.3743 35.1108 96.8969C34.8028 97.4196 34.4902 97.8909 34.1728 98.3109V98.3249C34.1728 98.3249 34.1448 98.3389 34.0888 98.3669C34.0422 98.3949 33.9815 98.4323 33.9068 98.4789C33.8322 98.5163 33.7668 98.5583 33.7108 98.6049C33.6642 98.6423 33.6408 98.6843 33.6408 98.7309ZM33.6408 98.7309V98.1849L34.0608 97.9469L36.9868 97.6529C36.9775 97.7463 36.9682 97.8489 36.9588 97.9609C36.9495 98.0729 36.9495 98.1663 36.9588 98.2409C36.2775 98.3249 35.7315 98.3949 35.3208 98.4509C34.9102 98.4976 34.5928 98.5396 34.3688 98.5769C34.1448 98.6143 33.9815 98.6469 33.8788 98.6749C33.7762 98.6936 33.6968 98.7123 33.6408 98.7309ZM33.4448 104.219C33.8555 104.135 34.3268 104.037 34.8588 103.925C35.4002 103.813 35.9695 103.696 36.5668 103.575C37.1642 103.444 37.7662 103.314 38.3728 103.183L38.4288 103.799C37.5608 104.004 36.6975 104.2 35.8388 104.387C34.9895 104.574 34.2382 104.746 33.5848 104.905L33.4448 104.219ZM38.5548 95.0629H45.9608V95.7209H38.5548V95.0629ZM38.9048 98.2689H45.7788V98.9409H38.9048V98.2689ZM39.6468 104.583H45.0368V105.213H39.6468V104.583ZM41.9568 93.0889H42.6428V98.6329H41.9568V93.0889ZM39.2828 100.607H45.3868V105.759H44.7148V101.237H39.9408V105.815H39.2828V100.607ZM47.9628 94.6989H59.8068V95.3429H47.9628V94.6989ZM53.4928 93.1169H54.1928V105.815H53.4928V93.1169ZM53.3948 100.537L53.9688 100.803C53.6328 101.27 53.2315 101.727 52.7648 102.175C52.3075 102.623 51.8082 103.043 51.2668 103.435C50.7348 103.827 50.1888 104.177 49.6288 104.485C49.0688 104.793 48.5228 105.054 47.9908 105.269C47.9535 105.213 47.9068 105.148 47.8508 105.073C47.7948 105.008 47.7388 104.942 47.6828 104.877C47.6268 104.812 47.5708 104.756 47.5148 104.709C48.0562 104.522 48.6068 104.284 49.1668 103.995C49.7268 103.696 50.2682 103.365 50.7908 103.001C51.3135 102.628 51.7988 102.231 52.2468 101.811C52.6948 101.391 53.0775 100.966 53.3948 100.537ZM54.3328 100.509C54.7528 101.106 55.2848 101.68 55.9288 102.231C56.5822 102.782 57.2915 103.272 58.0568 103.701C58.8315 104.13 59.5922 104.466 60.3388 104.709C60.2922 104.756 60.2362 104.812 60.1708 104.877C60.1148 104.942 60.0588 105.012 60.0028 105.087C59.9468 105.162 59.8955 105.227 59.8488 105.283C59.1022 105.003 58.3462 104.634 57.5808 104.177C56.8155 103.71 56.0968 103.188 55.4248 102.609C54.7622 102.03 54.2068 101.424 53.7588 100.789L54.3328 100.509ZM49.6288 97.7509V100.243H58.0988V97.7509H49.6288ZM48.9708 97.1349H58.7848V100.887H48.9708V97.1349ZM62.4808 94.3209H66.2608V103.211H62.4808V102.581H65.6168V94.9509H62.4808V94.3209ZM62.4948 98.3809H65.9388V98.9969H62.4948V98.3809ZM62.1448 94.3209H62.8028V104.345H62.1448V94.3209ZM66.9608 96.0289H74.2688V96.7009H66.9608V96.0289ZM71.7208 93.1589H72.4068V104.625C72.4068 104.933 72.3555 105.157 72.2528 105.297C72.1502 105.437 71.9915 105.54 71.7768 105.605C71.5622 105.661 71.2355 105.694 70.7968 105.703C70.3675 105.712 69.7982 105.717 69.0888 105.717C69.0702 105.624 69.0328 105.507 68.9768 105.367C68.9302 105.227 68.8835 105.11 68.8368 105.017C69.2288 105.026 69.5928 105.031 69.9288 105.031C70.2648 105.04 70.5542 105.04 70.7968 105.031C71.0395 105.031 71.2122 105.026 71.3148 105.017C71.4642 105.008 71.5668 104.975 71.6228 104.919C71.6882 104.872 71.7208 104.774 71.7208 104.625V93.1589ZM67.6328 98.2409L68.1928 97.9609C68.4635 98.3249 68.7388 98.7216 69.0188 99.1509C69.3082 99.5803 69.5788 99.9956 69.8308 100.397C70.0828 100.798 70.2882 101.148 70.4468 101.447L69.8588 101.783C69.7002 101.494 69.4948 101.144 69.2428 100.733C69.0002 100.322 68.7388 99.8976 68.4588 99.4589C68.1788 99.0203 67.9035 98.6143 67.6328 98.2409ZM76.3128 96.1269H76.9848V105.829H76.3128V96.1269ZM76.5228 93.6489L77.0408 93.3269C77.2555 93.5229 77.4748 93.7376 77.6988 93.9709C77.9322 94.1949 78.1422 94.4189 78.3288 94.6429C78.5248 94.8669 78.6788 95.0723 78.7908 95.2589L78.2308 95.6369C78.1282 95.4503 77.9835 95.2449 77.7968 95.0209C77.6102 94.7876 77.4048 94.5496 77.1808 94.3069C76.9662 94.0643 76.7468 93.8449 76.5228 93.6489ZM79.8968 93.9289H87.1488V94.5869H79.8968V93.9289ZM86.7568 93.9289H87.4428V104.849C87.4428 105.092 87.4102 105.269 87.3448 105.381C87.2795 105.502 87.1722 105.596 87.0228 105.661C86.8642 105.717 86.6402 105.75 86.3508 105.759C86.0708 105.768 85.7208 105.773 85.3008 105.773C85.2728 105.689 85.2355 105.582 85.1888 105.451C85.1515 105.32 85.1048 105.208 85.0488 105.115C85.3848 105.124 85.6882 105.129 85.9588 105.129C86.2388 105.129 86.4208 105.129 86.5048 105.129C86.6075 105.12 86.6728 105.096 86.7008 105.059C86.7382 105.022 86.7568 104.956 86.7568 104.863V93.9289ZM79.9668 100.537V102.749H83.7188V100.537H79.9668ZM79.9668 97.7509V99.9349H83.7188V97.7509H79.9668ZM79.3368 97.1489H84.3768V103.337H79.3368V97.1489ZM95.8708 96.9389C95.6375 96.9389 95.4275 96.8596 95.2408 96.7009C95.0635 96.5423 94.9748 96.3229 94.9748 96.0429C94.9748 95.7536 95.0635 95.5343 95.2408 95.3849C95.4275 95.2263 95.6375 95.1469 95.8708 95.1469C96.1042 95.1469 96.3095 95.2263 96.4868 95.3849C96.6735 95.5343 96.7668 95.7536 96.7668 96.0429C96.7668 96.3229 96.6735 96.5423 96.4868 96.7009C96.3095 96.8596 96.1042 96.9389 95.8708 96.9389ZM95.8708 103.883C95.6375 103.883 95.4275 103.808 95.2408 103.659C95.0635 103.5 94.9748 103.281 94.9748 103.001C94.9748 102.712 95.0635 102.492 95.2408 102.343C95.4275 102.184 95.6375 102.105 95.8708 102.105C96.1042 102.105 96.3095 102.184 96.4868 102.343C96.6735 102.492 96.7668 102.712 96.7668 103.001C96.7668 103.281 96.6735 103.5 96.4868 103.659C96.3095 103.808 96.1042 103.883 95.8708 103.883ZM104.004 104.779V104.098L107.33 100.359C107.765 99.8687 108.114 99.4494 108.379 99.1014C108.644 98.7534 108.837 98.4319 108.956 98.1369C109.079 97.8419 109.14 97.5353 109.14 97.2171C109.14 96.8294 109.049 96.4913 108.867 96.2029C108.688 95.9113 108.441 95.6842 108.126 95.5218C107.811 95.3594 107.456 95.2782 107.062 95.2782C106.644 95.2782 106.278 95.3677 105.963 95.5467C105.652 95.7257 105.41 95.9709 105.237 96.2825C105.065 96.594 104.979 96.952 104.979 97.3563H104.089C104.089 96.7929 104.218 96.2941 104.477 95.8599C104.738 95.4224 105.095 95.0794 105.546 94.8308C106 94.5822 106.513 94.4579 107.087 94.4579C107.653 94.4579 108.157 94.5805 108.598 94.8258C109.039 95.0678 109.385 95.3975 109.637 95.8152C109.889 96.2328 110.015 96.7001 110.015 97.2171C110.015 97.5917 109.949 97.9546 109.816 98.3059C109.687 98.6572 109.463 99.0483 109.145 99.4792C108.827 99.9101 108.386 100.437 107.823 101.06L105.297 103.879V103.944H110.333V104.779H104.004ZM115.711 104.918C114.995 104.918 114.384 104.713 113.877 104.302C113.373 103.887 112.985 103.289 112.713 102.507C112.445 101.725 112.311 100.785 112.311 99.688C112.311 98.5943 112.445 97.658 112.713 96.8791C112.985 96.0969 113.375 95.4986 113.882 95.0843C114.392 94.6667 115.002 94.4579 115.711 94.4579C116.42 94.4579 117.029 94.6667 117.536 95.0843C118.046 95.4986 118.436 96.0969 118.704 96.8791C118.976 97.658 119.112 98.5943 119.112 99.688C119.112 100.785 118.976 101.725 118.704 102.507C118.436 103.289 118.048 103.887 117.541 104.302C117.037 104.713 116.427 104.918 115.711 104.918ZM115.711 104.083C116.497 104.083 117.11 103.7 117.551 102.934C117.991 102.166 118.212 101.083 118.212 99.688C118.212 98.76 118.111 97.9679 117.909 97.3116C117.71 96.652 117.423 96.1482 117.049 95.8002C116.677 95.4522 116.232 95.2782 115.711 95.2782C114.932 95.2782 114.321 95.666 113.877 96.4416C113.433 97.2138 113.21 98.296 113.21 99.688C113.21 100.616 113.31 101.408 113.509 102.064C113.711 102.721 113.998 103.221 114.369 103.566C114.743 103.911 115.191 104.083 115.711 104.083ZM121.135 104.779V104.098L124.461 100.359C124.895 99.8687 125.245 99.4494 125.51 99.1014C125.775 98.7534 125.968 98.4319 126.087 98.1369C126.21 97.8419 126.271 97.5353 126.271 97.2171C126.271 96.8294 126.18 96.4913 125.997 96.2029C125.818 95.9113 125.572 95.6842 125.257 95.5218C124.942 95.3594 124.587 95.2782 124.193 95.2782C123.775 95.2782 123.409 95.3677 123.094 95.5467C122.782 95.7257 122.541 95.9709 122.368 96.2825C122.196 96.594 122.11 96.952 122.11 97.3563H121.22C121.22 96.7929 121.349 96.2941 121.608 95.8599C121.869 95.4224 122.226 95.0794 122.676 94.8308C123.13 94.5822 123.644 94.4579 124.218 94.4579C124.784 94.4579 125.288 94.5805 125.729 94.8258C126.17 95.0678 126.516 95.3975 126.768 95.8152C127.02 96.2328 127.146 96.7001 127.146 97.2171C127.146 97.5917 127.08 97.9546 126.947 98.3059C126.818 98.6572 126.594 99.0483 126.276 99.4792C125.958 99.9101 125.517 100.437 124.953 101.06L122.428 103.879V103.944H127.464V104.779H121.135ZM132.658 104.918C132.091 104.918 131.584 104.804 131.137 104.575C130.693 104.343 130.338 104.025 130.073 103.621C129.811 103.216 129.672 102.754 129.655 102.233H130.555C130.585 102.774 130.797 103.218 131.191 103.566C131.586 103.911 132.075 104.083 132.658 104.083C133.112 104.083 133.517 103.975 133.871 103.76C134.226 103.541 134.503 103.243 134.701 102.865C134.904 102.484 135.005 102.054 135.005 101.577C135.001 101.08 134.894 100.643 134.682 100.265C134.469 99.8836 134.181 99.5853 133.816 99.3698C133.455 99.1544 133.049 99.0467 132.598 99.0467C132.257 99.0434 131.922 99.0997 131.594 99.2157C131.266 99.3317 130.993 99.4809 130.774 99.6632L129.844 99.5438L130.456 94.5971H135.487V95.4323H131.236L130.829 98.8379H130.878C131.104 98.649 131.377 98.4948 131.699 98.3755C132.023 98.2562 132.366 98.1965 132.728 98.1965C133.328 98.1965 133.866 98.3407 134.343 98.6291C134.824 98.9174 135.204 99.3152 135.482 99.8223C135.764 100.326 135.905 100.906 135.905 101.562C135.905 102.205 135.764 102.78 135.482 103.287C135.204 103.791 134.819 104.189 134.329 104.481C133.841 104.772 133.285 104.918 132.658 104.918ZM141.361 94.1198L138.08 106.31H137.249L140.531 94.1198H141.361ZM146.002 94.5971V104.779H145.072V95.5715H145.013L142.626 97.1575V96.193L145.032 94.5971H146.002ZM152.256 104.918C151.54 104.918 150.929 104.713 150.422 104.302C149.918 103.887 149.53 103.289 149.258 102.507C148.99 101.725 148.856 100.785 148.856 99.688C148.856 98.5943 148.99 97.658 149.258 96.8791C149.53 96.0969 149.919 95.4986 150.427 95.0843C150.937 94.6667 151.547 94.4579 152.256 94.4579C152.965 94.4579 153.574 94.6667 154.081 95.0843C154.591 95.4986 154.981 96.0969 155.249 96.8791C155.521 97.658 155.657 98.5943 155.657 99.688C155.657 100.785 155.521 101.725 155.249 102.507C154.981 103.289 154.593 103.887 154.086 104.302C153.582 104.713 152.972 104.918 152.256 104.918ZM152.256 104.083C153.042 104.083 153.655 103.7 154.096 102.934C154.536 102.166 154.757 101.083 154.757 99.688C154.757 98.76 154.656 97.9679 154.454 97.3116C154.255 96.652 153.968 96.1482 153.593 95.8002C153.222 95.4522 152.776 95.2782 152.256 95.2782C151.477 95.2782 150.866 95.666 150.422 96.4416C149.977 97.2138 149.755 98.296 149.755 99.688C149.755 100.616 149.855 101.408 150.054 102.064C150.256 102.721 150.543 103.221 150.914 103.566C151.288 103.911 151.736 104.083 152.256 104.083ZM161.021 94.1198L157.74 106.31H156.91L160.191 94.1198H161.021ZM162.52 104.779V104.098L165.846 100.359C166.28 99.8687 166.63 99.4494 166.895 99.1014C167.16 98.7534 167.352 98.4319 167.472 98.1369C167.594 97.8419 167.656 97.5353 167.656 97.2171C167.656 96.8294 167.564 96.4913 167.382 96.2029C167.203 95.9113 166.956 95.6842 166.641 95.5218C166.327 95.3594 165.972 95.2782 165.577 95.2782C165.16 95.2782 164.794 95.3677 164.479 95.5467C164.167 95.7257 163.925 95.9709 163.753 96.2825C163.581 96.594 163.494 96.952 163.494 97.3563H162.604C162.604 96.7929 162.734 96.2941 162.992 95.8599C163.254 95.4224 163.61 95.0794 164.061 94.8308C164.515 94.5822 165.029 94.4579 165.602 94.4579C166.169 94.4579 166.673 94.5805 167.114 94.8258C167.555 95.0678 167.901 95.3975 168.153 95.8152C168.405 96.2328 168.531 96.7001 168.531 97.2171C168.531 97.5917 168.464 97.9546 168.332 98.3059C168.202 98.6572 167.979 99.0483 167.661 99.4792C167.342 99.9101 166.902 100.437 166.338 101.06L163.813 103.879V103.944H168.849V104.779H162.52ZM170.603 102.591V101.836L175.142 94.5971H175.698V95.8649H175.286L171.642 101.692V101.756H177.593V102.591H170.603ZM175.355 104.779V102.353V102.005V94.5971H176.24V104.779H175.355ZM183.547 104.779V104.098L186.873 100.359C187.307 99.8687 187.657 99.4494 187.922 99.1014C188.187 98.7534 188.38 98.4319 188.499 98.1369C188.622 97.8419 188.683 97.5353 188.683 97.2171C188.683 96.8294 188.592 96.4913 188.41 96.2029C188.231 95.9113 187.984 95.6842 187.669 95.5218C187.354 95.3594 186.999 95.2782 186.605 95.2782C186.187 95.2782 185.821 95.3677 185.506 95.5467C185.195 95.7257 184.953 95.9709 184.78 96.2825C184.608 96.594 184.522 96.952 184.522 97.3563H183.632C183.632 96.7929 183.761 96.2941 184.02 95.8599C184.281 95.4224 184.638 95.0794 185.089 94.8308C185.543 94.5822 186.056 94.4579 186.63 94.4579C187.196 94.4579 187.7 94.5805 188.141 94.8258C188.582 95.0678 188.928 95.3975 189.18 95.8152C189.432 96.2328 189.558 96.7001 189.558 97.2171C189.558 97.5917 189.492 97.9546 189.359 98.3059C189.23 98.6572 189.006 99.0483 188.688 99.4792C188.37 99.9101 187.929 100.437 187.365 101.06L184.84 103.879V103.944H189.876V104.779H183.547ZM195.398 104.918C194.772 104.918 194.212 104.805 193.718 104.58C193.224 104.351 192.833 104.035 192.545 103.63C192.256 103.226 192.104 102.76 192.087 102.233H193.027C193.043 102.605 193.158 102.929 193.37 103.208C193.582 103.483 193.864 103.698 194.215 103.854C194.566 104.007 194.958 104.083 195.388 104.083C195.859 104.083 196.273 103.995 196.631 103.819C196.993 103.644 197.274 103.403 197.476 103.099C197.682 102.79 197.785 102.442 197.785 102.054C197.785 101.644 197.68 101.281 197.471 100.966C197.263 100.651 196.963 100.406 196.572 100.23C196.184 100.054 195.72 99.9664 195.18 99.9664H194.583V99.1312H195.18C195.62 99.1312 196.01 99.0517 196.348 98.8926C196.689 98.7302 196.958 98.5031 197.153 98.2115C197.349 97.9198 197.447 97.5768 197.447 97.1823C197.447 96.8078 197.362 96.478 197.193 96.193C197.024 95.908 196.785 95.6842 196.477 95.5218C196.172 95.3594 195.816 95.2782 195.408 95.2782C195.014 95.2782 194.653 95.3545 194.324 95.5069C193.996 95.6594 193.731 95.8748 193.529 96.1532C193.33 96.4316 193.224 96.7614 193.211 97.1426H192.311C192.324 96.6123 192.47 96.1466 192.748 95.7455C193.03 95.3412 193.403 95.0263 193.867 94.8009C194.334 94.5723 194.851 94.4579 195.418 94.4579C196.018 94.4579 196.537 94.5805 196.974 94.8258C197.412 95.0711 197.75 95.3975 197.989 95.8052C198.23 96.2096 198.351 96.6554 198.351 97.1426C198.351 97.7226 198.194 98.2197 197.879 98.634C197.564 99.045 197.14 99.3301 196.606 99.4892V99.5538C197.256 99.683 197.766 99.9714 198.138 100.419C198.512 100.863 198.699 101.408 198.699 102.054C198.699 102.598 198.557 103.087 198.272 103.521C197.987 103.952 197.596 104.293 197.099 104.545C196.605 104.794 196.038 104.918 195.398 104.918ZM201.638 103.253C201.442 103.253 201.273 103.183 201.131 103.044C200.991 102.901 200.922 102.732 200.922 102.537C200.922 102.338 200.991 102.169 201.131 102.03C201.273 101.89 201.442 101.821 201.638 101.821C201.837 101.821 202.006 101.89 202.145 102.03C202.284 102.169 202.354 102.338 202.354 102.537C202.354 102.666 202.32 102.785 202.254 102.895C202.191 103.004 202.105 103.092 201.996 103.158C201.89 103.221 201.77 103.253 201.638 103.253ZM201.638 98.0872C201.442 98.0872 201.273 98.0176 201.131 97.8784C200.991 97.7358 200.922 97.5668 200.922 97.3713C200.922 97.1757 200.991 97.0083 201.131 96.8691C201.273 96.7266 201.442 96.6554 201.638 96.6554C201.837 96.6554 202.006 96.7266 202.145 96.8691C202.284 97.0083 202.354 97.1757 202.354 97.3713C202.354 97.5005 202.32 97.6198 202.254 97.7292C202.191 97.8386 202.105 97.9264 201.996 97.9927C201.89 98.0557 201.77 98.0872 201.638 98.0872ZM207.635 104.918C207.068 104.918 206.561 104.804 206.113 104.575C205.669 104.343 205.315 104.025 205.049 103.621C204.788 103.216 204.648 102.754 204.632 102.233H205.532C205.562 102.774 205.774 103.218 206.168 103.566C206.562 103.911 207.051 104.083 207.635 104.083C208.089 104.083 208.493 103.975 208.848 103.76C209.202 103.541 209.479 103.243 209.678 102.865C209.88 102.484 209.981 102.054 209.981 101.577C209.978 101.08 209.87 100.643 209.658 100.265C209.446 99.8836 209.158 99.5853 208.793 99.3698C208.432 99.1544 208.026 99.0467 207.575 99.0467C207.234 99.0434 206.899 99.0997 206.571 99.2157C206.243 99.3317 205.969 99.4809 205.75 99.6632L204.821 99.5438L205.432 94.5971H210.464V95.4323H206.213L205.805 98.8379H205.855C206.08 98.649 206.354 98.4948 206.675 98.3755C207 98.2562 207.343 98.1965 207.704 98.1965C208.304 98.1965 208.843 98.3407 209.32 98.6291C209.801 98.9174 210.18 99.3152 210.459 99.8223C210.74 100.326 210.881 100.906 210.881 101.562C210.881 102.205 210.74 102.78 210.459 103.287C210.18 103.791 209.796 104.189 209.305 104.481C208.818 104.772 208.261 104.918 207.635 104.918ZM216.059 94.4579C216.483 94.4612 216.894 94.5474 217.292 94.7164C217.693 94.8822 218.054 95.1506 218.376 95.5218C218.697 95.8897 218.952 96.3803 219.141 96.9934C219.33 97.6033 219.425 98.354 219.425 99.2455C219.425 100.077 219.352 100.84 219.206 101.532C219.06 102.225 218.841 102.825 218.55 103.332C218.261 103.836 217.897 104.227 217.456 104.505C217.019 104.781 216.506 104.918 215.92 104.918C215.373 104.918 214.887 104.804 214.463 104.575C214.042 104.346 213.701 104.03 213.439 103.626C213.177 103.218 213.015 102.747 212.952 102.214H213.867C213.956 102.757 214.175 103.205 214.523 103.556C214.874 103.907 215.34 104.083 215.92 104.083C216.752 104.083 217.398 103.695 217.859 102.92C218.319 102.144 218.55 101.04 218.55 99.6085H218.485C218.326 99.9068 218.117 100.167 217.859 100.389C217.604 100.611 217.312 100.785 216.984 100.911C216.656 101.034 216.309 101.095 215.945 101.095C215.378 101.095 214.859 100.952 214.389 100.667C213.918 100.379 213.542 99.9863 213.26 99.4892C212.978 98.9887 212.837 98.4186 212.837 97.7789C212.837 97.1757 212.97 96.6222 213.235 96.1184C213.504 95.6113 213.878 95.207 214.359 94.9054C214.843 94.6004 215.409 94.4513 216.059 94.4579ZM216.059 95.2931C215.618 95.2931 215.222 95.4058 214.871 95.6312C214.523 95.8533 214.246 96.1532 214.041 96.5311C213.838 96.9056 213.737 97.3215 213.737 97.7789C213.737 98.2396 213.838 98.6589 214.041 99.0367C214.246 99.4113 214.523 99.7096 214.871 99.9316C215.222 100.15 215.618 100.26 216.059 100.26C216.397 100.26 216.712 100.192 217.004 100.056C217.295 99.9167 217.547 99.7278 217.759 99.4892C217.975 99.2505 218.137 98.9804 218.247 98.6788C218.359 98.3739 218.404 98.054 218.381 97.7193C218.341 97.2553 218.217 96.841 218.008 96.4764C217.802 96.1085 217.531 95.8201 217.193 95.6113C216.858 95.3992 216.48 95.2931 216.059 95.2931ZM222.269 103.253C222.073 103.253 221.904 103.183 221.761 103.044C221.622 102.901 221.553 102.732 221.553 102.537C221.553 102.338 221.622 102.169 221.761 102.03C221.904 101.89 222.073 101.821 222.269 101.821C222.467 101.821 222.636 101.89 222.776 102.03C222.915 102.169 222.984 102.338 222.984 102.537C222.984 102.666 222.951 102.785 222.885 102.895C222.822 103.004 222.736 103.092 222.627 103.158C222.52 103.221 222.401 103.253 222.269 103.253ZM222.269 98.0872C222.073 98.0872 221.904 98.0176 221.761 97.8784C221.622 97.7358 221.553 97.5668 221.553 97.3713C221.553 97.1757 221.622 97.0083 221.761 96.8691C221.904 96.7266 222.073 96.6554 222.269 96.6554C222.467 96.6554 222.636 96.7266 222.776 96.8691C222.915 97.0083 222.984 97.1757 222.984 97.3713C222.984 97.5005 222.951 97.6198 222.885 97.7292C222.822 97.8386 222.736 97.9264 222.627 97.9927C222.52 98.0557 222.401 98.0872 222.269 98.0872ZM228.266 104.918C227.699 104.918 227.192 104.804 226.744 104.575C226.3 104.343 225.945 104.025 225.68 103.621C225.418 103.216 225.279 102.754 225.263 102.233H226.163C226.192 102.774 226.404 103.218 226.799 103.566C227.193 103.911 227.682 104.083 228.266 104.083C228.72 104.083 229.124 103.975 229.479 103.76C229.833 103.541 230.11 103.243 230.309 102.865C230.511 102.484 230.612 102.054 230.612 101.577C230.609 101.08 230.501 100.643 230.289 100.265C230.077 99.8836 229.788 99.5853 229.424 99.3698C229.063 99.1544 228.657 99.0467 228.206 99.0467C227.864 99.0434 227.53 99.0997 227.202 99.2157C226.873 99.3317 226.6 99.4809 226.381 99.6632L225.452 99.5438L226.063 94.5971H231.094V95.4323H226.844L226.436 98.8379H226.486C226.711 98.649 226.985 98.4948 227.306 98.3755C227.631 98.2562 227.974 98.1965 228.335 98.1965C228.935 98.1965 229.474 98.3407 229.951 98.6291C230.431 98.9174 230.811 99.3152 231.089 99.8223C231.371 100.326 231.512 100.906 231.512 101.562C231.512 102.205 231.371 102.78 231.089 103.287C230.811 103.791 230.427 104.189 229.936 104.481C229.449 104.772 228.892 104.918 228.266 104.918ZM236.69 94.4579C237.114 94.4612 237.525 94.5474 237.923 94.7164C238.324 94.8822 238.685 95.1506 239.007 95.5218C239.328 95.8897 239.583 96.3803 239.772 96.9934C239.961 97.6033 240.056 98.354 240.056 99.2455C240.056 100.077 239.983 100.84 239.837 101.532C239.691 102.225 239.472 102.825 239.181 103.332C238.892 103.836 238.528 104.227 238.087 104.505C237.649 104.781 237.137 104.918 236.551 104.918C236.004 104.918 235.518 104.804 235.094 104.575C234.673 104.346 234.332 104.03 234.07 103.626C233.808 103.218 233.646 102.747 233.583 102.214H234.497C234.587 102.757 234.806 103.205 235.154 103.556C235.505 103.907 235.971 104.083 236.551 104.083C237.383 104.083 238.029 103.695 238.49 102.92C238.95 102.144 239.181 101.04 239.181 99.6085H239.116C238.957 99.9068 238.748 100.167 238.49 100.389C238.234 100.611 237.943 100.785 237.615 100.911C237.286 101.034 236.94 101.095 236.576 101.095C236.009 101.095 235.49 100.952 235.019 100.667C234.549 100.379 234.173 99.9863 233.891 99.4892C233.609 98.9887 233.468 98.4186 233.468 97.7789C233.468 97.1757 233.601 96.6222 233.866 96.1184C234.134 95.6113 234.509 95.207 234.99 94.9054C235.474 94.6004 236.04 94.4513 236.69 94.4579ZM236.69 95.2931C236.249 95.2931 235.853 95.4058 235.502 95.6312C235.154 95.8533 234.877 96.1532 234.671 96.5311C234.469 96.9056 234.368 97.3215 234.368 97.7789C234.368 98.2396 234.469 98.6589 234.671 99.0367C234.877 99.4113 235.154 99.7096 235.502 99.9316C235.853 100.15 236.249 100.26 236.69 100.26C237.028 100.26 237.343 100.192 237.634 100.056C237.926 99.9167 238.178 99.7278 238.39 99.4892C238.606 99.2505 238.768 98.9804 238.877 98.6788C238.99 98.3739 239.035 98.054 239.012 97.7193C238.972 97.2553 238.848 96.841 238.639 96.4764C238.433 96.1085 238.161 95.8201 237.823 95.6113C237.489 95.3992 237.111 95.2931 236.69 95.2931ZM246.499 99.688C246.499 98.4948 246.65 97.3679 246.951 96.3073C247.253 95.2467 247.685 94.2524 248.249 93.3244H249.054C248.812 93.7155 248.59 94.158 248.388 94.6518C248.189 95.1456 248.017 95.6726 247.871 96.2328C247.725 96.7929 247.612 97.3663 247.533 97.9529C247.453 98.5363 247.414 99.1146 247.414 99.688C247.414 100.454 247.483 101.226 247.622 102.005C247.762 102.784 247.954 103.523 248.199 104.222C248.448 104.921 248.733 105.531 249.054 106.052H248.249C247.685 105.12 247.253 104.124 246.951 103.064C246.65 102.003 246.499 100.878 246.499 99.688ZM257.955 94.5971H258.884V101.339C258.884 102.031 258.722 102.651 258.397 103.198C258.072 103.742 257.62 104.171 257.04 104.486C256.463 104.797 255.792 104.953 255.026 104.953C254.264 104.953 253.593 104.796 253.013 104.481C252.433 104.166 251.98 103.737 251.656 103.193C251.331 102.649 251.168 102.031 251.168 101.339V94.5971H252.098V101.274C252.098 101.814 252.219 102.296 252.461 102.721C252.703 103.142 253.043 103.473 253.48 103.715C253.921 103.957 254.436 104.078 255.026 104.078C255.616 104.078 256.132 103.957 256.573 103.715C257.013 103.473 257.353 103.142 257.592 102.721C257.834 102.296 257.955 101.814 257.955 101.274V94.5971ZM260.97 95.4323V94.5971H268.353V95.4323H265.126V104.779H264.196V95.4323H260.97ZM277.996 97.7789H277.062C276.992 97.4309 276.866 97.1094 276.684 96.8144C276.505 96.5161 276.279 96.256 276.008 96.0339C275.736 95.8118 275.428 95.6395 275.083 95.5169C274.738 95.3942 274.365 95.3329 273.964 95.3329C273.321 95.3329 272.735 95.5003 272.204 95.835C271.677 96.1698 271.255 96.662 270.937 97.3116C270.622 97.9579 270.464 98.75 270.464 99.688C270.464 100.633 270.622 101.428 270.937 102.074C271.255 102.721 271.677 103.211 272.204 103.546C272.735 103.877 273.321 104.043 273.964 104.043C274.365 104.043 274.738 103.982 275.083 103.859C275.428 103.737 275.736 103.566 276.008 103.347C276.279 103.125 276.505 102.865 276.684 102.567C276.866 102.268 276.992 101.945 277.062 101.597H277.996C277.913 102.064 277.758 102.5 277.529 102.905C277.304 103.306 277.015 103.657 276.664 103.959C276.316 104.26 275.915 104.496 275.461 104.665C275.007 104.834 274.508 104.918 273.964 104.918C273.109 104.918 272.35 104.704 271.687 104.277C271.025 103.846 270.504 103.239 270.126 102.457C269.752 101.675 269.565 100.752 269.565 99.688C269.565 98.6241 269.752 97.701 270.126 96.9188C270.504 96.1366 271.025 95.5318 271.687 95.1042C272.35 94.6733 273.109 94.4579 273.964 94.4579C274.508 94.4579 275.007 94.5424 275.461 94.7115C275.915 94.8772 276.316 95.1125 276.664 95.4174C277.015 95.719 277.304 96.0704 277.529 96.4714C277.758 96.8724 277.913 97.3083 277.996 97.7789ZM282.964 102.85V96.5509H283.814V102.85H282.964ZM280.24 100.126V99.2754H286.539V100.126H280.24ZM292.228 104.918C291.578 104.918 291 104.796 290.492 104.55C289.985 104.305 289.588 103.97 289.299 103.546C289.011 103.118 288.867 102.636 288.867 102.099C288.867 101.678 288.955 101.286 289.13 100.921C289.306 100.553 289.548 100.245 289.856 99.9963C290.164 99.7444 290.511 99.5803 290.895 99.5041V99.4494C290.395 99.3036 289.992 99.0169 289.687 98.5893C289.382 98.1584 289.231 97.6696 289.235 97.1227C289.231 96.6156 289.361 96.1615 289.622 95.7605C289.884 95.3594 290.241 95.0429 290.691 94.8109C291.145 94.5756 291.657 94.4579 292.228 94.4579C292.794 94.4579 293.303 94.5756 293.754 94.8109C294.205 95.0429 294.561 95.3594 294.823 95.7605C295.088 96.1615 295.222 96.6156 295.225 97.1227C295.222 97.6662 295.068 98.1551 294.763 98.5893C294.458 99.0202 294.057 99.3069 293.56 99.4494V99.5041C293.944 99.577 294.289 99.7394 294.594 99.9913C294.899 100.243 295.141 100.553 295.32 100.921C295.499 101.286 295.588 101.678 295.588 102.099C295.588 102.636 295.442 103.118 295.151 103.546C294.862 103.97 294.465 104.305 293.958 104.55C293.454 104.796 292.877 104.918 292.228 104.918ZM292.228 104.083C292.711 104.083 293.136 103.997 293.5 103.824C293.868 103.649 294.155 103.408 294.36 103.104C294.569 102.799 294.674 102.449 294.674 102.054C294.674 101.647 294.566 101.284 294.35 100.966C294.135 100.644 293.843 100.391 293.475 100.205C293.108 100.016 292.692 99.9217 292.228 99.9217C291.764 99.9217 291.346 100.016 290.975 100.205C290.607 100.391 290.315 100.644 290.1 100.966C289.888 101.284 289.782 101.647 289.782 102.054C289.782 102.449 289.883 102.799 290.085 103.104C290.29 103.408 290.577 103.649 290.945 103.824C291.316 103.997 291.744 104.083 292.228 104.083ZM292.228 99.1262C292.625 99.1262 292.982 99.0417 293.296 98.8727C293.611 98.7036 293.86 98.4733 294.042 98.1816C294.228 97.8866 294.322 97.5519 294.326 97.1774C294.322 96.8062 294.229 96.478 294.047 96.193C293.865 95.9046 293.616 95.6809 293.301 95.5218C292.99 95.3594 292.632 95.2782 292.228 95.2782C291.823 95.2782 291.462 95.3594 291.144 95.5218C290.829 95.6809 290.58 95.9046 290.398 96.193C290.219 96.478 290.131 96.8062 290.134 97.1774C290.131 97.5519 290.221 97.8866 290.403 98.1816C290.589 98.4733 290.839 98.7036 291.154 98.8727C291.472 99.0417 291.83 99.1262 292.228 99.1262ZM299.835 99.688C299.835 100.881 299.685 102.008 299.383 103.069C299.081 104.129 298.649 105.124 298.085 106.052H297.28C297.522 105.661 297.742 105.218 297.941 104.724C298.143 104.23 298.317 103.703 298.463 103.143C298.609 102.583 298.722 102.01 298.801 101.423C298.881 100.836 298.921 100.258 298.921 99.688C298.921 98.9224 298.851 98.1501 298.712 97.3713C298.573 96.5924 298.379 95.8533 298.13 95.1539C297.885 94.4546 297.601 93.8447 297.28 93.3244H298.085C298.649 94.2557 299.081 95.2517 299.383 96.3123C299.685 97.3729 299.835 98.4982 299.835 99.688Z" fill="white"/>
<path d="M0 12.4988C0 5.87136 5.37258 0.498779 12 0.498779H108.313C111.082 0.498779 113.014 3.24471 112.078 5.85087L102.021 33.8509C101.451 35.4393 99.9445 36.4988 98.2566 36.4988H0V12.4988Z" fill="#FFC916"/>
<path d="M27.0158 19.909H35.4158V26.309H33.5758V21.653H28.7758V26.389H27.0158V19.909ZM34.1358 11.365L35.6078 12.869C34.8291 13.1676 33.9651 13.429 33.0158 13.653C32.0664 13.8663 31.0904 14.0423 30.0878 14.181C29.0958 14.3196 28.1251 14.4316 27.1758 14.517C27.1438 14.293 27.0691 14.021 26.9518 13.701C26.8451 13.3703 26.7384 13.0983 26.6318 12.885C27.3144 12.8103 28.0024 12.725 28.6958 12.629C29.3998 12.533 30.0824 12.421 30.7438 12.293C31.4051 12.165 32.0238 12.0263 32.5998 11.877C33.1758 11.717 33.6878 11.5463 34.1358 11.365ZM30.2958 13.173H32.1198V20.917H30.2958V13.173ZM26.0238 16.037H36.2158V17.861H26.0238V16.037ZM28.2798 23.989H34.3438V25.733H28.2798V23.989ZM22.0718 12.965L23.1598 11.573C23.4584 11.7223 23.7944 11.893 24.1678 12.085C24.5411 12.277 24.9038 12.469 25.2558 12.661C25.6184 12.853 25.9118 13.0236 26.1358 13.173L24.9998 14.725C24.7864 14.565 24.5091 14.3836 24.1678 14.181C23.8264 13.9783 23.4691 13.7703 23.0958 13.557C22.7224 13.333 22.3811 13.1356 22.0718 12.965ZM21.3038 17.397L22.3438 15.973C22.6424 16.101 22.9838 16.261 23.3678 16.453C23.7518 16.645 24.1251 16.837 24.4878 17.029C24.8504 17.2103 25.1438 17.3756 25.3678 17.525L24.2958 19.125C24.0824 18.965 23.7998 18.7836 23.4478 18.581C23.1064 18.3783 22.7438 18.1703 22.3598 17.957C21.9758 17.7436 21.6238 17.557 21.3038 17.397ZM21.5438 24.917C21.8318 24.5116 22.1464 24.037 22.4878 23.493C22.8398 22.9383 23.1971 22.3516 23.5598 21.733C23.9224 21.1036 24.2638 20.4796 24.5838 19.861L25.9918 21.141C25.7144 21.6956 25.4158 22.2663 25.0958 22.853C24.7864 23.4396 24.4664 24.0156 24.1358 24.581C23.8158 25.1463 23.4904 25.6903 23.1598 26.213L21.5438 24.917ZM44.8078 14.853H51.0958V16.693H44.8078V14.853ZM50.1038 14.853H51.9758C51.9758 14.853 51.9758 14.9063 51.9758 15.013C51.9758 15.1196 51.9704 15.2423 51.9598 15.381C51.9598 15.5196 51.9598 15.6316 51.9598 15.717C51.9278 17.3383 51.8851 18.7196 51.8318 19.861C51.7891 20.9916 51.7358 21.925 51.6718 22.661C51.6078 23.397 51.5278 23.9783 51.4318 24.405C51.3358 24.821 51.2238 25.1196 51.0958 25.301C50.9038 25.5783 50.7064 25.7703 50.5038 25.877C50.3011 25.9943 50.0558 26.0796 49.7678 26.133C49.5118 26.1756 49.1918 26.197 48.8078 26.197C48.4238 26.2076 48.0238 26.2023 47.6078 26.181C47.5971 25.9036 47.5384 25.589 47.4318 25.237C47.3251 24.885 47.1918 24.5756 47.0318 24.309C47.4158 24.341 47.7678 24.3623 48.0878 24.373C48.4078 24.373 48.6531 24.373 48.8238 24.373C48.9624 24.373 49.0744 24.357 49.1598 24.325C49.2451 24.2823 49.3304 24.213 49.4158 24.117C49.5118 23.989 49.5918 23.7436 49.6558 23.381C49.7304 23.0076 49.7944 22.4796 49.8478 21.797C49.9011 21.1036 49.9438 20.2236 49.9758 19.157C50.0184 18.0796 50.0611 16.7783 50.1038 15.253V14.853ZM46.6158 11.653H48.5198C48.5198 12.901 48.5038 14.1116 48.4718 15.285C48.4504 16.4476 48.3864 17.5623 48.2798 18.629C48.1731 19.6956 48.0024 20.6983 47.7678 21.637C47.5331 22.5756 47.2131 23.445 46.8078 24.245C46.4131 25.045 45.8958 25.7596 45.2558 26.389C45.1598 26.2183 45.0264 26.037 44.8558 25.845C44.6958 25.6636 44.5251 25.4876 44.3438 25.317C44.1624 25.1463 43.9918 25.013 43.8318 24.917C44.4078 24.3623 44.8718 23.733 45.2238 23.029C45.5864 22.325 45.8584 21.5516 46.0398 20.709C46.2318 19.8663 46.3651 18.965 46.4398 18.005C46.5251 17.045 46.5731 16.037 46.5838 14.981C46.6051 13.9143 46.6158 12.805 46.6158 11.653ZM38.0398 12.613H44.3278V14.293H38.0398V12.613ZM37.5118 16.325H44.6158V18.069H37.5118V16.325ZM42.1038 19.509L43.6558 19.093C43.8478 19.5303 44.0398 20.0103 44.2318 20.533C44.4344 21.045 44.6211 21.5463 44.7918 22.037C44.9624 22.5276 45.0904 22.9543 45.1758 23.317L43.5118 23.845C43.4371 23.4823 43.3251 23.0503 43.1758 22.549C43.0264 22.0476 42.8558 21.5303 42.6638 20.997C42.4824 20.4636 42.2958 19.9676 42.1038 19.509ZM38.1998 24.661L38.0078 23.045L38.8238 22.437L44.0078 21.221C44.0184 21.4663 44.0504 21.749 44.1038 22.069C44.1678 22.389 44.2264 22.645 44.2798 22.837C43.3091 23.093 42.4931 23.3116 41.8318 23.493C41.1704 23.6636 40.6211 23.813 40.1838 23.941C39.7571 24.0583 39.4158 24.1596 39.1598 24.245C38.9038 24.3303 38.7011 24.405 38.5518 24.469C38.4131 24.5223 38.2958 24.5863 38.1998 24.661ZM38.1838 24.645C38.1624 24.5276 38.1144 24.3623 38.0398 24.149C37.9758 23.9356 37.9011 23.7223 37.8158 23.509C37.7304 23.285 37.6504 23.093 37.5758 22.933C37.7358 22.8796 37.8744 22.7623 37.9918 22.581C38.1198 22.3996 38.2478 22.165 38.3758 21.877C38.4398 21.7276 38.5251 21.493 38.6318 21.173C38.7491 20.8423 38.8718 20.4583 38.9998 20.021C39.1278 19.573 39.2558 19.0983 39.3838 18.597C39.5118 18.085 39.6131 17.5783 39.6878 17.077L41.5758 17.605C41.4264 18.309 41.2344 19.0236 40.9998 19.749C40.7651 20.4636 40.5091 21.157 40.2318 21.829C39.9651 22.4903 39.6984 23.0876 39.4318 23.621V23.669C39.4318 23.669 39.3678 23.701 39.2398 23.765C39.1118 23.829 38.9678 23.9143 38.8078 24.021C38.6478 24.1276 38.5038 24.2396 38.3758 24.357C38.2478 24.4636 38.1838 24.5596 38.1838 24.645ZM54.6958 12.629H59.3198V23.429H54.6958V21.717H57.5278V14.341H54.6958V12.629ZM54.8078 17.125H58.0238V18.805H54.8078V17.125ZM53.7998 12.629H55.5918V24.725H53.7998V12.629ZM59.9118 14.325H68.2798V16.229H59.9118V14.325ZM64.6958 11.477H66.6478V23.845C66.6478 24.421 66.5731 24.853 66.4238 25.141C66.2851 25.4396 66.0344 25.6636 65.6718 25.813C65.3198 25.9623 64.8558 26.0583 64.2798 26.101C63.7144 26.1436 63.0318 26.1596 62.2318 26.149C62.1891 25.8823 62.1038 25.557 61.9758 25.173C61.8478 24.7996 61.7091 24.4796 61.5598 24.213C61.9438 24.2236 62.3118 24.2343 62.6638 24.245C63.0264 24.2556 63.3464 24.261 63.6238 24.261C63.9011 24.261 64.0984 24.261 64.2158 24.261C64.3971 24.261 64.5198 24.229 64.5838 24.165C64.6584 24.101 64.6958 23.989 64.6958 23.829V11.477ZM60.0878 18.117L61.6718 17.285C61.9278 17.6476 62.2104 18.0476 62.5198 18.485C62.8291 18.9116 63.1171 19.333 63.3838 19.749C63.6611 20.1543 63.8904 20.5063 64.0718 20.805L62.3598 21.797C62.2104 21.4876 62.0024 21.1196 61.7358 20.693C61.4798 20.2663 61.2024 19.829 60.9038 19.381C60.6158 18.9223 60.3438 18.501 60.0878 18.117ZM69.8798 15.221H71.8638V26.373H69.8798V15.221ZM70.1038 12.405L71.6238 11.477C71.8691 11.7116 72.1198 11.973 72.3758 12.261C72.6424 12.5383 72.8824 12.821 73.0958 13.109C73.3198 13.3863 73.4904 13.6476 73.6078 13.893L71.9918 14.933C71.8851 14.6983 71.7251 14.437 71.5118 14.149C71.3091 13.8503 71.0851 13.5516 70.8398 13.253C70.6051 12.9436 70.3598 12.661 70.1038 12.405ZM74.1678 12.165H82.8398V13.957H74.1678V12.165ZM81.7678 12.165H83.7518V24.325C83.7518 24.773 83.7038 25.1196 83.6078 25.365C83.5118 25.621 83.3304 25.8236 83.0638 25.973C82.7971 26.1116 82.4718 26.197 82.0878 26.229C81.7038 26.2716 81.2611 26.293 80.7598 26.293C80.7171 26.0476 80.6424 25.7543 80.5358 25.413C80.4398 25.0823 80.3331 24.805 80.2158 24.581C80.4718 24.5916 80.7278 24.597 80.9838 24.597C81.2398 24.597 81.4104 24.597 81.4958 24.597C81.6024 24.597 81.6718 24.5756 81.7038 24.533C81.7464 24.4903 81.7678 24.4156 81.7678 24.309V12.165ZM75.2078 20.453V21.989H78.2958V20.453H75.2078ZM75.2078 17.397V18.917H78.2958V17.397H75.2078ZM73.4958 15.861H80.0878V23.525H73.4958V15.861Z" fill="black"/>
</svg>
