<svg width="335" height="135" viewBox="0 0 335 135" fill="none" xmlns="http://www.w3.org/2000/svg">
<rect y="12.4988" width="335" height="122" rx="12" fill="#141414"/>
<path d="M39.7515 67.1426C39.6952 66.5758 39.445 66.125 39.0008 65.7903C38.5567 65.4555 37.9982 65.2882 37.3254 65.2882C36.8514 65.2882 36.4338 65.3694 36.0726 65.5318C35.7146 65.6942 35.4329 65.9196 35.2274 66.2079C35.0252 66.4929 34.9241 66.8178 34.9241 67.1823C34.9241 67.4508 34.9821 67.6861 35.0981 67.8883C35.2141 68.0905 35.3699 68.2645 35.5655 68.4103C35.7643 68.5528 35.9831 68.6755 36.2217 68.7782C36.4637 68.881 36.7073 68.9671 36.9525 69.0367L38.0264 69.345C38.3512 69.4345 38.676 69.5488 39.0008 69.688C39.3256 69.8272 39.6223 70.0029 39.8907 70.215C40.1625 70.4238 40.3796 70.6807 40.542 70.9856C40.7077 71.2872 40.7906 71.6501 40.7906 72.0744C40.7906 72.6179 40.6497 73.1068 40.368 73.541C40.0863 73.9752 39.6819 74.3199 39.1549 74.5751C38.628 74.827 37.9966 74.9529 37.2608 74.9529C36.5681 74.9529 35.9665 74.8386 35.4561 74.6099C34.9457 74.3779 34.5446 74.058 34.253 73.6504C33.9613 73.2427 33.7972 72.7704 33.7608 72.2335H34.7153C34.7485 72.6345 34.881 72.9742 35.113 73.2527C35.345 73.5311 35.6467 73.7432 36.0179 73.889C36.3891 74.0315 36.8034 74.1028 37.2608 74.1028C37.7679 74.1028 38.2186 74.0183 38.613 73.8492C39.0108 73.6769 39.3223 73.4383 39.5477 73.1333C39.7764 72.8251 39.8907 72.4671 39.8907 72.0595C39.8907 71.7148 39.8012 71.4264 39.6223 71.1944C39.4433 70.9591 39.1931 70.7619 38.8716 70.6028C38.5534 70.4437 38.1838 70.3028 37.7629 70.1802L36.5449 69.8223C35.7461 69.5836 35.1263 69.2538 34.6855 68.8329C34.2447 68.412 34.0243 67.875 34.0243 67.2221C34.0243 66.6752 34.1701 66.1947 34.4618 65.7804C34.7567 65.3627 35.1545 65.0379 35.6549 64.8059C36.1587 64.5706 36.7238 64.4529 37.3503 64.4529C37.9833 64.4529 38.5434 64.5689 39.0307 64.8009C39.5179 65.033 39.904 65.3528 40.189 65.7605C40.4774 66.1648 40.6315 66.6255 40.6514 67.1426H39.7515ZM45.8517 67.1426V67.9132H42.2075V67.1426H45.8517ZM43.346 65.313H44.2359V72.7853C44.2359 73.1035 44.2906 73.3537 44.4 73.536C44.5093 73.715 44.6519 73.8426 44.8275 73.9188C45.0032 73.9918 45.1905 74.0282 45.3893 74.0282C45.5053 74.0282 45.6048 74.0216 45.6876 74.0083C45.7705 73.9918 45.8434 73.9752 45.9064 73.9586L46.0953 74.759C46.0091 74.7922 45.903 74.822 45.7771 74.8485C45.6512 74.8784 45.4954 74.8933 45.3098 74.8933C44.985 74.8933 44.6717 74.822 44.3701 74.6795C44.0718 74.537 43.8266 74.3249 43.6343 74.0431C43.4421 73.7614 43.346 73.4117 43.346 72.9941V65.313ZM49.9943 74.9529C49.5336 74.9529 49.1126 74.8634 48.7315 74.6845C48.3503 74.5022 48.047 74.2403 47.8217 73.899C47.5963 73.5543 47.4836 73.1366 47.4836 72.6461C47.4836 72.2683 47.5549 71.9501 47.6974 71.6916C47.8399 71.433 48.0421 71.2209 48.3039 71.0552C48.5657 70.8895 48.8756 70.7586 49.2336 70.6625C49.5916 70.5663 49.986 70.4918 50.4168 70.4387C50.8444 70.3857 51.2057 70.3393 51.5006 70.2995C51.7989 70.2598 52.026 70.1968 52.1818 70.1106C52.3375 70.0244 52.4154 69.8852 52.4154 69.693V69.514C52.4154 68.9937 52.2596 68.5843 51.9481 68.286C51.6398 67.9844 51.1957 67.8336 50.6157 67.8336C50.0655 67.8336 49.6164 67.9546 49.2684 68.1965C48.9237 68.4385 48.6818 68.7235 48.5425 69.0517L47.7023 68.7484C47.8747 68.3308 48.1133 67.9977 48.4183 67.7491C48.7232 67.4972 49.0646 67.3166 49.4424 67.2072C49.8202 67.0945 50.2031 67.0382 50.5908 67.0382C50.8825 67.0382 51.1858 67.0763 51.5006 67.1525C51.8188 67.2287 52.1138 67.3613 52.3856 67.5502C52.6574 67.7358 52.8778 67.996 53.0468 68.3308C53.2158 68.6622 53.3004 69.0831 53.3004 69.5936V74.7789H52.4154V73.5708H52.3607C52.2547 73.7962 52.0972 74.015 51.8884 74.2271C51.6796 74.4392 51.4178 74.6132 51.1029 74.7491C50.788 74.885 50.4185 74.9529 49.9943 74.9529ZM50.1136 74.1426C50.5842 74.1426 50.9919 74.0382 51.3366 73.8294C51.6813 73.6205 51.9464 73.3438 52.132 72.9991C52.321 72.6511 52.4154 72.2683 52.4154 71.8507V70.747C52.3491 70.8099 52.2381 70.8663 52.0823 70.916C51.9299 70.9657 51.7525 71.0105 51.5504 71.0502C51.3515 71.0867 51.1526 71.1182 50.9538 71.1447C50.7549 71.1712 50.5759 71.1944 50.4168 71.2143C49.986 71.2673 49.6181 71.3502 49.3131 71.4629C49.0082 71.5756 48.7746 71.7313 48.6121 71.9302C48.4497 72.1258 48.3685 72.3777 48.3685 72.6859C48.3685 73.1499 48.5343 73.5095 48.8657 73.7647C49.1971 74.0166 49.6131 74.1426 50.1136 74.1426ZM55.6544 74.7789V67.1426H56.5145V68.3159H56.5791C56.7316 67.9314 56.9967 67.6215 57.3746 67.3862C57.7557 67.1475 58.1866 67.0282 58.6672 67.0282C58.7401 67.0282 58.8213 67.0299 58.9108 67.0332C59.0003 67.0365 59.0749 67.0398 59.1345 67.0431V67.943C59.0947 67.9364 59.0251 67.9264 58.9257 67.9132C58.8263 67.8999 58.7186 67.8933 58.6026 67.8933C58.2048 67.8933 57.8502 67.9778 57.5386 68.1468C57.2304 68.3125 56.9868 68.5429 56.8078 68.8379C56.6288 69.1329 56.5394 69.4693 56.5394 69.8471V74.7789H55.6544ZM64.131 67.1426V67.9132H60.4868V67.1426H64.131ZM61.6253 65.313H62.5152V72.7853C62.5152 73.1035 62.5699 73.3537 62.6793 73.536C62.7886 73.715 62.9312 73.8426 63.1068 73.9188C63.2825 73.9918 63.4697 74.0282 63.6686 74.0282C63.7846 74.0282 63.884 74.0216 63.9669 74.0083C64.0498 73.9918 64.1227 73.9752 64.1857 73.9586L64.3746 74.759C64.2884 74.7922 64.1823 74.822 64.0564 74.8485C63.9304 74.8784 63.7747 74.8933 63.5891 74.8933C63.2643 74.8933 62.951 74.822 62.6494 74.6795C62.3511 74.537 62.1059 74.3249 61.9136 74.0431C61.7214 73.7614 61.6253 73.4117 61.6253 72.9941V65.313ZM69.6457 65.4323V64.5971H77.0285V65.4323H73.802V74.7789H72.8723V65.4323H69.6457ZM78.9476 74.7789V67.1426H79.8375V74.7789H78.9476ZM79.4 65.8301C79.2177 65.8301 79.0619 65.7688 78.9326 65.6461C78.8034 65.5202 78.7387 65.3694 78.7387 65.1937C78.7387 65.018 78.8034 64.8689 78.9326 64.7463C79.0619 64.6203 79.2177 64.5573 79.4 64.5573C79.5823 64.5573 79.738 64.6203 79.8673 64.7463C79.9966 64.8689 80.0612 65.018 80.0612 65.1937C80.0612 65.3694 79.9966 65.5202 79.8673 65.6461C79.738 65.7688 79.5823 65.8301 79.4 65.8301ZM82.1778 74.7789V67.1426H83.0379V68.3159H83.1175C83.2699 67.9214 83.5235 67.6116 83.8781 67.3862C84.2361 67.1575 84.6653 67.0431 85.1658 67.0431C85.6928 67.0431 86.1253 67.1674 86.4634 67.416C86.8047 67.6613 87.0599 67.9993 87.229 68.4302H87.2936C87.466 68.006 87.746 67.6696 88.1338 67.421C88.5249 67.1691 88.9989 67.0431 89.5557 67.0431C90.265 67.0431 90.8251 67.2669 91.2361 67.7143C91.6471 68.1584 91.8526 68.808 91.8526 69.6632V74.7789H90.9676V69.6632C90.9676 69.0599 90.8135 68.6075 90.5053 68.3059C90.197 68.0043 89.791 67.8535 89.2872 67.8535C88.7039 67.8535 88.2548 68.0325 87.9399 68.3904C87.6251 68.7484 87.4676 69.2025 87.4676 69.7527V74.7789H86.5628V69.5836C86.5628 69.0666 86.4186 68.649 86.1303 68.3308C85.8419 68.0126 85.4359 67.8535 84.9122 67.8535C84.5609 67.8535 84.2444 67.9397 83.9626 68.112C83.6842 68.2844 83.4638 68.5247 83.3014 68.8329C83.1423 69.1378 83.0628 69.4892 83.0628 69.8869V74.7789H82.1778ZM97.2828 74.938C96.5702 74.938 95.9537 74.7723 95.4333 74.4409C94.913 74.1061 94.5103 73.6438 94.2253 73.0538C93.9435 72.4605 93.8027 71.7777 93.8027 71.0055C93.8027 70.2366 93.9435 69.5538 94.2253 68.9572C94.5103 68.3573 94.903 67.8883 95.4035 67.5502C95.9073 67.2089 96.489 67.0382 97.1485 67.0382C97.5628 67.0382 97.9622 67.1144 98.3467 67.2669C98.7312 67.416 99.0759 67.6464 99.3808 67.9579C99.689 68.2661 99.9326 68.6556 100.112 69.1262C100.291 69.5936 100.38 70.1471 100.38 70.7867V71.2242H94.4142V70.4437H99.4753C99.4753 69.9532 99.3758 69.5124 99.177 69.1213C98.9814 68.7268 98.708 68.4153 98.3566 68.1866C98.0086 67.9579 97.6059 67.8436 97.1485 67.8436C96.6646 67.8436 96.2387 67.9728 95.8708 68.2313C95.503 68.4899 95.2146 68.8313 95.0058 69.2555C94.8003 69.6797 94.6959 70.1438 94.6926 70.6475V71.1149C94.6926 71.7214 94.797 72.2517 95.0058 72.7058C95.2179 73.1565 95.5179 73.5062 95.9057 73.7548C96.2934 74.0034 96.7525 74.1277 97.2828 74.1277C97.6441 74.1277 97.9606 74.0713 98.2324 73.9586C98.5075 73.8459 98.7378 73.6951 98.9234 73.5062C99.1123 73.314 99.2548 73.1035 99.351 72.8748L100.191 73.1482C100.075 73.4697 99.8846 73.7664 99.6194 74.0382C99.3576 74.3099 99.0295 74.5287 98.6351 74.6944C98.244 74.8568 97.7932 74.938 97.2828 74.938ZM108.162 66.9389C107.929 66.9389 107.719 66.8596 107.532 66.7009C107.355 66.5423 107.266 66.3229 107.266 66.0429C107.266 65.7536 107.355 65.5343 107.532 65.3849C107.719 65.2263 107.929 65.1469 108.162 65.1469C108.395 65.1469 108.601 65.2263 108.778 65.3849C108.965 65.5343 109.058 65.7536 109.058 66.0429C109.058 66.3229 108.965 66.5423 108.778 66.7009C108.601 66.8596 108.395 66.9389 108.162 66.9389ZM108.162 73.8829C107.929 73.8829 107.719 73.8083 107.532 73.6589C107.355 73.5003 107.266 73.2809 107.266 73.0009C107.266 72.7116 107.355 72.4923 107.532 72.3429C107.719 72.1843 107.929 72.1049 108.162 72.1049C108.395 72.1049 108.601 72.1843 108.778 72.3429C108.965 72.4923 109.058 72.7116 109.058 73.0009C109.058 73.2809 108.965 73.5003 108.778 73.6589C108.601 73.8083 108.395 73.8829 108.162 73.8829ZM116.295 74.7789V74.0978L119.621 70.3592C120.056 69.8687 120.405 69.4494 120.67 69.1014C120.936 68.7534 121.128 68.4319 121.247 68.1369C121.37 67.8419 121.431 67.5353 121.431 67.2171C121.431 66.8294 121.34 66.4913 121.158 66.2029C120.979 65.9113 120.732 65.6842 120.417 65.5218C120.102 65.3594 119.747 65.2782 119.353 65.2782C118.935 65.2782 118.569 65.3677 118.254 65.5467C117.943 65.7257 117.701 65.9709 117.528 66.2825C117.356 66.594 117.27 66.952 117.27 67.3563H116.38C116.38 66.7929 116.509 66.2941 116.768 65.8599C117.03 65.4224 117.386 65.0794 117.837 64.8308C118.291 64.5822 118.804 64.4579 119.378 64.4579C119.945 64.4579 120.448 64.5805 120.889 64.8258C121.33 65.0678 121.676 65.3975 121.928 65.8152C122.18 66.2328 122.306 66.7001 122.306 67.2171C122.306 67.5917 122.24 67.9546 122.107 68.3059C121.978 68.6572 121.754 69.0483 121.436 69.4792C121.118 69.9101 120.677 70.4371 120.114 71.0602L117.588 73.8791V73.9437H122.624V74.7789H116.295ZM128.002 74.9181C127.286 74.9181 126.675 74.7126 126.168 74.3017C125.664 73.8874 125.276 73.2891 125.004 72.5069C124.736 71.7247 124.602 70.7851 124.602 69.688C124.602 68.5943 124.736 67.658 125.004 66.8791C125.276 66.0969 125.666 65.4986 126.173 65.0843C126.683 64.6667 127.293 64.4579 128.002 64.4579C128.712 64.4579 129.32 64.6667 129.827 65.0843C130.337 65.4986 130.727 66.0969 130.995 66.8791C131.267 67.658 131.403 68.5943 131.403 69.688C131.403 70.7851 131.267 71.7247 130.995 72.5069C130.727 73.2891 130.339 73.8874 129.832 74.3017C129.328 74.7126 128.718 74.9181 128.002 74.9181ZM128.002 74.0829C128.788 74.0829 129.401 73.7001 129.842 72.9345C130.283 72.1655 130.503 71.0834 130.503 69.688C130.503 68.76 130.402 67.9679 130.2 67.3116C130.001 66.652 129.714 66.1482 129.34 65.8002C128.968 65.4522 128.523 65.2782 128.002 65.2782C127.223 65.2782 126.612 65.666 126.168 66.4416C125.724 67.2138 125.502 68.296 125.502 69.688C125.502 70.6161 125.601 71.4082 125.8 72.0644C126.002 72.7207 126.289 73.2212 126.66 73.5659C127.034 73.9106 127.482 74.0829 128.002 74.0829ZM133.426 74.7789V74.0978L136.752 70.3592C137.186 69.8687 137.536 69.4494 137.801 69.1014C138.066 68.7534 138.259 68.4319 138.378 68.1369C138.501 67.8419 138.562 67.5353 138.562 67.2171C138.562 66.8294 138.471 66.4913 138.288 66.2029C138.109 65.9113 137.863 65.6842 137.548 65.5218C137.233 65.3594 136.878 65.2782 136.484 65.2782C136.066 65.2782 135.7 65.3677 135.385 65.5467C135.074 65.7257 134.832 65.9709 134.659 66.2825C134.487 66.594 134.401 66.952 134.401 67.3563H133.511C133.511 66.7929 133.64 66.2941 133.899 65.8599C134.16 65.4224 134.517 65.0794 134.967 64.8308C135.422 64.5822 135.935 64.4579 136.509 64.4579C137.075 64.4579 137.579 64.5805 138.02 64.8258C138.461 65.0678 138.807 65.3975 139.059 65.8152C139.311 66.2328 139.437 66.7001 139.437 67.2171C139.437 67.5917 139.371 67.9546 139.238 68.3059C139.109 68.6572 138.885 69.0483 138.567 69.4792C138.249 69.9101 137.808 70.4371 137.244 71.0602L134.719 73.8791V73.9437H139.755V74.7789H133.426ZM144.949 74.9181C144.382 74.9181 143.875 74.8038 143.428 74.5751C142.984 74.3431 142.629 74.0249 142.364 73.6205C142.102 73.2162 141.963 72.7538 141.946 72.2335H142.846C142.876 72.7737 143.088 73.2179 143.483 73.5659C143.877 73.9106 144.366 74.0829 144.949 74.0829C145.403 74.0829 145.808 73.9752 146.162 73.7598C146.517 73.541 146.794 73.2427 146.992 72.8649C147.195 72.4837 147.296 72.0545 147.296 71.5772C147.292 71.0801 147.185 70.6426 146.973 70.2647C146.76 69.8836 146.472 69.5853 146.108 69.3698C145.746 69.1544 145.34 69.0467 144.889 69.0467C144.548 69.0434 144.213 69.0997 143.885 69.2157C143.557 69.3317 143.284 69.4809 143.065 69.6632L142.135 69.5438L142.747 64.5971H147.778V65.4323H143.527L143.12 68.8379H143.169C143.395 68.649 143.668 68.4948 143.99 68.3755C144.314 68.2562 144.657 68.1965 145.019 68.1965C145.619 68.1965 146.157 68.3407 146.635 68.6291C147.115 68.9174 147.495 69.3152 147.773 69.8223C148.055 70.326 148.196 70.9061 148.196 71.5623C148.196 72.2053 148.055 72.7804 147.773 73.2875C147.495 73.7912 147.11 74.189 146.62 74.4806C146.132 74.7723 145.576 74.9181 144.949 74.9181ZM153.652 64.1198L150.371 76.3102H149.54L152.822 64.1198H153.652ZM158.293 64.5971V74.7789H157.363V65.5715H157.304L154.917 67.1575V66.193L157.323 64.5971H158.293ZM164.547 74.9181C163.831 74.9181 163.22 74.7126 162.713 74.3017C162.209 73.8874 161.821 73.2891 161.549 72.5069C161.281 71.7247 161.147 70.7851 161.147 69.688C161.147 68.5943 161.281 67.658 161.549 66.8791C161.821 66.0969 162.211 65.4986 162.718 65.0843C163.228 64.6667 163.838 64.4579 164.547 64.4579C165.256 64.4579 165.865 64.6667 166.372 65.0843C166.882 65.4986 167.272 66.0969 167.54 66.8791C167.812 67.658 167.948 68.5943 167.948 69.688C167.948 70.7851 167.812 71.7247 167.54 72.5069C167.272 73.2891 166.884 73.8874 166.377 74.3017C165.873 74.7126 165.263 74.9181 164.547 74.9181ZM164.547 74.0829C165.333 74.0829 165.946 73.7001 166.387 72.9345C166.827 72.1655 167.048 71.0834 167.048 69.688C167.048 68.76 166.947 67.9679 166.745 67.3116C166.546 66.652 166.259 66.1482 165.885 65.8002C165.513 65.4522 165.068 65.2782 164.547 65.2782C163.768 65.2782 163.157 65.666 162.713 66.4416C162.269 67.2138 162.046 68.296 162.046 69.688C162.046 70.6161 162.146 71.4082 162.345 72.0644C162.547 72.7207 162.834 73.2212 163.205 73.5659C163.579 73.9106 164.027 74.0829 164.547 74.0829ZM173.312 64.1198L170.031 76.3102H169.201L172.482 64.1198H173.312ZM177.953 64.5971V74.7789H177.023V65.5715H176.964L174.577 67.1575V66.193L176.984 64.5971H177.953ZM184.207 74.9181C183.491 74.9181 182.88 74.7126 182.373 74.3017C181.869 73.8874 181.481 73.2891 181.209 72.5069C180.941 71.7247 180.807 70.7851 180.807 69.688C180.807 68.5943 180.941 67.658 181.209 66.8791C181.481 66.0969 181.871 65.4986 182.378 65.0843C182.888 64.6667 183.498 64.4579 184.207 64.4579C184.917 64.4579 185.525 64.6667 186.032 65.0843C186.542 65.4986 186.932 66.0969 187.2 66.8791C187.472 67.658 187.608 68.5943 187.608 69.688C187.608 70.7851 187.472 71.7247 187.2 72.5069C186.932 73.2891 186.544 73.8874 186.037 74.3017C185.533 74.7126 184.923 74.9181 184.207 74.9181ZM184.207 74.0829C184.993 74.0829 185.606 73.7001 186.047 72.9345C186.488 72.1655 186.708 71.0834 186.708 69.688C186.708 68.76 186.607 67.9679 186.405 67.3116C186.206 66.652 185.919 66.1482 185.545 65.8002C185.173 65.4522 184.728 65.2782 184.207 65.2782C183.428 65.2782 182.817 65.666 182.373 66.4416C181.929 67.2138 181.707 68.296 181.707 69.688C181.707 70.6161 181.806 71.4082 182.005 72.0644C182.207 72.7207 182.494 73.2212 182.865 73.5659C183.24 73.9106 183.687 74.0829 184.207 74.0829ZM193.569 74.7789V74.0978L196.895 70.3592C197.329 69.8687 197.679 69.4494 197.944 69.1014C198.209 68.7534 198.401 68.4319 198.521 68.1369C198.643 67.8419 198.704 67.5353 198.704 67.2171C198.704 66.8294 198.613 66.4913 198.431 66.2029C198.252 65.9113 198.005 65.6842 197.69 65.5218C197.375 65.3594 197.021 65.2782 196.626 65.2782C196.209 65.2782 195.842 65.3677 195.528 65.5467C195.216 65.7257 194.974 65.9709 194.802 66.2825C194.629 66.594 194.543 66.952 194.543 67.3563H193.653C193.653 66.7929 193.783 66.2941 194.041 65.8599C194.303 65.4224 194.659 65.0794 195.11 64.8308C195.564 64.5822 196.078 64.4579 196.651 64.4579C197.218 64.4579 197.722 64.5805 198.163 64.8258C198.603 65.0678 198.95 65.3975 199.202 65.8152C199.454 66.2328 199.579 66.7001 199.579 67.2171C199.579 67.5917 199.513 67.9546 199.381 68.3059C199.251 68.6572 199.028 69.0483 198.709 69.4792C198.391 69.9101 197.95 70.4371 197.387 71.0602L194.861 73.8791V73.9437H199.898V74.7789H193.569ZM202.114 74.7789V74.0978L205.44 70.3592C205.874 69.8687 206.224 69.4494 206.489 69.1014C206.754 68.7534 206.946 68.4319 207.065 68.1369C207.188 67.8419 207.249 67.5353 207.249 67.2171C207.249 66.8294 207.158 66.4913 206.976 66.2029C206.797 65.9113 206.55 65.6842 206.235 65.5218C205.92 65.3594 205.566 65.2782 205.171 65.2782C204.754 65.2782 204.387 65.3677 204.073 65.5467C203.761 65.7257 203.519 65.9709 203.347 66.2825C203.174 66.594 203.088 66.952 203.088 67.3563H202.198C202.198 66.7929 202.328 66.2941 202.586 65.8599C202.848 65.4224 203.204 65.0794 203.655 64.8308C204.109 64.5822 204.623 64.4579 205.196 64.4579C205.763 64.4579 206.267 64.5805 206.707 64.8258C207.148 65.0678 207.495 65.3975 207.747 65.8152C207.998 66.2328 208.124 66.7001 208.124 67.2171C208.124 67.5917 208.058 67.9546 207.926 68.3059C207.796 68.6572 207.573 69.0483 207.254 69.4792C206.936 69.9101 206.495 70.4371 205.932 71.0602L203.406 73.8791V73.9437H208.443V74.7789H202.114ZM211.399 73.2527C211.204 73.2527 211.035 73.183 210.892 73.0438C210.753 72.9013 210.684 72.7323 210.684 72.5367C210.684 72.3379 210.753 72.1688 210.892 72.0296C211.035 71.8904 211.204 71.8208 211.399 71.8208C211.598 71.8208 211.767 71.8904 211.907 72.0296C212.046 72.1688 212.115 72.3379 212.115 72.5367C212.115 72.666 212.082 72.7853 212.016 72.8947C211.953 73.0041 211.867 73.0919 211.757 73.1582C211.651 73.2212 211.532 73.2527 211.399 73.2527ZM211.399 68.0872C211.204 68.0872 211.035 68.0176 210.892 67.8784C210.753 67.7358 210.684 67.5668 210.684 67.3713C210.684 67.1757 210.753 67.0083 210.892 66.8691C211.035 66.7266 211.204 66.6554 211.399 66.6554C211.598 66.6554 211.767 66.7266 211.907 66.8691C212.046 67.0083 212.115 67.1757 212.115 67.3713C212.115 67.5005 212.082 67.6198 212.016 67.7292C211.953 67.8386 211.867 67.9264 211.757 67.9927C211.651 68.0557 211.532 68.0872 211.399 68.0872ZM217.58 74.9181C216.864 74.9181 216.253 74.7126 215.746 74.3017C215.242 73.8874 214.854 73.2891 214.582 72.5069C214.314 71.7247 214.18 70.7851 214.18 69.688C214.18 68.5943 214.314 67.658 214.582 66.8791C214.854 66.0969 215.244 65.4986 215.751 65.0843C216.261 64.6667 216.871 64.4579 217.58 64.4579C218.29 64.4579 218.898 64.6667 219.405 65.0843C219.915 65.4986 220.305 66.0969 220.573 66.8791C220.845 67.658 220.981 68.5943 220.981 69.688C220.981 70.7851 220.845 71.7247 220.573 72.5069C220.305 73.2891 219.917 73.8874 219.41 74.3017C218.906 74.7126 218.296 74.9181 217.58 74.9181ZM217.58 74.0829C218.366 74.0829 218.979 73.7001 219.42 72.9345C219.861 72.1655 220.081 71.0834 220.081 69.688C220.081 68.76 219.98 67.9679 219.778 67.3116C219.579 66.652 219.292 66.1482 218.918 65.8002C218.547 65.4522 218.101 65.2782 217.58 65.2782C216.801 65.2782 216.19 65.666 215.746 66.4416C215.302 67.2138 215.08 68.296 215.08 69.688C215.08 70.6161 215.179 71.4082 215.378 72.0644C215.58 72.7207 215.867 73.2212 216.238 73.5659C216.613 73.9106 217.06 74.0829 217.58 74.0829ZM226.166 74.9181C225.45 74.9181 224.839 74.7126 224.332 74.3017C223.828 73.8874 223.44 73.2891 223.168 72.5069C222.9 71.7247 222.766 70.7851 222.766 69.688C222.766 68.5943 222.9 67.658 223.168 66.8791C223.44 66.0969 223.83 65.4986 224.337 65.0843C224.847 64.6667 225.457 64.4579 226.166 64.4579C226.876 64.4579 227.484 64.6667 227.991 65.0843C228.501 65.4986 228.891 66.0969 229.159 66.8791C229.431 67.658 229.567 68.5943 229.567 69.688C229.567 70.7851 229.431 71.7247 229.159 72.5069C228.891 73.2891 228.503 73.8874 227.996 74.3017C227.492 74.7126 226.882 74.9181 226.166 74.9181ZM226.166 74.0829C226.952 74.0829 227.565 73.7001 228.006 72.9345C228.447 72.1655 228.667 71.0834 228.667 69.688C228.667 68.76 228.566 67.9679 228.364 67.3116C228.165 66.652 227.878 66.1482 227.504 65.8002C227.132 65.4522 226.687 65.2782 226.166 65.2782C225.387 65.2782 224.776 65.666 224.332 66.4416C223.888 67.2138 223.666 68.296 223.666 69.688C223.666 70.6161 223.765 71.4082 223.964 72.0644C224.166 72.7207 224.453 73.2212 224.824 73.5659C225.199 73.9106 225.646 74.0829 226.166 74.0829ZM232.331 73.2527C232.136 73.2527 231.966 73.183 231.824 73.0438C231.685 72.9013 231.615 72.7323 231.615 72.5367C231.615 72.3379 231.685 72.1688 231.824 72.0296C231.966 71.8904 232.136 71.8208 232.331 71.8208C232.53 71.8208 232.699 71.8904 232.838 72.0296C232.977 72.1688 233.047 72.3379 233.047 72.5367C233.047 72.666 233.014 72.7853 232.948 72.8947C232.885 73.0041 232.798 73.0919 232.689 73.1582C232.583 73.2212 232.464 73.2527 232.331 73.2527ZM232.331 68.0872C232.136 68.0872 231.966 68.0176 231.824 67.8784C231.685 67.7358 231.615 67.5668 231.615 67.3713C231.615 67.1757 231.685 67.0083 231.824 66.8691C231.966 66.7266 232.136 66.6554 232.331 66.6554C232.53 66.6554 232.699 66.7266 232.838 66.8691C232.977 67.0083 233.047 67.1757 233.047 67.3713C233.047 67.5005 233.014 67.6198 232.948 67.7292C232.885 67.8386 232.798 67.9264 232.689 67.9927C232.583 68.0557 232.464 68.0872 232.331 68.0872ZM238.512 74.9181C237.796 74.9181 237.185 74.7126 236.677 74.3017C236.174 73.8874 235.786 73.2891 235.514 72.5069C235.246 71.7247 235.111 70.7851 235.111 69.688C235.111 68.5943 235.246 67.658 235.514 66.8791C235.786 66.0969 236.175 65.4986 236.682 65.0843C237.193 64.6667 237.803 64.4579 238.512 64.4579C239.221 64.4579 239.829 64.6667 240.337 65.0843C240.847 65.4986 241.236 66.0969 241.505 66.8791C241.777 67.658 241.913 68.5943 241.913 69.688C241.913 70.7851 241.777 71.7247 241.505 72.5069C241.236 73.2891 240.849 73.8874 240.342 74.3017C239.838 74.7126 239.228 74.9181 238.512 74.9181ZM238.512 74.0829C239.298 74.0829 239.911 73.7001 240.351 72.9345C240.792 72.1655 241.013 71.0834 241.013 69.688C241.013 68.76 240.912 67.9679 240.709 67.3116C240.511 66.652 240.224 66.1482 239.849 65.8002C239.478 65.4522 239.032 65.2782 238.512 65.2782C237.733 65.2782 237.122 65.666 236.677 66.4416C236.233 67.2138 236.011 68.296 236.011 69.688C236.011 70.6161 236.111 71.4082 236.31 72.0644C236.512 72.7207 236.798 73.2212 237.17 73.5659C237.544 73.9106 237.992 74.0829 238.512 74.0829ZM247.098 74.9181C246.382 74.9181 245.771 74.7126 245.263 74.3017C244.76 73.8874 244.372 73.2891 244.1 72.5069C243.832 71.7247 243.697 70.7851 243.697 69.688C243.697 68.5943 243.832 67.658 244.1 66.8791C244.372 66.0969 244.761 65.4986 245.268 65.0843C245.779 64.6667 246.389 64.4579 247.098 64.4579C247.807 64.4579 248.415 64.6667 248.923 65.0843C249.433 65.4986 249.822 66.0969 250.091 66.8791C250.363 67.658 250.499 68.5943 250.499 69.688C250.499 70.7851 250.363 71.7247 250.091 72.5069C249.822 73.2891 249.435 73.8874 248.927 74.3017C248.424 74.7126 247.814 74.9181 247.098 74.9181ZM247.098 74.0829C247.883 74.0829 248.497 73.7001 248.937 72.9345C249.378 72.1655 249.599 71.0834 249.599 69.688C249.599 68.76 249.498 67.9679 249.295 67.3116C249.097 66.652 248.81 66.1482 248.435 65.8002C248.064 65.4522 247.618 65.2782 247.098 65.2782C246.319 65.2782 245.708 65.666 245.263 66.4416C244.819 67.2138 244.597 68.296 244.597 69.688C244.597 70.6161 244.697 71.4082 244.896 72.0644C245.098 72.7207 245.384 73.2212 245.756 73.5659C246.13 73.9106 246.578 74.0829 247.098 74.0829ZM256.862 69.688C256.862 68.4948 257.013 67.3679 257.315 66.3073C257.616 65.2467 258.049 64.2524 258.612 63.3244H259.418C259.176 63.7155 258.954 64.158 258.751 64.6518C258.552 65.1456 258.38 65.6726 258.234 66.2328C258.088 66.7929 257.976 67.3663 257.896 67.9529C257.817 68.5363 257.777 69.1146 257.777 69.688C257.777 70.4536 257.847 71.2259 257.986 72.0048C258.125 72.7837 258.317 73.5228 258.562 74.2221C258.811 74.9214 259.096 75.5313 259.418 76.0517H258.612C258.049 75.1203 257.616 74.1243 257.315 73.0637C257.013 72.0031 256.862 70.8779 256.862 69.688ZM268.318 64.5971H269.248V71.3386C269.248 72.0313 269.085 72.6511 268.76 73.198C268.436 73.7415 267.983 74.1707 267.403 74.4856C266.826 74.7972 266.155 74.9529 265.39 74.9529C264.627 74.9529 263.956 74.7955 263.376 74.4806C262.796 74.1658 262.344 73.7366 262.019 73.193C261.694 72.6494 261.532 72.0313 261.532 71.3386V64.5971H262.461V71.274C262.461 71.8142 262.582 72.2964 262.824 72.7207C263.066 73.1416 263.406 73.4731 263.844 73.715C264.284 73.957 264.8 74.0779 265.39 74.0779C265.98 74.0779 266.495 73.957 266.936 73.715C267.377 73.4731 267.716 73.1416 267.955 72.7207C268.197 72.2964 268.318 71.8142 268.318 71.274V64.5971ZM271.333 65.4323V64.5971H278.716V65.4323H275.489V74.7789H274.56V65.4323H271.333ZM288.36 67.7789H287.425C287.355 67.4309 287.229 67.1094 287.047 66.8144C286.868 66.5161 286.643 66.256 286.371 66.0339C286.099 65.8118 285.791 65.6395 285.446 65.5169C285.102 65.3942 284.729 65.3329 284.328 65.3329C283.685 65.3329 283.098 65.5003 282.568 65.835C282.041 66.1698 281.618 66.662 281.3 67.3116C280.985 67.9579 280.828 68.75 280.828 69.688C280.828 70.6326 280.985 71.4281 281.3 72.0744C281.618 72.7207 282.041 73.2112 282.568 73.546C283.098 73.8774 283.685 74.0431 284.328 74.0431C284.729 74.0431 285.102 73.9818 285.446 73.8592C285.791 73.7366 286.099 73.5659 286.371 73.3471C286.643 73.125 286.868 72.8649 287.047 72.5666C287.229 72.2683 287.355 71.9451 287.425 71.5971H288.36C288.277 72.0644 288.121 72.5003 287.892 72.9046C287.667 73.3057 287.379 73.657 287.027 73.9586C286.679 74.2602 286.278 74.4955 285.824 74.6646C285.37 74.8336 284.871 74.9181 284.328 74.9181C283.473 74.9181 282.714 74.7044 282.051 74.2768C281.388 73.8459 280.867 73.2394 280.49 72.4572C280.115 71.675 279.928 70.7519 279.928 69.688C279.928 68.6241 280.115 67.701 280.49 66.9188C280.867 66.1366 281.388 65.5318 282.051 65.1042C282.714 64.6733 283.473 64.4579 284.328 64.4579C284.871 64.4579 285.37 64.5424 285.824 64.7115C286.278 64.8772 286.679 65.1125 287.027 65.4174C287.379 65.719 287.667 66.0704 287.892 66.4714C288.121 66.8724 288.277 67.3083 288.36 67.7789ZM293.328 72.85V66.5509H294.178V72.85H293.328ZM290.603 70.1255V69.2754H296.902V70.1255H290.603ZM302.591 74.9181C301.941 74.9181 301.363 74.7955 300.856 74.5502C300.349 74.305 299.951 73.9702 299.663 73.546C299.374 73.1184 299.23 72.6362 299.23 72.0992C299.23 71.6783 299.318 71.2856 299.494 70.921C299.669 70.5531 299.911 70.2448 300.219 69.9963C300.528 69.7444 300.874 69.5803 301.258 69.5041V69.4494C300.758 69.3036 300.355 69.0169 300.05 68.5893C299.745 68.1584 299.595 67.6696 299.598 67.1227C299.595 66.6156 299.724 66.1615 299.986 65.7605C300.248 65.3594 300.604 65.0429 301.055 64.8109C301.509 64.5756 302.021 64.4579 302.591 64.4579C303.158 64.4579 303.666 64.5756 304.117 64.8109C304.568 65.0429 304.924 65.3594 305.186 65.7605C305.451 66.1615 305.585 66.6156 305.589 67.1227C305.585 67.6662 305.431 68.1551 305.126 68.5893C304.821 69.0202 304.42 69.3069 303.923 69.4494V69.5041C304.308 69.577 304.652 69.7394 304.957 69.9913C305.262 70.2432 305.504 70.5531 305.683 70.921C305.862 71.2856 305.952 71.6783 305.952 72.0992C305.952 72.6362 305.806 73.1184 305.514 73.546C305.226 73.9702 304.828 74.305 304.321 74.5502C303.817 74.7955 303.24 74.9181 302.591 74.9181ZM302.591 74.0829C303.075 74.0829 303.499 73.9967 303.864 73.8244C304.231 73.6487 304.518 73.4084 304.724 73.1035C304.932 72.7986 305.037 72.4489 305.037 72.0545C305.037 71.6468 304.929 71.2839 304.714 70.9657C304.498 70.6442 304.207 70.3907 303.839 70.2051C303.471 70.0161 303.055 69.9217 302.591 69.9217C302.127 69.9217 301.709 70.0161 301.338 70.2051C300.97 70.3907 300.678 70.6442 300.463 70.9657C300.251 71.2839 300.145 71.6468 300.145 72.0545C300.145 72.4489 300.246 72.7986 300.448 73.1035C300.654 73.4084 300.94 73.6487 301.308 73.8244C301.679 73.9967 302.107 74.0829 302.591 74.0829ZM302.591 69.1262C302.989 69.1262 303.345 69.0417 303.66 68.8727C303.975 68.7036 304.223 68.4733 304.405 68.1816C304.591 67.8866 304.686 67.5519 304.689 67.1774C304.686 66.8062 304.593 66.478 304.41 66.193C304.228 65.9046 303.98 65.6809 303.665 65.5218C303.353 65.3594 302.995 65.2782 302.591 65.2782C302.186 65.2782 301.825 65.3594 301.507 65.5218C301.192 65.6809 300.944 65.9046 300.761 66.193C300.582 66.478 300.494 66.8062 300.498 67.1774C300.494 67.5519 300.584 67.8866 300.766 68.1816C300.952 68.4733 301.202 68.7036 301.517 68.8727C301.835 69.0417 302.193 69.1262 302.591 69.1262ZM310.199 69.688C310.199 70.8812 310.048 72.0081 309.746 73.0687C309.445 74.1293 309.012 75.1236 308.449 76.0517H307.643C307.885 75.6606 308.106 75.2181 308.304 74.7242C308.507 74.2304 308.681 73.7034 308.826 73.1433C308.972 72.5831 309.085 72.0098 309.165 71.4231C309.244 70.8365 309.284 70.2581 309.284 69.688C309.284 68.9224 309.214 68.1501 309.075 67.3713C308.936 66.5924 308.742 65.8533 308.493 65.1539C308.248 64.4546 307.965 63.8447 307.643 63.3244H308.449C309.012 64.2557 309.445 65.2517 309.746 66.3123C310.048 67.3729 310.199 68.4982 310.199 69.688ZM34.2231 104.779V94.5971H40.1294V95.4323H35.1528V99.2654H39.8162V100.101H35.1528V103.944H40.2288V104.779H34.2231ZM43.2366 100.006V104.779H42.3517V97.1426H43.2118V98.3407H43.2913C43.4703 97.9496 43.7487 97.6364 44.1265 97.4011C44.5077 97.1625 44.9783 97.0431 45.5385 97.0431C46.0522 97.0431 46.503 97.1509 46.8907 97.3663C47.2818 97.5784 47.5851 97.8916 47.8005 98.3059C48.0193 98.7202 48.1287 99.229 48.1287 99.8322V104.779H47.2437V99.8869C47.2437 99.2605 47.0681 98.765 46.7167 98.4004C46.3687 98.0358 45.9014 97.8535 45.3147 97.8535C44.9137 97.8535 44.5574 97.9397 44.2458 98.112C43.9343 98.2844 43.6874 98.533 43.5051 98.8578C43.3261 99.1793 43.2366 99.5621 43.2366 100.006ZM53.2084 104.938C52.582 104.938 52.0334 104.772 51.5628 104.441C51.0921 104.109 50.7242 103.647 50.4591 103.054C50.1973 102.461 50.0663 101.769 50.0663 100.981C50.0663 100.195 50.1973 99.5074 50.4591 98.9174C50.7242 98.3241 51.0938 97.8634 51.5678 97.5353C52.0417 97.2039 52.5936 97.0382 53.2233 97.0382C53.6873 97.0382 54.0734 97.121 54.3817 97.2867C54.6899 97.4491 54.9368 97.6513 55.1224 97.8933C55.3081 98.1352 55.4522 98.3705 55.555 98.5992H55.6345V94.5971H56.5244V104.779H55.6594V103.362H55.555C55.4522 103.594 55.3064 103.833 55.1175 104.078C54.9286 104.32 54.6783 104.524 54.3668 104.689C54.0585 104.855 53.6724 104.938 53.2084 104.938ZM53.3128 104.128C53.8066 104.128 54.2276 103.993 54.5756 103.725C54.9236 103.453 55.1887 103.08 55.371 102.606C55.5566 102.129 55.6494 101.582 55.6494 100.966C55.6494 100.356 55.5583 99.8173 55.376 99.35C55.1937 98.8793 54.9286 98.5114 54.5805 98.2463C54.2325 97.9778 53.8099 97.8436 53.3128 97.8436C52.8024 97.8436 52.3715 97.9828 52.0202 98.2612C51.6722 98.5363 51.407 98.9091 51.2247 99.3798C51.0457 99.8504 50.9563 100.379 50.9563 100.966C50.9563 101.559 51.0474 102.094 51.2297 102.572C51.412 103.049 51.6771 103.428 52.0251 103.71C52.3765 103.988 52.8057 104.128 53.3128 104.128ZM62.55 95.4323V94.5971H69.9328V95.4323H66.7063V104.779H65.7766V95.4323H62.55ZM71.8519 104.779V97.1426H72.7418V104.779H71.8519ZM72.3043 95.8301C72.122 95.8301 71.9662 95.7688 71.8369 95.6461C71.7077 95.5202 71.643 95.3694 71.643 95.1937C71.643 95.018 71.7077 94.8689 71.8369 94.7463C71.9662 94.6203 72.122 94.5573 72.3043 94.5573C72.4866 94.5573 72.6423 94.6203 72.7716 94.7463C72.9009 94.8689 72.9655 95.018 72.9655 95.1937C72.9655 95.3694 72.9009 95.5202 72.7716 95.6461C72.6423 95.7688 72.4866 95.8301 72.3043 95.8301ZM75.0821 104.779V97.1426H75.9422V98.3159H76.0218C76.1742 97.9214 76.4278 97.6116 76.7824 97.3862C77.1404 97.1575 77.5696 97.0431 78.0701 97.0431C78.5971 97.0431 79.0296 97.1674 79.3677 97.416C79.709 97.6613 79.9642 97.9993 80.1333 98.4302H80.1979C80.3703 98.006 80.6503 97.6696 81.0381 97.421C81.4292 97.1691 81.9032 97.0431 82.46 97.0431C83.1693 97.0431 83.7294 97.2669 84.1404 97.7143C84.5514 98.1584 84.7569 98.808 84.7569 99.6632V104.779H83.8719V99.6632C83.8719 99.0599 83.7178 98.6075 83.4096 98.3059C83.1013 98.0043 82.6953 97.8535 82.1915 97.8535C81.6082 97.8535 81.1591 98.0325 80.8442 98.3904C80.5293 98.7484 80.3719 99.2025 80.3719 99.7527V104.779H79.4671V99.5836C79.4671 99.0666 79.3229 98.649 79.0346 98.3308C78.7462 98.0126 78.3402 97.8535 77.8165 97.8535C77.4652 97.8535 77.1487 97.9397 76.8669 98.112C76.5885 98.2844 76.3681 98.5247 76.2057 98.8329C76.0466 99.1378 75.9671 99.4892 75.9671 99.8869V104.779H75.0821ZM90.1871 104.938C89.4745 104.938 88.858 104.772 88.3376 104.441C87.8173 104.106 87.4146 103.644 87.1295 103.054C86.8478 102.461 86.707 101.778 86.707 101.005C86.707 100.237 86.8478 99.5538 87.1295 98.9572C87.4146 98.3573 87.8073 97.8883 88.3078 97.5502C88.8116 97.2089 89.3933 97.0382 90.0528 97.0382C90.4671 97.0382 90.8665 97.1144 91.251 97.2669C91.6355 97.416 91.9802 97.6464 92.2851 97.9579C92.5933 98.2661 92.8369 98.6556 93.0159 99.1262C93.1949 99.5936 93.2844 100.147 93.2844 100.787V101.224H87.3185V100.444H92.3796C92.3796 99.9532 92.2801 99.5124 92.0813 99.1213C91.8857 98.7268 91.6123 98.4153 91.2609 98.1866C90.9129 97.9579 90.5102 97.8436 90.0528 97.8436C89.5689 97.8436 89.143 97.9728 88.7751 98.2313C88.4072 98.4899 88.1189 98.8313 87.9101 99.2555C87.7046 99.6797 87.6002 100.144 87.5969 100.648V101.115C87.5969 101.721 87.7013 102.252 87.9101 102.706C88.1222 103.157 88.4222 103.506 88.8099 103.755C89.1977 104.003 89.6568 104.128 90.1871 104.128C90.5483 104.128 90.8649 104.071 91.1367 103.959C91.4117 103.846 91.6421 103.695 91.8277 103.506C92.0166 103.314 92.1591 103.104 92.2553 102.875L93.0955 103.148C92.9795 103.47 92.7889 103.766 92.5237 104.038C92.2619 104.31 91.9338 104.529 91.5394 104.694C91.1483 104.857 90.6975 104.938 90.1871 104.938ZM101.066 96.9389C100.833 96.9389 100.623 96.8596 100.436 96.7009C100.259 96.5423 100.17 96.3229 100.17 96.0429C100.17 95.7536 100.259 95.5343 100.436 95.3849C100.623 95.2263 100.833 95.1469 101.066 95.1469C101.299 95.1469 101.505 95.2263 101.682 95.3849C101.869 95.5343 101.962 95.7536 101.962 96.0429C101.962 96.3229 101.869 96.5423 101.682 96.7009C101.505 96.8596 101.299 96.9389 101.066 96.9389ZM101.066 103.883C100.833 103.883 100.623 103.808 100.436 103.659C100.259 103.5 100.17 103.281 100.17 103.001C100.17 102.712 100.259 102.492 100.436 102.343C100.623 102.184 100.833 102.105 101.066 102.105C101.299 102.105 101.505 102.184 101.682 102.343C101.869 102.492 101.962 102.712 101.962 103.001C101.962 103.281 101.869 103.5 101.682 103.659C101.505 103.808 101.299 103.883 101.066 103.883ZM109.2 104.779V104.098L112.526 100.359C112.96 99.8687 113.31 99.4494 113.575 99.1014C113.84 98.7534 114.032 98.4319 114.151 98.1369C114.274 97.8419 114.335 97.5353 114.335 97.2171C114.335 96.8294 114.244 96.4913 114.062 96.2029C113.883 95.9113 113.636 95.6842 113.321 95.5218C113.006 95.3594 112.652 95.2782 112.257 95.2782C111.84 95.2782 111.473 95.3677 111.158 95.5467C110.847 95.7257 110.605 95.9709 110.433 96.2825C110.26 96.594 110.174 96.952 110.174 97.3563H109.284C109.284 96.7929 109.413 96.2941 109.672 95.8599C109.934 95.4224 110.29 95.0794 110.741 94.8308C111.195 94.5822 111.709 94.4579 112.282 94.4579C112.849 94.4579 113.353 94.5805 113.793 94.8258C114.234 95.0678 114.581 95.3975 114.832 95.8152C115.084 96.2328 115.21 96.7001 115.21 97.2171C115.21 97.5917 115.144 97.9546 115.011 98.3059C114.882 98.6572 114.658 99.0483 114.34 99.4792C114.022 99.9101 113.581 100.437 113.018 101.06L110.492 103.879V103.944H115.529V104.779H109.2ZM120.907 104.918C120.191 104.918 119.579 104.713 119.072 104.302C118.568 103.887 118.18 103.289 117.909 102.507C117.64 101.725 117.506 100.785 117.506 99.688C117.506 98.5943 117.64 97.658 117.909 96.8791C118.18 96.0969 118.57 95.4986 119.077 95.0843C119.587 94.6667 120.197 94.4579 120.907 94.4579C121.616 94.4579 122.224 94.6667 122.731 95.0843C123.242 95.4986 123.631 96.0969 123.899 96.8791C124.171 97.658 124.307 98.5943 124.307 99.688C124.307 100.785 124.171 101.725 123.899 102.507C123.631 103.289 123.243 103.887 122.736 104.302C122.232 104.713 121.622 104.918 120.907 104.918ZM120.907 104.083C121.692 104.083 122.305 103.7 122.746 102.934C123.187 102.166 123.407 101.083 123.407 99.688C123.407 98.76 123.306 97.9679 123.104 97.3116C122.905 96.652 122.618 96.1482 122.244 95.8002C121.873 95.4522 121.427 95.2782 120.907 95.2782C120.128 95.2782 119.516 95.666 119.072 96.4416C118.628 97.2138 118.406 98.296 118.406 99.688C118.406 100.616 118.505 101.408 118.704 102.064C118.906 102.721 119.193 103.221 119.564 103.566C119.939 103.911 120.386 104.083 120.907 104.083ZM126.331 104.779V104.098L129.657 100.359C130.091 99.8687 130.44 99.4494 130.706 99.1014C130.971 98.7534 131.163 98.4319 131.282 98.1369C131.405 97.8419 131.466 97.5353 131.466 97.2171C131.466 96.8294 131.375 96.4913 131.193 96.2029C131.014 95.9113 130.767 95.6842 130.452 95.5218C130.137 95.3594 129.782 95.2782 129.388 95.2782C128.97 95.2782 128.604 95.3677 128.289 95.5467C127.978 95.7257 127.736 95.9709 127.563 96.2825C127.391 96.594 127.305 96.952 127.305 97.3563H126.415C126.415 96.7929 126.544 96.2941 126.803 95.8599C127.065 95.4224 127.421 95.0794 127.872 94.8308C128.326 94.5822 128.84 94.4579 129.413 94.4579C129.98 94.4579 130.483 94.5805 130.924 94.8258C131.365 95.0678 131.711 95.3975 131.963 95.8152C132.215 96.2328 132.341 96.7001 132.341 97.2171C132.341 97.5917 132.275 97.9546 132.142 98.3059C132.013 98.6572 131.789 99.0483 131.471 99.4792C131.153 99.9101 130.712 100.437 130.149 101.06L127.623 103.879V103.944H132.659V104.779H126.331ZM137.853 104.918C137.287 104.918 136.78 104.804 136.332 104.575C135.888 104.343 135.533 104.025 135.268 103.621C135.006 103.216 134.867 102.754 134.851 102.233H135.75C135.78 102.774 135.992 103.218 136.387 103.566C136.781 103.911 137.27 104.083 137.853 104.083C138.308 104.083 138.712 103.975 139.067 103.76C139.421 103.541 139.698 103.243 139.897 102.865C140.099 102.484 140.2 102.054 140.2 101.577C140.197 101.08 140.089 100.643 139.877 100.265C139.665 99.8836 139.376 99.5853 139.012 99.3698C138.651 99.1544 138.245 99.0467 137.794 99.0467C137.452 99.0434 137.118 99.0997 136.79 99.2157C136.461 99.3317 136.188 99.4809 135.969 99.6632L135.04 99.5438L135.651 94.5971H140.682V95.4323H136.432L136.024 98.8379H136.074C136.299 98.649 136.572 98.4948 136.894 98.3755C137.219 98.2562 137.562 98.1965 137.923 98.1965C138.523 98.1965 139.062 98.3407 139.539 98.6291C140.019 98.9174 140.399 99.3152 140.677 99.8223C140.959 100.326 141.1 100.906 141.1 101.562C141.1 102.205 140.959 102.78 140.677 103.287C140.399 103.791 140.014 104.189 139.524 104.481C139.037 104.772 138.48 104.918 137.853 104.918ZM146.556 94.1198L143.275 106.31H142.445L145.726 94.1198H146.556ZM151.197 94.5971V104.779H150.268V95.5715H150.208L147.821 97.1575V96.193L150.228 94.5971H151.197ZM157.451 104.918C156.736 104.918 156.124 104.713 155.617 104.302C155.113 103.887 154.725 103.289 154.454 102.507C154.185 101.725 154.051 100.785 154.051 99.688C154.051 98.5943 154.185 97.658 154.454 96.8791C154.725 96.0969 155.115 95.4986 155.622 95.0843C156.132 94.6667 156.742 94.4579 157.451 94.4579C158.161 94.4579 158.769 94.6667 159.276 95.0843C159.786 95.4986 160.176 96.0969 160.444 96.8791C160.716 97.658 160.852 98.5943 160.852 99.688C160.852 100.785 160.716 101.725 160.444 102.507C160.176 103.289 159.788 103.887 159.281 104.302C158.777 104.713 158.167 104.918 157.451 104.918ZM157.451 104.083C158.237 104.083 158.85 103.7 159.291 102.934C159.732 102.166 159.952 101.083 159.952 99.688C159.952 98.76 159.851 97.9679 159.649 97.3116C159.45 96.652 159.163 96.1482 158.789 95.8002C158.418 95.4522 157.972 95.2782 157.451 95.2782C156.673 95.2782 156.061 95.666 155.617 96.4416C155.173 97.2138 154.951 98.296 154.951 99.688C154.951 100.616 155.05 101.408 155.249 102.064C155.451 102.721 155.738 103.221 156.109 103.566C156.484 103.911 156.931 104.083 157.451 104.083ZM166.216 94.1198L162.935 106.31H162.105L165.386 94.1198H166.216ZM167.715 104.779V104.098L171.041 100.359C171.475 99.8687 171.825 99.4494 172.09 99.1014C172.355 98.7534 172.548 98.4319 172.667 98.1369C172.79 97.8419 172.851 97.5353 172.851 97.2171C172.851 96.8294 172.76 96.4913 172.578 96.2029C172.399 95.9113 172.152 95.6842 171.837 95.5218C171.522 95.3594 171.167 95.2782 170.773 95.2782C170.355 95.2782 169.989 95.3677 169.674 95.5467C169.363 95.7257 169.121 95.9709 168.948 96.2825C168.776 96.594 168.69 96.952 168.69 97.3563H167.8C167.8 96.7929 167.929 96.2941 168.188 95.8599C168.449 95.4224 168.806 95.0794 169.257 94.8308C169.711 94.5822 170.224 94.4579 170.798 94.4579C171.364 94.4579 171.868 94.5805 172.309 94.8258C172.75 95.0678 173.096 95.3975 173.348 95.8152C173.6 96.2328 173.726 96.7001 173.726 97.2171C173.726 97.5917 173.66 97.9546 173.527 98.3059C173.398 98.6572 173.174 99.0483 172.856 99.4792C172.538 99.9101 172.097 100.437 171.533 101.06L169.008 103.879V103.944H174.044V104.779H167.715ZM175.798 102.591V101.836L180.337 94.5971H180.894V95.8649H180.481L176.837 101.692V101.756H182.788V102.591H175.798ZM180.551 104.779V102.353V102.005V94.5971H181.436V104.779H180.551ZM188.743 104.779V104.098L192.069 100.359C192.503 99.8687 192.853 99.4494 193.118 99.1014C193.383 98.7534 193.575 98.4319 193.694 98.1369C193.817 97.8419 193.878 97.5353 193.878 97.2171C193.878 96.8294 193.787 96.4913 193.605 96.2029C193.426 95.9113 193.179 95.6842 192.864 95.5218C192.549 95.3594 192.195 95.2782 191.8 95.2782C191.383 95.2782 191.016 95.3677 190.701 95.5467C190.39 95.7257 190.148 95.9709 189.976 96.2825C189.803 96.594 189.717 96.952 189.717 97.3563H188.827C188.827 96.7929 188.956 96.2941 189.215 95.8599C189.477 95.4224 189.833 95.0794 190.284 94.8308C190.738 94.5822 191.252 94.4579 191.825 94.4579C192.392 94.4579 192.896 94.5805 193.336 94.8258C193.777 95.0678 194.124 95.3975 194.375 95.8152C194.627 96.2328 194.753 96.7001 194.753 97.2171C194.753 97.5917 194.687 97.9546 194.554 98.3059C194.425 98.6572 194.201 99.0483 193.883 99.4792C193.565 99.9101 193.124 100.437 192.561 101.06L190.035 103.879V103.944H195.071V104.779H188.743ZM200.594 104.918C199.967 104.918 199.407 104.805 198.913 104.58C198.419 104.351 198.028 104.035 197.74 103.63C197.452 103.226 197.299 102.76 197.283 102.233H198.222C198.239 102.605 198.353 102.929 198.565 103.208C198.777 103.483 199.059 103.698 199.41 103.854C199.762 104.007 200.153 104.083 200.584 104.083C201.054 104.083 201.469 103.995 201.827 103.819C202.188 103.644 202.47 103.403 202.672 103.099C202.877 102.79 202.98 102.442 202.98 102.054C202.98 101.644 202.876 101.281 202.667 100.966C202.458 100.651 202.158 100.406 201.767 100.23C201.379 100.054 200.915 99.9664 200.375 99.9664H199.778V99.1312H200.375C200.816 99.1312 201.205 99.0517 201.543 98.8926C201.885 98.7302 202.153 98.5031 202.349 98.2115C202.544 97.9198 202.642 97.5768 202.642 97.1823C202.642 96.8078 202.557 96.478 202.388 96.193C202.219 95.908 201.981 95.6842 201.673 95.5218C201.368 95.3594 201.011 95.2782 200.604 95.2782C200.209 95.2782 199.848 95.3545 199.52 95.5069C199.192 95.6594 198.927 95.8748 198.724 96.1532C198.526 96.4316 198.419 96.7614 198.406 97.1426H197.506C197.52 96.6123 197.665 96.1466 197.944 95.7455C198.226 95.3412 198.598 95.0263 199.062 94.8009C199.53 94.5723 200.047 94.4579 200.614 94.4579C201.213 94.4579 201.732 94.5805 202.17 94.8258C202.607 95.0711 202.945 95.3975 203.184 95.8052C203.426 96.2096 203.547 96.6554 203.547 97.1426C203.547 97.7226 203.389 98.2197 203.075 98.634C202.76 99.045 202.335 99.3301 201.802 99.4892V99.5538C202.451 99.683 202.962 99.9714 203.333 100.419C203.708 100.863 203.895 101.408 203.895 102.054C203.895 102.598 203.752 103.087 203.467 103.521C203.182 103.952 202.791 104.293 202.294 104.545C201.8 104.794 201.233 104.918 200.594 104.918ZM206.833 103.253C206.637 103.253 206.468 103.183 206.326 103.044C206.187 102.901 206.117 102.732 206.117 102.537C206.117 102.338 206.187 102.169 206.326 102.03C206.468 101.89 206.637 101.821 206.833 101.821C207.032 101.821 207.201 101.89 207.34 102.03C207.479 102.169 207.549 102.338 207.549 102.537C207.549 102.666 207.516 102.785 207.45 102.895C207.387 103.004 207.3 103.092 207.191 103.158C207.085 103.221 206.966 103.253 206.833 103.253ZM206.833 98.0872C206.637 98.0872 206.468 98.0176 206.326 97.8784C206.187 97.7358 206.117 97.5668 206.117 97.3713C206.117 97.1757 206.187 97.0083 206.326 96.8691C206.468 96.7266 206.637 96.6554 206.833 96.6554C207.032 96.6554 207.201 96.7266 207.34 96.8691C207.479 97.0083 207.549 97.1757 207.549 97.3713C207.549 97.5005 207.516 97.6198 207.45 97.7292C207.387 97.8386 207.3 97.9264 207.191 97.9927C207.085 98.0557 206.966 98.0872 206.833 98.0872ZM212.83 104.918C212.263 104.918 211.756 104.804 211.309 104.575C210.865 104.343 210.51 104.025 210.245 103.621C209.983 103.216 209.844 102.754 209.827 102.233H210.727C210.757 102.774 210.969 103.218 211.363 103.566C211.758 103.911 212.247 104.083 212.83 104.083C213.284 104.083 213.688 103.975 214.043 103.76C214.398 103.541 214.674 103.243 214.873 102.865C215.076 102.484 215.177 102.054 215.177 101.577C215.173 101.08 215.066 100.643 214.853 100.265C214.641 99.8836 214.353 99.5853 213.988 99.3698C213.627 99.1544 213.221 99.0467 212.77 99.0467C212.429 99.0434 212.094 99.0997 211.766 99.2157C211.438 99.3317 211.165 99.4809 210.946 99.6632L210.016 99.5438L210.628 94.5971H215.659V95.4323H211.408L211 98.8379H211.05C211.276 98.649 211.549 98.4948 211.87 98.3755C212.195 98.2562 212.538 98.1965 212.9 98.1965C213.5 98.1965 214.038 98.3407 214.515 98.6291C214.996 98.9174 215.375 99.3152 215.654 99.8223C215.936 100.326 216.076 100.906 216.076 101.562C216.076 102.205 215.936 102.78 215.654 103.287C215.375 103.791 214.991 104.189 214.5 104.481C214.013 104.772 213.456 104.918 212.83 104.918ZM221.254 94.4579C221.679 94.4612 222.09 94.5474 222.487 94.7164C222.888 94.8822 223.25 95.1506 223.571 95.5218C223.893 95.8897 224.148 96.3803 224.337 96.9934C224.526 97.6033 224.62 98.354 224.62 99.2455C224.62 100.077 224.547 100.84 224.401 101.532C224.256 102.225 224.037 102.825 223.745 103.332C223.457 103.836 223.092 104.227 222.651 104.505C222.214 104.781 221.702 104.918 221.115 104.918C220.568 104.918 220.083 104.804 219.658 104.575C219.238 104.346 218.896 104.03 218.634 103.626C218.373 103.218 218.21 102.747 218.147 102.214H219.062C219.151 102.757 219.37 103.205 219.718 103.556C220.069 103.907 220.535 104.083 221.115 104.083C221.947 104.083 222.593 103.695 223.054 102.92C223.515 102.144 223.745 101.04 223.745 99.6085H223.681C223.521 99.9068 223.313 100.167 223.054 100.389C222.799 100.611 222.507 100.785 222.179 100.911C221.851 101.034 221.505 101.095 221.14 101.095C220.573 101.095 220.055 100.952 219.584 100.667C219.113 100.379 218.737 99.9863 218.455 99.4892C218.174 98.9887 218.033 98.4186 218.033 97.7789C218.033 97.1757 218.165 96.6222 218.431 96.1184C218.699 95.6113 219.074 95.207 219.554 94.9054C220.038 94.6004 220.605 94.4513 221.254 94.4579ZM221.254 95.2931C220.814 95.2931 220.417 95.4058 220.066 95.6312C219.718 95.8533 219.441 96.1532 219.236 96.5311C219.034 96.9056 218.933 97.3215 218.933 97.7789C218.933 98.2396 219.034 98.6589 219.236 99.0367C219.441 99.4113 219.718 99.7096 220.066 99.9316C220.417 100.15 220.814 100.26 221.254 100.26C221.592 100.26 221.907 100.192 222.199 100.056C222.491 99.9167 222.743 99.7278 222.955 99.4892C223.17 99.2505 223.332 98.9804 223.442 98.6788C223.555 98.3739 223.599 98.054 223.576 97.7193C223.536 97.2553 223.412 96.841 223.203 96.4764C222.998 96.1085 222.726 95.8201 222.388 95.6113C222.053 95.3992 221.675 95.2931 221.254 95.2931ZM227.464 103.253C227.268 103.253 227.099 103.183 226.957 103.044C226.818 102.901 226.748 102.732 226.748 102.537C226.748 102.338 226.818 102.169 226.957 102.03C227.099 101.89 227.268 101.821 227.464 101.821C227.663 101.821 227.832 101.89 227.971 102.03C228.11 102.169 228.18 102.338 228.18 102.537C228.18 102.666 228.147 102.785 228.08 102.895C228.017 103.004 227.931 103.092 227.822 103.158C227.716 103.221 227.596 103.253 227.464 103.253ZM227.464 98.0872C227.268 98.0872 227.099 98.0176 226.957 97.8784C226.818 97.7358 226.748 97.5668 226.748 97.3713C226.748 97.1757 226.818 97.0083 226.957 96.8691C227.099 96.7266 227.268 96.6554 227.464 96.6554C227.663 96.6554 227.832 96.7266 227.971 96.8691C228.11 97.0083 228.18 97.1757 228.18 97.3713C228.18 97.5005 228.147 97.6198 228.08 97.7292C228.017 97.8386 227.931 97.9264 227.822 97.9927C227.716 98.0557 227.596 98.0872 227.464 98.0872ZM233.461 104.918C232.894 104.918 232.387 104.804 231.94 104.575C231.495 104.343 231.141 104.025 230.876 103.621C230.614 103.216 230.475 102.754 230.458 102.233H231.358C231.388 102.774 231.6 103.218 231.994 103.566C232.389 103.911 232.878 104.083 233.461 104.083C233.915 104.083 234.319 103.975 234.674 103.76C235.029 103.541 235.305 103.243 235.504 102.865C235.706 102.484 235.807 102.054 235.807 101.577C235.804 101.08 235.696 100.643 235.484 100.265C235.272 99.8836 234.984 99.5853 234.619 99.3698C234.258 99.1544 233.852 99.0467 233.401 99.0467C233.06 99.0434 232.725 99.0997 232.397 99.2157C232.069 99.3317 231.795 99.4809 231.577 99.6632L230.647 99.5438L231.258 94.5971H236.29V95.4323H232.039L231.631 98.8379H231.681C231.906 98.649 232.18 98.4948 232.501 98.3755C232.826 98.2562 233.169 98.1965 233.53 98.1965C234.13 98.1965 234.669 98.3407 235.146 98.6291C235.627 98.9174 236.006 99.3152 236.285 99.8223C236.566 100.326 236.707 100.906 236.707 101.562C236.707 102.205 236.566 102.78 236.285 103.287C236.006 103.791 235.622 104.189 235.131 104.481C234.644 104.772 234.087 104.918 233.461 104.918ZM241.885 94.4579C242.309 94.4612 242.72 94.5474 243.118 94.7164C243.519 94.8822 243.88 95.1506 244.202 95.5218C244.523 95.8897 244.779 96.3803 244.968 96.9934C245.157 97.6033 245.251 98.354 245.251 99.2455C245.251 100.077 245.178 100.84 245.032 101.532C244.886 102.225 244.668 102.825 244.376 103.332C244.088 103.836 243.723 104.227 243.282 104.505C242.845 104.781 242.333 104.918 241.746 104.918C241.199 104.918 240.714 104.804 240.289 104.575C239.868 104.346 239.527 104.03 239.265 103.626C239.003 103.218 238.841 102.747 238.778 102.214H239.693C239.782 102.757 240.001 103.205 240.349 103.556C240.7 103.907 241.166 104.083 241.746 104.083C242.578 104.083 243.224 103.695 243.685 102.92C244.146 102.144 244.376 101.04 244.376 99.6085H244.311C244.152 99.9068 243.943 100.167 243.685 100.389C243.43 100.611 243.138 100.785 242.81 100.911C242.482 101.034 242.135 101.095 241.771 101.095C241.204 101.095 240.685 100.952 240.215 100.667C239.744 100.379 239.368 99.9863 239.086 99.4892C238.805 98.9887 238.664 98.4186 238.664 97.7789C238.664 97.1757 238.796 96.6222 239.061 96.1184C239.33 95.6113 239.704 95.207 240.185 94.9054C240.669 94.6004 241.236 94.4513 241.885 94.4579ZM241.885 95.2931C241.444 95.2931 241.048 95.4058 240.697 95.6312C240.349 95.8533 240.072 96.1532 239.867 96.5311C239.665 96.9056 239.563 97.3215 239.563 97.7789C239.563 98.2396 239.665 98.6589 239.867 99.0367C240.072 99.4113 240.349 99.7096 240.697 99.9316C241.048 100.15 241.444 100.26 241.885 100.26C242.223 100.26 242.538 100.192 242.83 100.056C243.122 99.9167 243.373 99.7278 243.586 99.4892C243.801 99.2505 243.963 98.9804 244.073 98.6788C244.185 98.3739 244.23 98.054 244.207 97.7193C244.167 97.2553 244.043 96.841 243.834 96.4764C243.629 96.1085 243.357 95.8201 243.019 95.6113C242.684 95.3992 242.306 95.2931 241.885 95.2931ZM251.694 99.688C251.694 98.4948 251.845 97.3679 252.147 96.3073C252.448 95.2467 252.881 94.2524 253.444 93.3244H254.25C254.008 93.7155 253.786 94.158 253.583 94.6518C253.385 95.1456 253.212 95.6726 253.066 96.2328C252.921 96.7929 252.808 97.3663 252.728 97.9529C252.649 98.5363 252.609 99.1146 252.609 99.688C252.609 100.454 252.679 101.226 252.818 102.005C252.957 102.784 253.149 103.523 253.394 104.222C253.643 104.921 253.928 105.531 254.25 106.052H253.444C252.881 105.12 252.448 104.124 252.147 103.064C251.845 102.003 251.694 100.878 251.694 99.688ZM263.15 94.5971H264.08V101.339C264.08 102.031 263.917 102.651 263.592 103.198C263.268 103.742 262.815 104.171 262.235 104.486C261.658 104.797 260.987 104.953 260.222 104.953C259.459 104.953 258.788 104.796 258.208 104.481C257.628 104.166 257.176 103.737 256.851 103.193C256.526 102.649 256.364 102.031 256.364 101.339V94.5971H257.293V101.274C257.293 101.814 257.414 102.296 257.656 102.721C257.898 103.142 258.238 103.473 258.676 103.715C259.116 103.957 259.632 104.078 260.222 104.078C260.812 104.078 261.327 103.957 261.768 103.715C262.209 103.473 262.548 103.142 262.787 102.721C263.029 102.296 263.15 101.814 263.15 101.274V94.5971ZM266.165 95.4323V94.5971H273.548V95.4323H270.321V104.779H269.392V95.4323H266.165ZM283.192 97.7789H282.257C282.187 97.4309 282.061 97.1094 281.879 96.8144C281.7 96.5161 281.475 96.256 281.203 96.0339C280.931 95.8118 280.623 95.6395 280.278 95.5169C279.934 95.3942 279.561 95.3329 279.16 95.3329C278.517 95.3329 277.93 95.5003 277.4 95.835C276.873 96.1698 276.45 96.662 276.132 97.3116C275.817 97.9579 275.66 98.75 275.66 99.688C275.66 100.633 275.817 101.428 276.132 102.074C276.45 102.721 276.873 103.211 277.4 103.546C277.93 103.877 278.517 104.043 279.16 104.043C279.561 104.043 279.934 103.982 280.278 103.859C280.623 103.737 280.931 103.566 281.203 103.347C281.475 103.125 281.7 102.865 281.879 102.567C282.061 102.268 282.187 101.945 282.257 101.597H283.192C283.109 102.064 282.953 102.5 282.724 102.905C282.499 103.306 282.211 103.657 281.859 103.959C281.511 104.26 281.11 104.496 280.656 104.665C280.202 104.834 279.703 104.918 279.16 104.918C278.305 104.918 277.546 104.704 276.883 104.277C276.22 103.846 275.7 103.239 275.322 102.457C274.947 101.675 274.76 100.752 274.76 99.688C274.76 98.6241 274.947 97.701 275.322 96.9188C275.7 96.1366 276.22 95.5318 276.883 95.1042C277.546 94.6733 278.305 94.4579 279.16 94.4579C279.703 94.4579 280.202 94.5424 280.656 94.7115C281.11 94.8772 281.511 95.1125 281.859 95.4174C282.211 95.719 282.499 96.0704 282.724 96.4714C282.953 96.8724 283.109 97.3083 283.192 97.7789ZM288.16 102.85V96.5509H289.01V102.85H288.16ZM285.435 100.126V99.2754H291.734V100.126H285.435ZM297.423 104.918C296.773 104.918 296.195 104.796 295.688 104.55C295.181 104.305 294.783 103.97 294.495 103.546C294.206 103.118 294.062 102.636 294.062 102.099C294.062 101.678 294.15 101.286 294.326 100.921C294.501 100.553 294.743 100.245 295.051 99.9963C295.36 99.7444 295.706 99.5803 296.09 99.5041V99.4494C295.59 99.3036 295.187 99.0169 294.882 98.5893C294.577 98.1584 294.427 97.6696 294.43 97.1227C294.427 96.6156 294.556 96.1615 294.818 95.7605C295.08 95.3594 295.436 95.0429 295.887 94.8109C296.341 94.5756 296.853 94.4579 297.423 94.4579C297.99 94.4579 298.498 94.5756 298.949 94.8109C299.4 95.0429 299.756 95.3594 300.018 95.7605C300.283 96.1615 300.417 96.6156 300.421 97.1227C300.417 97.6662 300.263 98.1551 299.958 98.5893C299.653 99.0202 299.252 99.3069 298.755 99.4494V99.5041C299.14 99.577 299.484 99.7394 299.789 99.9913C300.094 100.243 300.336 100.553 300.515 100.921C300.694 101.286 300.784 101.678 300.784 102.099C300.784 102.636 300.638 103.118 300.346 103.546C300.058 103.97 299.66 104.305 299.153 104.55C298.649 104.796 298.072 104.918 297.423 104.918ZM297.423 104.083C297.907 104.083 298.331 103.997 298.696 103.824C299.063 103.649 299.35 103.408 299.556 103.104C299.764 102.799 299.869 102.449 299.869 102.054C299.869 101.647 299.761 101.284 299.546 100.966C299.33 100.644 299.039 100.391 298.671 100.205C298.303 100.016 297.887 99.9217 297.423 99.9217C296.959 99.9217 296.541 100.016 296.17 100.205C295.802 100.391 295.51 100.644 295.295 100.966C295.083 101.284 294.977 101.647 294.977 102.054C294.977 102.449 295.078 102.799 295.28 103.104C295.486 103.408 295.772 103.649 296.14 103.824C296.511 103.997 296.939 104.083 297.423 104.083ZM297.423 99.1262C297.821 99.1262 298.177 99.0417 298.492 98.8727C298.807 98.7036 299.055 98.4733 299.238 98.1816C299.423 97.8866 299.518 97.5519 299.521 97.1774C299.518 96.8062 299.425 96.478 299.242 96.193C299.06 95.9046 298.812 95.6809 298.497 95.5218C298.185 95.3594 297.827 95.2782 297.423 95.2782C297.019 95.2782 296.657 95.3594 296.339 95.5218C296.024 95.6809 295.776 95.9046 295.593 96.193C295.414 96.478 295.327 96.8062 295.33 97.1774C295.327 97.5519 295.416 97.8866 295.598 98.1816C295.784 98.4733 296.034 98.7036 296.349 98.8727C296.667 99.0417 297.025 99.1262 297.423 99.1262ZM305.031 99.688C305.031 100.881 304.88 102.008 304.578 103.069C304.277 104.129 303.844 105.124 303.281 106.052H302.475C302.717 105.661 302.938 105.218 303.136 104.724C303.339 104.23 303.513 103.703 303.658 103.143C303.804 102.583 303.917 102.01 303.997 101.423C304.076 100.836 304.116 100.258 304.116 99.688C304.116 98.9224 304.046 98.1501 303.907 97.3713C303.768 96.5924 303.574 95.8533 303.325 95.1539C303.08 94.4546 302.797 93.8447 302.475 93.3244H303.281C303.844 94.2557 304.277 95.2517 304.578 96.3123C304.88 97.3729 305.031 98.4982 305.031 99.688Z" fill="white"/>
<path d="M0 12.4988C0 5.87136 5.37258 0.498779 12 0.498779H159.313C162.082 0.498779 164.014 3.24471 163.078 5.85087L153.021 33.8509C152.451 35.4393 150.944 36.4988 149.257 36.4988H0V12.4988Z" fill="#FFC916"/>
<path d="M21.6245 24.965V13.3286H29.7381V15.6127H24.437V17.9991H29.3233V20.2888H24.437V22.6809H29.7381V24.965H21.6245ZM39.9654 16.2377L36.971 24.965H33.7892L30.8006 16.2377H33.7267L35.3347 22.2491H35.4256L37.0392 16.2377H39.9654ZM44.829 25.1297C43.9161 25.1297 43.1282 24.9498 42.4654 24.59C41.8063 24.2263 41.2987 23.7093 40.9426 23.0388C40.5904 22.3646 40.4142 21.5635 40.4142 20.6354C40.4142 19.7339 40.5923 18.946 40.9483 18.2718C41.3044 17.5938 41.8063 17.0672 42.454 16.6922C43.1017 16.3135 43.865 16.1241 44.7438 16.1241C45.365 16.1241 45.9332 16.2206 46.4483 16.4138C46.9635 16.607 47.4085 16.893 47.7835 17.2718C48.1585 17.6506 48.4502 18.1184 48.6585 18.6752C48.8669 19.2282 48.971 19.8627 48.971 20.5786V21.2718H41.3858V19.6581H46.3858C46.382 19.3627 46.312 19.0994 46.1756 18.8684C46.0392 18.6373 45.8517 18.4574 45.6131 18.3286C45.3782 18.196 45.1074 18.1297 44.8006 18.1297C44.49 18.1297 44.2116 18.1998 43.9654 18.34C43.7192 18.4763 43.5241 18.6638 43.3801 18.9025C43.2362 19.1373 43.1604 19.4044 43.1529 19.7036V21.3456C43.1529 21.7017 43.2229 22.0142 43.3631 22.2831C43.5032 22.5483 43.7021 22.7547 43.9597 22.9025C44.2173 23.0502 44.5241 23.1241 44.8801 23.1241C45.1264 23.1241 45.3498 23.09 45.5506 23.0218C45.7514 22.9536 45.9237 22.8532 46.0676 22.7206C46.2116 22.5881 46.3195 22.4252 46.3915 22.232L48.9426 22.3059C48.8366 22.8778 48.6036 23.376 48.2438 23.8002C47.8877 24.2206 47.4199 24.5483 46.8404 24.7831C46.2608 25.0142 45.5904 25.1297 44.829 25.1297ZM53.1685 19.9877V24.965H50.3901V16.2377H53.0321V17.84H53.1287C53.3219 17.3059 53.6514 16.8873 54.1174 16.5843C54.5833 16.2775 55.1382 16.1241 55.7821 16.1241C56.3958 16.1241 56.928 16.2623 57.3787 16.5388C57.8333 16.8116 58.1855 17.1941 58.4355 17.6866C58.6893 18.1752 58.8143 18.7472 58.8105 19.4025V24.965H56.0321V19.9479C56.0359 19.4631 55.9128 19.0843 55.6628 18.8116C55.4166 18.5388 55.0738 18.4025 54.6344 18.4025C54.3427 18.4025 54.0852 18.4669 53.8617 18.5956C53.642 18.7206 53.4715 18.9006 53.3503 19.1354C53.2329 19.3703 53.1723 19.6544 53.1685 19.9877ZM65.4568 16.2377V18.2831H59.9512V16.2377H65.4568ZM61.1046 14.1468H63.883V22.2206C63.883 22.3911 63.9095 22.5294 63.9625 22.6354C64.0193 22.7377 64.1008 22.8116 64.2068 22.857C64.3129 22.8987 64.4398 22.9195 64.5875 22.9195C64.6936 22.9195 64.8053 22.91 64.9228 22.8911C65.044 22.8684 65.1349 22.8494 65.1955 22.8343L65.6159 24.84C65.4834 24.8778 65.2959 24.9252 65.0534 24.982C64.8148 25.0388 64.5288 25.0748 64.1955 25.09C63.544 25.1203 62.9853 25.0445 62.5193 24.8627C62.0572 24.6771 61.7031 24.3892 61.4568 23.9991C61.2144 23.6089 61.097 23.1184 61.1046 22.5275V14.1468ZM74.6131 24.965H70.312V13.3286H74.6074C75.793 13.3286 76.8139 13.5616 77.6699 14.0275C78.5298 14.4896 79.1926 15.1563 79.6585 16.0275C80.1245 16.8949 80.3574 17.9328 80.3574 19.1411C80.3574 20.3532 80.1245 21.3949 79.6585 22.2661C79.1964 23.1373 78.5354 23.8059 77.6756 24.2718C76.8157 24.7339 75.7949 24.965 74.6131 24.965ZM73.1245 22.5672H74.5051C75.1567 22.5672 75.7078 22.4574 76.1585 22.2377C76.6131 22.0142 76.9559 21.6525 77.187 21.1525C77.4218 20.6487 77.5392 19.9782 77.5392 19.1411C77.5392 18.304 77.4218 17.6373 77.187 17.1411C76.9521 16.6411 76.6055 16.2813 76.1472 16.0616C75.6926 15.8381 75.132 15.7263 74.4654 15.7263H73.1245V22.5672ZM87.6301 21.1979V16.2377H90.4029V24.965H87.7551V23.34H87.6642C87.471 23.8741 87.1415 24.2983 86.6756 24.6127C86.2135 24.9233 85.6548 25.0786 84.9995 25.0786C84.4048 25.0786 83.882 24.9422 83.4313 24.6695C82.9805 24.3968 82.6301 24.0161 82.3801 23.5275C82.1301 23.035 82.0032 22.4593 81.9995 21.8002V16.2377H84.7779V21.2547C84.7817 21.7282 84.9067 22.1013 85.1529 22.3741C85.3991 22.6468 85.7343 22.7831 86.1585 22.7831C86.4351 22.7831 86.6832 22.7225 86.9029 22.6013C87.1264 22.4763 87.3025 22.2964 87.4313 22.0616C87.5639 21.8229 87.6301 21.535 87.6301 21.1979ZM92.1713 24.965V16.2377H94.8702V17.8286H94.9611C95.1202 17.2528 95.3797 16.8248 95.7395 16.5445C96.0994 16.2604 96.5179 16.1184 96.9952 16.1184C97.124 16.1184 97.2566 16.1278 97.3929 16.1468C97.5293 16.1619 97.6562 16.1866 97.7736 16.2206V18.6354C97.641 18.59 97.4668 18.554 97.2509 18.5275C97.0388 18.501 96.8494 18.4877 96.6827 18.4877C96.3531 18.4877 96.0558 18.5616 95.7906 18.7093C95.5293 18.8532 95.3228 19.0559 95.1713 19.3172C95.0236 19.5748 94.9497 19.8778 94.9497 20.2263V24.965H92.1713ZM101.038 25.1127C100.481 25.1127 99.9867 25.0199 99.5549 24.8343C99.1268 24.6449 98.7878 24.3608 98.5378 23.982C98.2916 23.5994 98.1685 23.1203 98.1685 22.5445C98.1685 22.0597 98.2537 21.6506 98.4242 21.3172C98.5946 20.9839 98.8295 20.7131 99.1287 20.5047C99.428 20.2964 99.7727 20.1392 100.163 20.0331C100.553 19.9233 100.97 19.8494 101.413 19.8116C101.909 19.7661 102.309 19.7188 102.612 19.6695C102.915 19.6165 103.134 19.5426 103.271 19.4479C103.411 19.3494 103.481 19.2112 103.481 19.0331V19.0047C103.481 18.7131 103.381 18.4877 103.18 18.3286C102.979 18.1695 102.708 18.09 102.367 18.09C102 18.09 101.704 18.1695 101.481 18.3286C101.258 18.4877 101.115 18.7074 101.055 18.9877L98.4924 18.8968C98.5681 18.3665 98.7632 17.893 99.0776 17.4763C99.3958 17.0559 99.8314 16.7263 100.384 16.4877C100.941 16.2453 101.61 16.1241 102.39 16.1241C102.947 16.1241 103.46 16.1903 103.93 16.3229C104.4 16.4517 104.809 16.6411 105.157 16.8911C105.506 17.1373 105.775 17.4403 105.964 17.8002C106.157 18.16 106.254 18.571 106.254 19.0331V24.965H103.64V23.7491H103.572C103.417 24.0445 103.218 24.2945 102.975 24.4991C102.737 24.7036 102.454 24.857 102.129 24.9593C101.807 25.0616 101.443 25.1127 101.038 25.1127ZM101.896 23.2945C102.195 23.2945 102.464 23.2339 102.703 23.1127C102.945 22.9915 103.138 22.8248 103.282 22.6127C103.426 22.3968 103.498 22.1468 103.498 21.8627V21.0331C103.418 21.0748 103.322 21.1127 103.208 21.1468C103.098 21.1809 102.977 21.2131 102.845 21.2434C102.712 21.2737 102.576 21.3002 102.436 21.3229C102.295 21.3456 102.161 21.3665 102.032 21.3854C101.771 21.4271 101.547 21.4915 101.362 21.5786C101.18 21.6657 101.04 21.7794 100.941 21.9195C100.847 22.0559 100.799 22.2188 100.799 22.4081C100.799 22.696 100.901 22.9157 101.106 23.0672C101.314 23.2188 101.578 23.2945 101.896 23.2945ZM112.879 16.2377V18.2831H107.373V16.2377H112.879ZM108.526 14.1468H111.305V22.2206C111.305 22.3911 111.331 22.5294 111.384 22.6354C111.441 22.7377 111.523 22.8116 111.629 22.857C111.735 22.8987 111.862 22.9195 112.009 22.9195C112.115 22.9195 112.227 22.91 112.345 22.8911C112.466 22.8684 112.557 22.8494 112.617 22.8343L113.038 24.84C112.905 24.8778 112.718 24.9252 112.475 24.982C112.237 25.0388 111.951 25.0748 111.617 25.09C110.966 25.1203 110.407 25.0445 109.941 24.8627C109.479 24.6771 109.125 24.3892 108.879 23.9991C108.636 23.6089 108.519 23.1184 108.526 22.5275V14.1468ZM114.296 24.965V16.2377H117.075V24.965H114.296ZM115.688 15.2206C115.298 15.2206 114.963 15.0919 114.683 14.8343C114.402 14.5729 114.262 14.2585 114.262 13.8911C114.262 13.5275 114.402 13.2169 114.683 12.9593C114.963 12.6979 115.298 12.5672 115.688 12.5672C116.082 12.5672 116.418 12.6979 116.694 12.9593C116.974 13.2169 117.115 13.5275 117.115 13.8911C117.115 14.2585 116.974 14.5729 116.694 14.8343C116.418 15.0919 116.082 15.2206 115.688 15.2206ZM122.917 25.1297C122 25.1297 121.213 24.9422 120.553 24.5672C119.898 24.1885 119.392 23.6619 119.036 22.9877C118.684 22.3097 118.508 21.5237 118.508 20.6297C118.508 19.732 118.684 18.946 119.036 18.2718C119.392 17.5938 119.898 17.0672 120.553 16.6922C121.213 16.3135 122 16.1241 122.917 16.1241C123.834 16.1241 124.62 16.3135 125.275 16.6922C125.934 17.0672 126.44 17.5938 126.792 18.2718C127.148 18.946 127.326 19.732 127.326 20.6297C127.326 21.5237 127.148 22.3097 126.792 22.9877C126.44 23.6619 125.934 24.1885 125.275 24.5672C124.62 24.9422 123.834 25.1297 122.917 25.1297ZM122.934 23.0331C123.267 23.0331 123.55 22.9309 123.781 22.7263C124.012 22.5218 124.188 22.2377 124.309 21.8741C124.434 21.5104 124.497 21.09 124.497 20.6127C124.497 20.1278 124.434 19.7036 124.309 19.34C124.188 18.9763 124.012 18.6922 123.781 18.4877C123.55 18.2831 123.267 18.1809 122.934 18.1809C122.589 18.1809 122.298 18.2831 122.059 18.4877C121.824 18.6922 121.644 18.9763 121.519 19.34C121.398 19.7036 121.338 20.1278 121.338 20.6127C121.338 21.09 121.398 21.5104 121.519 21.8741C121.644 22.2377 121.824 22.5218 122.059 22.7263C122.298 22.9309 122.589 23.0331 122.934 23.0331ZM131.528 19.9877V24.965H128.749V16.2377H131.392V17.84H131.488C131.681 17.3059 132.011 16.8873 132.477 16.5843C132.943 16.2775 133.498 16.1241 134.142 16.1241C134.755 16.1241 135.287 16.2623 135.738 16.5388C136.193 16.8116 136.545 17.1941 136.795 17.6866C137.049 18.1752 137.174 18.7472 137.17 19.4025V24.965H134.392V19.9479C134.395 19.4631 134.272 19.0843 134.022 18.8116C133.776 18.5388 133.433 18.4025 132.994 18.4025C132.702 18.4025 132.445 18.4669 132.221 18.5956C132.001 18.7206 131.831 18.9006 131.71 19.1354C131.592 19.3703 131.532 19.6544 131.528 19.9877Z" fill="black"/>
</svg>
