<svg width="137" height="37" viewBox="0 0 137 37" fill="none" xmlns="http://www.w3.org/2000/svg">
<path d="M0 12.7278C0 6.10037 5.37258 0.727783 12 0.727783H130.917C133.793 0.727783 135.729 3.67231 134.589 6.31293L122.504 34.3129C121.871 35.7786 120.428 36.7278 118.831 36.7278H0V12.7278Z" fill="#FFC916"/>
<path d="M30.6478 18.218L32.6958 18.794C32.0878 20.2553 31.2878 21.498 30.2958 22.522C29.3144 23.546 28.1624 24.394 26.8398 25.066C25.5278 25.738 24.0611 26.2713 22.4398 26.666C22.3758 26.506 22.2691 26.3086 22.1198 26.074C21.9811 25.85 21.8318 25.626 21.6718 25.402C21.5118 25.178 21.3624 24.9966 21.2238 24.858C22.8024 24.5486 24.2104 24.1166 25.4478 23.562C26.6958 23.0073 27.7571 22.2926 28.6318 21.418C29.5064 20.5326 30.1784 19.466 30.6478 18.218ZM25.4798 15.45L27.4638 16.202C27.0904 16.7033 26.6531 17.1993 26.1518 17.69C25.6504 18.1806 25.1278 18.6393 24.5838 19.066C24.0398 19.4926 23.5171 19.8606 23.0158 20.17C22.8984 20.0313 22.7438 19.866 22.5518 19.674C22.3598 19.482 22.1624 19.2953 21.9598 19.114C21.7571 18.9326 21.5758 18.7833 21.4158 18.666C21.9278 18.4206 22.4344 18.1273 22.9358 17.786C23.4371 17.4446 23.9064 17.0713 24.3438 16.666C24.7918 16.2606 25.1704 15.8553 25.4798 15.45ZM26.9198 18.298C27.6344 20.058 28.7598 21.4873 30.2958 22.586C31.8424 23.674 33.8424 24.4153 36.2958 24.81C36.1571 24.9486 36.0078 25.1246 35.8478 25.338C35.6878 25.562 35.5331 25.786 35.3838 26.01C35.2451 26.2446 35.1331 26.4526 35.0478 26.634C33.3091 26.3033 31.8051 25.802 30.5358 25.13C29.2771 24.4473 28.1998 23.5833 27.3038 22.538C26.4184 21.4926 25.6771 20.2606 25.0798 18.842L26.9198 18.298ZM21.6558 13.45H35.8478V15.322H21.6558V13.45ZM27.7198 11.578H29.7038V14.682H27.7198V11.578ZM30.2798 16.442L31.8478 15.29C32.3171 15.5993 32.8184 15.9566 33.3518 16.362C33.8958 16.7566 34.4078 17.1566 34.8878 17.562C35.3784 17.9673 35.7784 18.346 36.0878 18.698L34.3598 20.01C34.0931 19.6686 33.7304 19.29 33.2718 18.874C32.8131 18.4473 32.3171 18.026 31.7838 17.61C31.2611 17.1833 30.7598 16.794 30.2798 16.442ZM41.4318 16.25V17.258H48.1678V16.25H41.4318ZM41.4318 13.818V14.81H48.1678V13.818H41.4318ZM39.5598 12.282H50.1358V18.794H39.5598V12.282ZM40.5358 19.754H49.9118V21.434H40.5358V19.754ZM49.4638 19.754H51.4158C51.4158 19.754 51.4104 19.802 51.3998 19.898C51.3998 19.9833 51.3944 20.09 51.3838 20.218C51.3838 20.3353 51.3731 20.4366 51.3518 20.522C51.2451 21.6846 51.1278 22.6393 50.9998 23.386C50.8718 24.122 50.7384 24.698 50.5998 25.114C50.4611 25.53 50.3011 25.8286 50.1198 26.01C49.9278 26.2233 49.7251 26.3726 49.5118 26.458C49.2984 26.5433 49.0638 26.5966 48.8078 26.618C48.5838 26.65 48.2904 26.666 47.9278 26.666C47.5758 26.666 47.2024 26.6553 46.8078 26.634C46.7971 26.3993 46.7438 26.1273 46.6478 25.818C46.5624 25.5086 46.4504 25.242 46.3118 25.018C46.6424 25.05 46.9518 25.0713 47.2398 25.082C47.5384 25.082 47.7571 25.082 47.8958 25.082C48.0344 25.082 48.1464 25.0713 48.2318 25.05C48.3171 25.0286 48.4024 24.9753 48.4878 24.89C48.6051 24.7726 48.7224 24.538 48.8398 24.186C48.9678 23.8233 49.0798 23.306 49.1758 22.634C49.2824 21.962 49.3784 21.0926 49.4638 20.026V19.754ZM41.5278 17.946L43.3678 18.538C42.9838 19.1993 42.5251 19.8286 41.9918 20.426C41.4691 21.0233 40.9144 21.578 40.3278 22.09C39.7411 22.5913 39.1491 23.0286 38.5518 23.402C38.4451 23.274 38.3011 23.1246 38.1198 22.954C37.9491 22.7726 37.7731 22.5966 37.5918 22.426C37.4104 22.2553 37.2451 22.122 37.0958 22.026C37.9918 21.5673 38.8344 20.9806 39.6238 20.266C40.4131 19.5406 41.0478 18.7673 41.5278 17.946ZM43.0958 20.346L44.9038 20.906C44.5198 21.642 44.0504 22.346 43.4958 23.018C42.9518 23.6793 42.3651 24.2873 41.7358 24.842C41.1064 25.3966 40.4611 25.8766 39.7998 26.282C39.7038 26.154 39.5704 25.9993 39.3998 25.818C39.2291 25.6473 39.0478 25.4766 38.8558 25.306C38.6744 25.1353 38.5144 25.002 38.3758 24.906C39.3678 24.4046 40.2798 23.7593 41.1118 22.97C41.9544 22.17 42.6158 21.2953 43.0958 20.346ZM46.3598 20.458L48.1838 20.89C47.7571 22.0953 47.1971 23.21 46.5038 24.234C45.8211 25.2473 45.0798 26.0846 44.2798 26.746C44.1731 26.6393 44.0238 26.5113 43.8318 26.362C43.6504 26.2126 43.4638 26.0633 43.2718 25.914C43.0798 25.7646 42.9091 25.6473 42.7598 25.562C43.5704 24.9966 44.2851 24.266 44.9038 23.37C45.5331 22.4633 46.0184 21.4926 46.3598 20.458ZM60.8238 11.594H62.5358V18.378C62.5358 19.178 62.4984 19.9673 62.4238 20.746C62.3598 21.514 62.2211 22.2553 62.0078 22.97C61.7944 23.674 61.4798 24.3353 61.0638 24.954C60.6478 25.5726 60.0878 26.1326 59.3838 26.634C59.2878 26.506 59.1544 26.362 58.9838 26.202C58.8238 26.042 58.6584 25.882 58.4878 25.722C58.3171 25.5726 58.1571 25.45 58.0078 25.354C58.6371 24.9273 59.1384 24.4526 59.5118 23.93C59.8851 23.4073 60.1624 22.8473 60.3438 22.25C60.5358 21.6526 60.6638 21.0286 60.7278 20.378C60.7918 19.7273 60.8238 19.0606 60.8238 18.378V11.594ZM63.6558 11.594H65.4638V26.618H63.6558V11.594ZM58.4558 14.218H61.5598V15.946H58.4558V14.218ZM64.5998 14.218H67.9918V15.946H64.5998V14.218ZM64.7278 17.594H67.7998V19.274H64.7278V17.594ZM64.5838 21.034H68.2478V22.778H64.5838V21.034ZM58.5838 17.594H61.6238V19.274H58.5838V17.594ZM57.6078 21.722C58.0558 21.6046 58.5838 21.4553 59.1918 21.274C59.7998 21.082 60.4238 20.8846 61.0638 20.682L61.3518 22.186C60.8398 22.3886 60.3224 22.5966 59.7998 22.81C59.2878 23.0126 58.7971 23.2046 58.3278 23.386L57.6078 21.722ZM53.0798 19.642C53.7198 19.5033 54.4824 19.3166 55.3678 19.082C56.2638 18.8473 57.1651 18.602 58.0718 18.346L58.3118 20.074C57.4904 20.3193 56.6584 20.5646 55.8158 20.81C54.9838 21.0553 54.2104 21.2793 53.4958 21.482L53.0798 19.642ZM53.3358 14.634H58.2318V16.394H53.3358V14.634ZM55.0158 11.61H56.7758V24.602C56.7758 25.0393 56.7278 25.386 56.6318 25.642C56.5464 25.9086 56.3811 26.1166 56.1358 26.266C55.9011 26.4153 55.6024 26.5166 55.2398 26.57C54.8878 26.6233 54.4451 26.6446 53.9118 26.634C53.8904 26.3993 53.8318 26.106 53.7358 25.754C53.6398 25.4126 53.5331 25.114 53.4158 24.858C53.7144 24.8686 53.9864 24.8793 54.2318 24.89C54.4878 24.89 54.6638 24.8846 54.7598 24.874C54.8558 24.874 54.9198 24.858 54.9518 24.826C54.9944 24.7833 55.0158 24.7086 55.0158 24.602V11.61ZM75.8958 12.506H83.7038V14.346H75.8958V12.506ZM79.9438 17.498H81.9118V24.41C81.9118 24.9113 81.8478 25.306 81.7198 25.594C81.6024 25.8926 81.3678 26.1166 81.0158 26.266C80.6638 26.4046 80.2318 26.49 79.7198 26.522C79.2078 26.5646 78.5944 26.586 77.8798 26.586C77.8371 26.3086 77.7571 25.978 77.6398 25.594C77.5331 25.2206 77.4158 24.9006 77.2878 24.634C77.5971 24.6446 77.9064 24.6553 78.2158 24.666C78.5251 24.6766 78.8024 24.682 79.0478 24.682C79.2931 24.6713 79.4638 24.666 79.5598 24.666C79.7091 24.666 79.8104 24.6446 79.8638 24.602C79.9171 24.5486 79.9438 24.4686 79.9438 24.362V17.498ZM75.2078 16.954H84.1198V18.778H75.2078V16.954ZM71.6078 18.842L73.2878 17.146L73.5278 17.242V26.65H71.6078V18.842ZM73.4158 15.082L75.2398 15.786C74.8238 16.49 74.3384 17.1993 73.7838 17.914C73.2398 18.618 72.6638 19.2846 72.0558 19.914C71.4584 20.5433 70.8718 21.0926 70.2958 21.562C70.2104 21.4233 70.0878 21.2526 69.9278 21.05C69.7678 20.8366 69.6024 20.6233 69.4318 20.41C69.2718 20.1966 69.1224 20.026 68.9838 19.898C69.5384 19.514 70.0878 19.066 70.6318 18.554C71.1758 18.0313 71.6878 17.4766 72.1678 16.89C72.6478 16.2926 73.0638 15.69 73.4158 15.082ZM72.8078 11.594L74.6638 12.362C74.2691 12.8633 73.8264 13.3753 73.3358 13.898C72.8451 14.41 72.3331 14.9006 71.7998 15.37C71.2664 15.8393 70.7438 16.25 70.2318 16.602C70.1571 16.4526 70.0558 16.282 69.9278 16.09C69.7998 15.8873 69.6664 15.69 69.5278 15.498C69.3998 15.306 69.2771 15.146 69.1598 15.018C69.6078 14.7406 70.0611 14.4046 70.5198 14.01C70.9784 13.6153 71.4104 13.21 71.8158 12.794C72.2211 12.3673 72.5518 11.9673 72.8078 11.594ZM91.1438 13.002H99.8798V14.522H91.1438V13.002ZM94.4718 11.594H96.3438V13.754H94.4718V11.594ZM94.4718 17.93H96.3438V19.962H94.4718V17.93ZM91.1278 19.274H99.8798V20.858H91.1278V19.274ZM92.4238 14.634L94.0398 14.298C94.1571 14.5646 94.2638 14.8633 94.3598 15.194C94.4558 15.5246 94.5198 15.8073 94.5518 16.042L92.8558 16.426C92.8344 16.1913 92.7811 15.9033 92.6958 15.562C92.6211 15.2206 92.5304 14.9113 92.4238 14.634ZM96.7918 14.138L98.6798 14.41C98.5304 14.794 98.3864 15.1673 98.2478 15.53C98.1091 15.882 97.9811 16.186 97.8638 16.442L96.2638 16.17C96.3278 15.978 96.3918 15.7646 96.4558 15.53C96.5304 15.2846 96.5944 15.0446 96.6478 14.81C96.7118 14.5646 96.7598 14.3406 96.7918 14.138ZM90.9678 16.09H100.04V18.762H98.2798V17.578H92.6478V18.794H90.9678V16.09ZM93.7518 21.738H97.9438V23.306H93.7518V21.738ZM97.2878 21.738H99.1438C99.1438 21.738 99.1384 21.8233 99.1278 21.994C99.1278 22.154 99.1171 22.2873 99.0958 22.394C99.0424 23.1406 98.9838 23.7593 98.9198 24.25C98.8664 24.7406 98.7918 25.13 98.6958 25.418C98.6104 25.706 98.5038 25.9193 98.3758 26.058C98.2158 26.2393 98.0398 26.3673 97.8478 26.442C97.6664 26.5166 97.4584 26.5646 97.2238 26.586C97.0318 26.6073 96.7651 26.618 96.4238 26.618C96.0931 26.6286 95.7464 26.6286 95.3838 26.618C95.3731 26.3726 95.3198 26.0953 95.2238 25.786C95.1278 25.4873 95.0211 25.2313 94.9038 25.018C95.2024 25.0393 95.4798 25.0553 95.7358 25.066C95.9918 25.0766 96.1838 25.082 96.3118 25.082C96.5358 25.082 96.7011 25.034 96.8078 24.938C96.8824 24.8526 96.9464 24.7033 96.9998 24.49C97.0638 24.2766 97.1171 23.9673 97.1598 23.562C97.2131 23.1566 97.2558 22.6286 97.2878 21.978V21.738ZM85.4638 14.922H90.7598V16.698H85.4638V14.922ZM87.4158 11.594H89.1438V26.618H87.4158V11.594ZM87.3838 16.138L88.4398 16.49C88.3331 17.13 88.1944 17.7913 88.0238 18.474C87.8531 19.146 87.6611 19.8126 87.4478 20.474C87.2344 21.1246 86.9998 21.7326 86.7438 22.298C86.4984 22.8633 86.2318 23.3486 85.9438 23.754C85.8584 23.5086 85.7251 23.2206 85.5438 22.89C85.3731 22.5593 85.2184 22.2873 85.0798 22.074C85.3358 21.722 85.5811 21.3113 85.8158 20.842C86.0504 20.3726 86.2691 19.8713 86.4718 19.338C86.6744 18.8046 86.8504 18.266 86.9998 17.722C87.1598 17.1673 87.2878 16.6393 87.3838 16.138ZM89.0638 17.354C89.1598 17.4713 89.3038 17.674 89.4958 17.962C89.6878 18.2393 89.8904 18.5433 90.1038 18.874C90.3278 19.2046 90.5304 19.514 90.7118 19.802C90.8931 20.0793 91.0158 20.2766 91.0798 20.394L90.0878 21.786C89.9918 21.5406 89.8638 21.2526 89.7038 20.922C89.5438 20.5806 89.3731 20.234 89.1918 19.882C89.0211 19.53 88.8504 19.1993 88.6798 18.89C88.5198 18.5806 88.3811 18.3246 88.2638 18.122L89.0638 17.354ZM93.4958 19.93H95.3198C95.2771 20.7193 95.1971 21.4606 95.0798 22.154C94.9731 22.8366 94.7811 23.4606 94.5038 24.026C94.2371 24.5806 93.8584 25.0766 93.3678 25.514C92.8771 25.962 92.2318 26.3513 91.4318 26.682C91.3464 26.4473 91.1971 26.186 90.9838 25.898C90.7704 25.6206 90.5678 25.3966 90.3758 25.226C91.0478 24.9806 91.5811 24.6873 91.9758 24.346C92.3811 24.0046 92.6851 23.61 92.8878 23.162C93.0904 22.714 93.2344 22.2233 93.3198 21.69C93.4051 21.1566 93.4638 20.57 93.4958 19.93Z" fill="black"/>
</svg>
