<svg width="197" height="36" viewBox="0 0 197 36" fill="none" xmlns="http://www.w3.org/2000/svg">
<path d="M0 12C0 5.37258 5.37258 0 12 0H190.917C193.793 0 195.729 2.94453 194.589 5.58515L182.504 33.5852C181.871 35.0508 180.428 36 178.831 36H0V12Z" fill="#FFC916"/>
<path d="M21.2438 15.1139V12.8298H31.079V15.1139H27.5506V24.4662H24.7779V15.1139H21.2438ZM31.5463 24.4662V15.7389H34.2452V17.3298H34.3361C34.4952 16.7541 34.7547 16.326 35.1145 16.0457C35.4744 15.7616 35.8929 15.6196 36.3702 15.6196C36.499 15.6196 36.6316 15.6291 36.7679 15.648C36.9043 15.6632 37.0312 15.6878 37.1486 15.7219V18.1366C37.016 18.0912 36.8418 18.0552 36.6259 18.0287C36.4138 18.0022 36.2244 17.9889 36.0577 17.9889C35.7281 17.9889 35.4308 18.0628 35.1656 18.2105C34.9043 18.3544 34.6978 18.5571 34.5463 18.8185C34.3986 19.076 34.3247 19.3791 34.3247 19.7276V24.4662H31.5463ZM40.4128 24.6139C39.856 24.6139 39.3617 24.5211 38.9299 24.3355C38.5018 24.1461 38.1628 23.862 37.9128 23.4832C37.6666 23.1007 37.5435 22.6215 37.5435 22.0457C37.5435 21.5609 37.6287 21.1518 37.7992 20.8185C37.9696 20.4851 38.2045 20.2143 38.5037 20.006C38.803 19.7976 39.1477 19.6404 39.5378 19.5344C39.928 19.4245 40.3446 19.3507 40.7878 19.3128C41.284 19.2673 41.6836 19.22 41.9867 19.1707C42.2897 19.1177 42.5094 19.0438 42.6458 18.9491C42.7859 18.8507 42.856 18.7124 42.856 18.5344V18.506C42.856 18.2143 42.7556 17.9889 42.5549 17.8298C42.3541 17.6707 42.0833 17.5912 41.7424 17.5912C41.3749 17.5912 41.0795 17.6707 40.856 17.8298C40.6325 17.9889 40.4905 18.2086 40.4299 18.4889L37.8674 18.398C37.9431 17.8677 38.1382 17.3942 38.4526 16.9776C38.7708 16.5571 39.2064 16.2276 39.7594 15.9889C40.3162 15.7465 40.9848 15.6253 41.7651 15.6253C42.3219 15.6253 42.8352 15.6916 43.3049 15.8241C43.7746 15.9529 44.1836 16.1423 44.5321 16.3923C44.8806 16.6385 45.1496 16.9416 45.3389 17.3014C45.5321 17.6613 45.6287 18.0722 45.6287 18.5344V24.4662H43.0151V23.2503H42.9469C42.7916 23.5457 42.5927 23.7957 42.3503 24.0003C42.1117 24.2048 41.8295 24.3582 41.5037 24.4605C41.1817 24.5628 40.8181 24.6139 40.4128 24.6139ZM41.2708 22.7957C41.57 22.7957 41.8389 22.7351 42.0776 22.6139C42.32 22.4927 42.5132 22.326 42.6571 22.1139C42.8011 21.898 42.873 21.648 42.873 21.3639V20.5344C42.7935 20.576 42.6969 20.6139 42.5833 20.648C42.4734 20.6821 42.3522 20.7143 42.2196 20.7446C42.0871 20.7749 41.9507 20.8014 41.8105 20.8241C41.6704 20.8469 41.5359 20.8677 41.4071 20.8866C41.1458 20.9283 40.9223 20.9927 40.7367 21.0798C40.5549 21.1669 40.4147 21.2806 40.3162 21.4207C40.2215 21.5571 40.1742 21.72 40.1742 21.9094C40.1742 22.1972 40.2764 22.4169 40.481 22.5685C40.6893 22.72 40.9526 22.7957 41.2708 22.7957ZM50.5151 24.5912C49.8711 24.5912 49.2859 24.4245 48.7594 24.0912C48.2329 23.7579 47.8124 23.2579 47.498 22.5912C47.1836 21.9245 47.0264 21.0969 47.0264 20.1082C47.0264 19.0817 47.1893 18.237 47.5151 17.5741C47.8408 16.9113 48.267 16.4207 48.7935 16.1025C49.3238 15.7844 49.8939 15.6253 50.5037 15.6253C50.9621 15.6253 51.3541 15.7048 51.6799 15.8639C52.0056 16.0192 52.2746 16.22 52.4867 16.4662C52.6988 16.7124 52.8598 16.9681 52.9696 17.2332H53.0264V12.8298H55.8049V24.4662H53.0549V23.0514H52.9696C52.8522 23.3204 52.6855 23.5722 52.4696 23.8071C52.2537 24.0419 51.9829 24.2313 51.6571 24.3753C51.3352 24.5192 50.9545 24.5912 50.5151 24.5912ZM51.481 22.4264C51.8181 22.4264 52.106 22.3317 52.3446 22.1423C52.5833 21.9491 52.767 21.6783 52.8958 21.3298C53.0246 20.9813 53.0889 20.5722 53.0889 20.1026C53.0889 19.6253 53.0246 19.2143 52.8958 18.8696C52.7708 18.5249 52.5871 18.2597 52.3446 18.0741C52.106 17.8885 51.8181 17.7957 51.481 17.7957C51.1363 17.7957 50.8446 17.8904 50.606 18.0798C50.3674 18.2692 50.1855 18.5363 50.0605 18.881C49.9393 19.2257 49.8787 19.6329 49.8787 20.1026C49.8787 20.5722 49.9412 20.9813 50.0662 21.3298C50.1912 21.6783 50.3711 21.9491 50.606 22.1423C50.8446 22.3317 51.1363 22.4264 51.481 22.4264ZM57.562 24.4662V15.7389H60.3404V24.4662H57.562ZM58.954 14.7219C58.5639 14.7219 58.2286 14.5931 57.9483 14.3355C57.668 14.0741 57.5279 13.7597 57.5279 13.3923C57.5279 13.0287 57.668 12.7181 57.9483 12.4605C58.2286 12.1991 58.5639 12.0685 58.954 12.0685C59.3479 12.0685 59.6832 12.1991 59.9597 12.4605C60.24 12.7181 60.3801 13.0287 60.3801 13.3923C60.3801 13.7597 60.24 14.0741 59.9597 14.3355C59.6832 14.5931 59.3479 14.7219 58.954 14.7219ZM64.8872 19.4889V24.4662H62.1088V15.7389H64.7509V17.3412H64.8475C65.0406 16.8071 65.3702 16.3885 65.8361 16.0855C66.302 15.7787 66.8569 15.6253 67.5009 15.6253C68.1145 15.6253 68.6467 15.7635 69.0975 16.04C69.552 16.3128 69.9043 16.6954 70.1543 17.1878C70.4081 17.6764 70.5331 18.2484 70.5293 18.9037V24.4662H67.7509V19.4491C67.7547 18.9643 67.6316 18.5855 67.3816 18.3128C67.1353 18.0401 66.7925 17.9037 66.3531 17.9037C66.0615 17.9037 65.8039 17.9681 65.5804 18.0969C65.3607 18.2219 65.1903 18.4018 65.0691 18.6366C64.9516 18.8715 64.891 19.1556 64.8872 19.4889ZM76.3176 27.9207C75.4881 27.9207 74.7779 27.8052 74.187 27.5741C73.596 27.3431 73.132 27.0268 72.7949 26.6253C72.4578 26.2238 72.2551 25.7692 72.187 25.2616L74.8176 25.1139C74.8669 25.2919 74.9578 25.4472 75.0904 25.5798C75.2267 25.7124 75.4029 25.8147 75.6188 25.8866C75.8385 25.9586 76.096 25.9946 76.3915 25.9946C76.8574 25.9946 77.2419 25.881 77.5449 25.6537C77.8517 25.4302 78.0051 25.0382 78.0051 24.4776V22.9435H77.9085C77.7987 23.2124 77.632 23.4529 77.4085 23.6651C77.1851 23.8772 76.9067 24.0438 76.5733 24.1651C76.2438 24.2863 75.865 24.3469 75.437 24.3469C74.8006 24.3469 74.2173 24.1991 73.687 23.9037C73.1604 23.6044 72.7381 23.1423 72.4199 22.5173C72.1055 21.8885 71.9483 21.0798 71.9483 20.0912C71.9483 19.0722 72.1112 18.2332 72.437 17.5741C72.7627 16.9113 73.1889 16.4207 73.7154 16.1025C74.2457 15.7844 74.8157 15.6253 75.4256 15.6253C75.8839 15.6253 76.276 15.7048 76.6017 15.8639C76.9313 16.0192 77.2021 16.22 77.4142 16.4662C77.6264 16.7124 77.7873 16.9681 77.8972 17.2332H77.9767V15.7389H80.7438V24.5003C80.7438 25.2389 80.5582 25.862 80.187 26.3696C79.8157 26.8772 79.2968 27.2616 78.6301 27.523C77.9635 27.7882 77.1926 27.9207 76.3176 27.9207ZM76.4029 22.3241C76.74 22.3241 77.0279 22.2351 77.2665 22.0571C77.5051 21.8791 77.6889 21.6234 77.8176 21.2901C77.9464 20.9567 78.0108 20.5571 78.0108 20.0912C78.0108 19.6177 77.9464 19.2105 77.8176 18.8696C77.6926 18.5249 77.5089 18.2597 77.2665 18.0741C77.0279 17.8885 76.74 17.7957 76.4029 17.7957C76.0582 17.7957 75.7665 17.8904 75.5279 18.0798C75.2892 18.2692 75.1074 18.5363 74.9824 18.881C74.8612 19.2219 74.8006 19.6253 74.8006 20.0912C74.8006 20.5571 74.8631 20.9567 74.9881 21.2901C75.1131 21.6234 75.293 21.8791 75.5279 22.0571C75.7665 22.2351 76.0582 22.3241 76.4029 22.3241ZM85.9526 24.4662V12.8298H90.7594C91.6306 12.8298 92.3825 12.987 93.0151 13.3014C93.6514 13.612 94.142 14.059 94.4867 14.6423C94.8314 15.2219 95.0037 15.9094 95.0037 16.7048C95.0037 17.5116 94.8276 18.1972 94.4753 18.7616C94.123 19.3222 93.623 19.7503 92.9753 20.0457C92.3276 20.3374 91.5605 20.4832 90.6742 20.4832H87.6344V18.2673H90.1514C90.5757 18.2673 90.9299 18.2124 91.2139 18.1026C91.5018 17.9889 91.7196 17.8185 91.8674 17.5912C92.0151 17.3601 92.0889 17.0647 92.0889 16.7048C92.0889 16.345 92.0151 16.0476 91.8674 15.8128C91.7196 15.5741 91.5018 15.3961 91.2139 15.2787C90.9261 15.1575 90.5719 15.0969 90.1514 15.0969H88.7651V24.4662H85.9526ZM92.5037 19.148L95.4014 24.4662H92.3333L89.4924 19.148H92.5037ZM99.0066 24.6139C98.4497 24.6139 97.9554 24.5211 97.5236 24.3355C97.0956 24.1461 96.7566 23.862 96.5066 23.4832C96.2603 23.1007 96.1372 22.6215 96.1372 22.0457C96.1372 21.5609 96.2225 21.1518 96.3929 20.8185C96.5634 20.4851 96.7982 20.2143 97.0975 20.006C97.3967 19.7976 97.7414 19.6404 98.1316 19.5344C98.5217 19.4245 98.9384 19.3507 99.3816 19.3128C99.8778 19.2673 100.277 19.22 100.58 19.1707C100.883 19.1177 101.103 19.0438 101.24 18.9491C101.38 18.8507 101.45 18.7124 101.45 18.5344V18.506C101.45 18.2143 101.349 17.9889 101.149 17.8298C100.948 17.6707 100.677 17.5912 100.336 17.5912C99.9687 17.5912 99.6732 17.6707 99.4497 17.8298C99.2263 17.9889 99.0842 18.2086 99.0236 18.4889L96.4611 18.398C96.5369 17.8677 96.7319 17.3942 97.0463 16.9776C97.3645 16.5571 97.8001 16.2276 98.3531 15.9889C98.91 15.7465 99.5785 15.6253 100.359 15.6253C100.916 15.6253 101.429 15.6916 101.899 15.8241C102.368 15.9529 102.777 16.1423 103.126 16.3923C103.474 16.6385 103.743 16.9416 103.933 17.3014C104.126 17.6613 104.222 18.0722 104.222 18.5344V24.4662H101.609V23.2503H101.541C101.385 23.5457 101.186 23.7957 100.944 24.0003C100.705 24.2048 100.423 24.3582 100.097 24.4605C99.7755 24.5628 99.4119 24.6139 99.0066 24.6139ZM99.8645 22.7957C100.164 22.7957 100.433 22.7351 100.671 22.6139C100.914 22.4927 101.107 22.326 101.251 22.1139C101.395 21.898 101.467 21.648 101.467 21.3639V20.5344C101.387 20.576 101.291 20.6139 101.177 20.648C101.067 20.6821 100.946 20.7143 100.813 20.7446C100.681 20.7749 100.544 20.8014 100.404 20.8241C100.264 20.8469 100.13 20.8677 100.001 20.8866C99.7395 20.9283 99.516 20.9927 99.3304 21.0798C99.1486 21.1669 99.0085 21.2806 98.91 21.4207C98.8153 21.5571 98.7679 21.72 98.7679 21.9094C98.7679 22.1972 98.8702 22.4169 99.0747 22.5685C99.2831 22.72 99.5463 22.7957 99.8645 22.7957ZM108.7 19.4889V24.4662H105.921V15.7389H108.563V17.3412H108.66C108.853 16.8071 109.183 16.3885 109.649 16.0855C110.115 15.7787 110.669 15.6253 111.313 15.6253C111.927 15.6253 112.459 15.7635 112.91 16.04C113.365 16.3128 113.717 16.6954 113.967 17.1878C114.221 17.6764 114.346 18.2484 114.342 18.9037V24.4662H111.563V19.4491C111.567 18.9643 111.444 18.5855 111.194 18.3128C110.948 18.0401 110.605 17.9037 110.166 17.9037C109.874 17.9037 109.616 17.9681 109.393 18.0969C109.173 18.2219 109.003 18.4018 108.882 18.6366C108.764 18.8715 108.704 19.1556 108.7 19.4889ZM118.568 22.1764L118.579 18.8639H118.965L121.42 15.7389H124.568L120.92 20.2162H120.187L118.568 22.1764ZM116.062 24.4662V12.8298H118.84V24.4662H116.062ZM121.482 24.4662L119.198 20.8412L121.028 18.8696L124.693 24.4662H121.482ZM125.562 24.4662V15.7389H128.34V24.4662H125.562ZM126.954 14.7219C126.564 14.7219 126.229 14.5931 125.948 14.3355C125.668 14.0741 125.528 13.7597 125.528 13.3923C125.528 13.0287 125.668 12.7181 125.948 12.4605C126.229 12.1991 126.564 12.0685 126.954 12.0685C127.348 12.0685 127.683 12.1991 127.96 12.4605C128.24 12.7181 128.38 13.0287 128.38 13.3923C128.38 13.7597 128.24 14.0741 127.96 14.3355C127.683 14.5931 127.348 14.7219 126.954 14.7219ZM132.887 19.4889V24.4662H130.109V15.7389H132.751V17.3412H132.847C133.041 16.8071 133.37 16.3885 133.836 16.0855C134.302 15.7787 134.857 15.6253 135.501 15.6253C136.115 15.6253 136.647 15.7635 137.097 16.04C137.552 16.3128 137.904 16.6954 138.154 17.1878C138.408 17.6764 138.533 18.2484 138.529 18.9037V24.4662H135.751V19.4491C135.755 18.9643 135.632 18.5855 135.382 18.3128C135.135 18.0401 134.793 17.9037 134.353 17.9037C134.061 17.9037 133.804 17.9681 133.58 18.0969C133.361 18.2219 133.19 18.4018 133.069 18.6366C132.952 18.8715 132.891 19.1556 132.887 19.4889ZM144.318 27.9207C143.488 27.9207 142.778 27.8052 142.187 27.5741C141.596 27.3431 141.132 27.0268 140.795 26.6253C140.458 26.2238 140.255 25.7692 140.187 25.2616L142.818 25.1139C142.867 25.2919 142.958 25.4472 143.09 25.5798C143.227 25.7124 143.403 25.8147 143.619 25.8866C143.838 25.9586 144.096 25.9946 144.392 25.9946C144.857 25.9946 145.242 25.881 145.545 25.6537C145.852 25.4302 146.005 25.0382 146.005 24.4776V22.9435H145.909C145.799 23.2124 145.632 23.4529 145.409 23.6651C145.185 23.8772 144.907 24.0438 144.573 24.1651C144.244 24.2863 143.865 24.3469 143.437 24.3469C142.801 24.3469 142.217 24.1991 141.687 23.9037C141.16 23.6044 140.738 23.1423 140.42 22.5173C140.106 21.8885 139.948 21.0798 139.948 20.0912C139.948 19.0722 140.111 18.2332 140.437 17.5741C140.763 16.9113 141.189 16.4207 141.715 16.1025C142.246 15.7844 142.816 15.6253 143.426 15.6253C143.884 15.6253 144.276 15.7048 144.602 15.8639C144.931 16.0192 145.202 16.22 145.414 16.4662C145.626 16.7124 145.787 16.9681 145.897 17.2332H145.977V15.7389H148.744V24.5003C148.744 25.2389 148.558 25.862 148.187 26.3696C147.816 26.8772 147.297 27.2616 146.63 27.523C145.963 27.7882 145.193 27.9207 144.318 27.9207ZM144.403 22.3241C144.74 22.3241 145.028 22.2351 145.267 22.0571C145.505 21.8791 145.689 21.6234 145.818 21.2901C145.946 20.9567 146.011 20.5571 146.011 20.0912C146.011 19.6177 145.946 19.2105 145.818 18.8696C145.693 18.5249 145.509 18.2597 145.267 18.0741C145.028 17.8885 144.74 17.7957 144.403 17.7957C144.058 17.7957 143.767 17.8904 143.528 18.0798C143.289 18.2692 143.107 18.5363 142.982 18.881C142.861 19.2219 142.801 19.6253 142.801 20.0912C142.801 20.5571 142.863 20.9567 142.988 21.2901C143.113 21.6234 143.293 21.8791 143.528 22.0571C143.767 22.2351 144.058 22.3241 144.403 22.3241ZM158.134 18.4037L155.583 18.4719C155.557 18.2901 155.485 18.1291 155.367 17.9889C155.25 17.845 155.097 17.7332 154.907 17.6537C154.722 17.5704 154.506 17.5287 154.259 17.5287C153.937 17.5287 153.663 17.5931 153.436 17.7219C153.212 17.8507 153.102 18.0249 153.106 18.2446C153.102 18.415 153.17 18.5628 153.311 18.6878C153.454 18.8128 153.71 18.9132 154.078 18.9889L155.759 19.3071C156.631 19.4738 157.278 19.7503 157.703 20.1366C158.131 20.523 158.347 21.0344 158.35 21.6707C158.347 22.2692 158.168 22.7901 157.816 23.2332C157.468 23.6764 156.99 24.0211 156.384 24.2673C155.778 24.5097 155.085 24.631 154.305 24.631C153.059 24.631 152.076 24.3753 151.356 23.8639C150.64 23.3488 150.231 22.6594 150.129 21.7957L152.873 21.7276C152.934 22.0457 153.091 22.2882 153.345 22.4548C153.598 22.6215 153.922 22.7048 154.316 22.7048C154.672 22.7048 154.962 22.6385 155.186 22.506C155.409 22.3734 155.523 22.1972 155.526 21.9776C155.523 21.7806 155.436 21.6234 155.265 21.506C155.095 21.3847 154.828 21.2901 154.464 21.2219L152.941 20.9321C152.066 20.773 151.415 20.4794 150.987 20.0514C150.559 19.6196 150.347 19.0704 150.35 18.4037C150.347 17.8204 150.502 17.3222 150.816 16.9094C151.131 16.4927 151.578 16.1745 152.157 15.9548C152.737 15.7351 153.42 15.6253 154.208 15.6253C155.39 15.6253 156.322 15.8734 157.004 16.3696C157.686 16.862 158.062 17.54 158.134 18.4037Z" fill="black"/>
</svg>
